/* XPM */
static char *result[] = {
/* columns rows colors chars-per-pixel */
"64 64 21 1 ",
"  c gray16",
". c #323232",
"X c gray23",
"o c gray56",
"O c gray48",
"+ c #656565",
"@ c gray34",
"# c #866E6E",
"$ c #735B5B",
"% c #4B2F2C",
"& c #3C2828",
"* c #292626",
"= c #232323",
"- c #3D3C3C",
"; c #353434",
": c #464242",
"> c #998181",
", c #FF0003",
"< c #523633",
"1 c #D40102",
"2 c #B10300",
/* pixels */
"              ..  .....XXX..X.......    ..                      ",
" ............XX...X..XXXXXXXXXXXX..XX...XXX.................... ",
"..ooOOooOOOOOOooOOoOOoooooOoOOOooooooooooooooooooooOOOOooooOOO. ",
"..oOOoooooooOOOooOOooooooooOOoooooooooooooooOoOOOoooOOoOOoooOO. ",
" .OooooOOOooooOOOoooOOooOOOOooOOOOoOOoooOOOOooooOOOOOOOOooOO+OX ",
" XOOOoooOOOooOOOoooOOooOOOOOOOoOOOOOoooooOOOOooOOOOO+OOooO++OOX.",
"XXOOoO++OOoOOOoooOOOOOOO+O+OOO++OOooOOOoooOO++ooooOOO++OO++OO+..",
".XOO++O+++OOOOOooo++OO++++OO+++OOoo+OOooOOO++OOOoOO+++@+OOO+++X.",
".XO+O++OO++@@++OO++O++@+@@@++OOooOOO++OOO++@+@@+OO++@@++++OO++X.",
"XX+++OOO++@@+OOOOOO++@+@@@++++OOoo+++OO+OO++@@+++OOO+@@@+++O+@X.",
".X+@+@++@@++@+O++@++@@@++++OOO++OOO++++@@+OO++@@@+++OOO++@@+@+X.",
".X@@++@@@++++++O++@@@++@@+++O++@++@+++@++++OO++@@@+OO+OO@@++@@X.",
" X++@@@++@+@@@++@@@+++@@+++++@@++@@+@@@@@+++@@@+++@@+@@@++@@@@X ",
" .@@@@++++@@++###$$$####$$$###$$##$$$$$$##$$#$###$@+@@+++++@@@. ",
" ...XXX.X.XXXXXXXXXXXX%%%%%%%%%%%%%&&%&&%%XXXXX..XX....XXXX.... ",
"  .     ....XX..XX.XX.....XXX..X....  .   ..X...        ....    ",
"*  *===*==*  ****=**** *   *====**==*  * *    ***    **==*****==",
"======***===**===***==**====================****==***=**===*****",
"-;;;;;----;;;;;;;---;;;--;-;;;;-;--;;;;;-;-:------;----;-;;;;;;;",
"-;;;;;;----;;;;;--;--;;--;;-;-;;---;-;;;;-::-:---;;;-:-;-;;;-;;;",
"--;;;-;-:---;;;---;;-;----;-;-;;-----;;;;-:--::--;-;-::-;;;;--;;",
":-;-;----:--;;;----;-;--:---;;-;-----;-;;;-:;-:-;;--:::-;;;-;-;;",
":---;;:-::---;;--:--;;--::-;;;-:-:--;--;;;-;--:--;;-::-;;;;;;--;",
"::--;;:--:---;-;::--;;---:-;-;>>>>;-;---;;;;-:::-;;:-:--;-;;---;",
":::;;;::-::--;--:---;;--:--->>>>###$;---;;;;::::-;;::-----;;:-:;",
"::-;;--:::::-;--:----;-::-#>>>>##>>#$$--;;-;::-:;;--:--:---;:::-",
":---;-;:-:::-;--::;--;-::$>>##>>>#$###$-;;;-::--;;--:-:--;-;::-:",
":-:-;-;--:-:;---::;-;---$###>##>#$$$#$#$;-;::::-;-:-:::--;;--:::",
":-:-;;--::--;-:-::-;;---$$#$..;;;...$#$$;--:::-;---:::::--;-::::",
":::--;:-:-:---:-::-;--:-.$$.;;&&&&;..$$;;;-:-:::-:--::-:-:;-::::",
"::-:-;:::-----::::----::...;%&,,,,&%...;;;::-:::-::-::---:-;-:::",
":---;;-:::---:-::::---::-..%&,,,,,,&%..;-;:-::::-::::::--:-;--::",
"::--;---::-:-:--:::-:-:::.<&,,,,,,,1&<-;-;---::-:::::::-::-;--::",
":::-----::::-::-:::-::-::.%&,,,,,,12&%---;-;-::::::::::-::-;;-::",
"::----:-:::::::--:::::-::;%&,,,11222&%-:--;;-:::::::::::::--;:-:",
"::-:---::::::::--::-:::::;%&12222222&%-::-;-:::::::::::::::----:",
":-::--::::-:-:-:-::--:::::<%&112222&%<-::--::::::::-::-::::---:-",
":::::-:::--:---::-:--:-:-:<%%&1122&%%<:::-::::::::---:-::::::-:-",
"-::::-:::-::--::---:---:---%<%&&&&%<%--:::::-::-::---:--::::::--",
"-::::--:--::-;::---::-:-::-<--;;;---<-:-:-::-:--:--;-::--:-:::--",
"-::::--:-:::-;-:--::-:--:::<>>>>>>>#<--::-::-:-::-:;;-:-::-:::-:",
"--:-::-:--:-;--:--:--:-:-:-:o>>>>##+::--:--:--:-::--;;-::--::-::",
";-:--:---;--;;---;:--:::--:-ooooOO++-:--::-:-:::-:--;;--:-::--::",
";;-:-:---;-:-;--;;-:-:-::-:-OoooooO+;-:;-::::-::;--;-;-;-:::--::",
";;-:::--;;-:--;-;--:::-:::-;OOoooOO@;--;-::-:-:-;;-;--;;-:-:-;:-",
";;--:-;-;;::--;;;---::-:-:-;oOooOo+@--;-:-:-;--:-;-;;-;;---:-;--",
";;-;--;-;-:-:-;;;----------;ooOo+O+@;-;;--::-;----;;-;;-----;;-;",
";;;;-;-;;---:--;;;-;------;-oOO+++@@;;;----:-;;---;;;;;;---;;-;;",
";  ; ;;;;;; ;   ;;    ;;;;;;O++@@+@@ ;--;;  ;;      ;;    ;;    ",
"  ;X;XX;XXXX;;X;;  ;;;X;%%%%OO++@@@@%%%%XX;;;XXX;;X;;XX;;;;XXX; ",
" ;OOOooooooooooo>###>>>>>>>#OoOO++@+#>>>###>>>>>ooOOooooooooOOX;",
" ;OOoOOooooooooOOoOOOoooOOoooOoOO++OoooOOOoooOOOOOOOOoOOooOOOO;;",
"; OOOOooOOOOOoooOO+OOOOOOoooooOOOOO++OOO+++OOooO+OOOOOooOOOOOO; ",
";;O++OOO++OOoooOO++O++OOoooOOooOO+++O+++@+OOOOO++++OOooOOOOOOO; ",
" ;++O++++OooooOOOO+++OoooOOOoO++@@+OOO+@OO++++@@++++@@++OOOOO+; ",
" ;OOOO++OOOoOOOO++@+OOOoOOOOO++@@+OO+++OO++@@@@+OO+@@+OO++O+++X ",
" ;OOOOO+++O++OO+@@+OOO++OO+OOOOO+@@++OO++@@+++OOO++++@@@+OOO++X;",
" X+OO+++@+++O++++@@+++OOO+++OO++++@@++OO++@@+++OOOOO++@++@+O+@;;",
" XO+++@@+++OOO+++++@+OO++@@+++OOO+O+++@@+++++@@+++OOO++@@++@@+; ",
" ;OO+++@@+OO++@@++@@@@++@+@@+++OOO++@@++++@@@@+++OO+++++@@++@@;;",
";X+@@@@++++++++@@@+++@@@++++@@@@++@@@@@+@@@++@@@+++O++@@@@@@++;X",
"XX@@@@+@@+++@@@@@+++@@@+++@@+@@+@++@@@@@++++@@@+@+++@@+@@@++++XX",
";XXX;XXX;;;;;;;;;;;;;;;;;;;;;;;;XXXX;XXXX;;;XXX;;;;;;;;;XXX;;XX;",
";;;XX;;;          ;;    ;;  ;;;;;;XXXX;;;;XX;X;;      ;;    ;;X;"
};
