/* XPM */
static char *result[] = {
/* columns rows colors chars-per-pixel */
"64 64 45 1 ",
"  c #453022",
". c #4C3524",
"X c #4C3729",
"o c #4D392B",
"O c #513624",
"+ c #533926",
"@ c #5B3C26",
"# c #543C2C",
"$ c #5A3E2B",
"% c #4F3E34",
"& c #543F30",
"* c #603F29",
"= c #5C412E",
"- c #564132",
"; c #5C4333",
": c #5E4836",
"> c #5C4639",
", c #5D493B",
"< c #63432D",
"1 c #6A462D",
"2 c #6D482F",
"3 c #70472C",
"4 c #724A2E",
"5 c #624633",
"6 c #694731",
"7 c #654936",
"8 c #6C4A34",
"9 c #644B3A",
"0 c #6B4D3A",
"q c #734D33",
"w c #794F33",
"e c #714F38",
"r c #6E503D",
"t c #755036",
"y c #7B5236",
"u c #73523B",
"i c #7A543B",
"p c #78583F",
"a c #5F4D41",
"s c #644E41",
"d c #655145",
"f c #6A5242",
"g c #735643",
"h c #795741",
"j c #7A5A43",
/* pixels */
"#@<76qe;+==+,ff9$;5*fhe95ww6<24<50e56yq5o$$#9df9$$;$fie>6qq<<56;",
"#$@<56<#.#=X-,,,Xo##075$@6q5<81<=55$;86@.@=X&9,>o%$#076$+185#5#+",
"->510-0ur:7ut7=17$=wq654q<+$7=-5--<qt50r0:9ue7<17$5tw<54q<.<7+#;",
"--<6$#506-5uu9=1*O+1<<*qq*o57#o#;o$q6=507;50u,$2*O+1<5*qq<o=<#X;",
"=###:0w<aff-,rg0>>#O+<<=;e075ut5$15$:0w5aff>>fh9>>$+o5<$5r09;qq5",
"=+# >7<$ddr->rr=;9;+X<2=587;=807=<;+;7<$sf0&>00;;9$++58$:q6:;q80",
"tt679;=q1$+<7-#97:<qu0<tq<6ii71qq0679;<q2@#57$&77;<qe05wq5<ip58y",
"460t07<21+#:0#-5u;=1tu=18@5r7=<1q59u06*21+#>0$&6e9$1ee*12@5r7$<2",
"*6q*9jg;=<<=77=+;:$#8tt59qy0#<5$*44$9ju:$1<=95$O-:;$6yt57qi0#2=$",
"*<4$$eu:+=<##=@+##&&<17$:ri<+<05+1q*#ug:#$=##5@+-###<17$:ry5+<77",
"e;;06$fht;:0q==00:975@+5<#9y4,:0q$;06=rie:50q;$e0;97<#+><#6yq>7u",
"0$605&;80==6r:#5$#;$5+$5<#;qy7;69;505#;08==60;&5=#;=<$@6<#;qy7=7",
"<q46-97;&55#;04<5u0990e9#0u78y0;<8q7-70;$55$584<:uq79009#9p68y0;",
"+<6>>00;:5$@$8w060q<;;5$;0q$$q05O177;00-;5$+#qw050q=;55&;0q==207",
"y89iu9:6q5+<<$58q#o5$#5wi6*qu95wy67iu998q;#<<$98q#X5$#6yi6<4u95y",
"y5<uu05q1+o5<$#18$X$$$6ww*$wu9@4y65qu978<@o56$#<2=X$$$6wq$$qu0@4",
"0u099yq=7qy6*28<$90=5yw*$$=&ad0;9u899yq=5qy7=22=;90$5y41+$;&ss05",
"9000$q4*6qq<<626;65#=t4*-,;o>95$9009<44$7wq1<121=77#;w4*&9>o>9;$",
"0997u5#<1$==8;&5;&$qy8<797%;5>:78990e5#56$#=6;-7;&=qy0<790%$*>>0",
"05005$o$5+#=8;X&;X*wy55q0=%-6>;e89005&o$1+#=0=X-;X*ww5500$%&7>5q",
"+<6&&5<;#<<;7tu;*4q58g0;$<<-0q0;+*8#&5<$#$<=5uu5=4q=7p05$1<:0005",
"O$<#-5<;-<6;:q855q7&*00;;5675e7;o$<#-5<;;56:;q8<<47;$0r>-66>5e7>",
"q7#58<X<5-8t4<<66;510$9gs;9uq;$809$<q<X55&8wq<<87-<27=,f0-5eq$$8",
"7;#<8+.$@#<326=15#5q0:&95&58q;$65;#;8+.@@+<421=1<=7q05;6>;5qe5$6",
"=79;$57=:q8:+-5+*0f5X55$*1<$&0u5$07;$575:t8:+-=+$0g5o55$=11$-005",
"==5=;705;ut<.#=+@609o55#+*<5%55:$;5;;78;;tt=.==+#609o<5#+@5;#;5:",
"q=:7790iy5902+=e090uq;;99#O<<+<uy*50090iy5902+=r090uq;;99$+56#$e",
"<$;5;;9gq@:01==75:;0e;-09>#5<#@2q$$5;;9gq$>01==55;;8e;-09;#67;#6",
"5e0=5eq6==-+#<@+X$*$<66>:ei0;;$++<7+;qq7==#+$<$#X$*$<15:;ee5574<",
"588$=8q5+==X+=@#&;$@@2$+6q1<%#$+#<=+$4q6@=;X+$@X&;$##1$+5q<$&6q8",
"q$X5<$$21#+==#=00-;70;;qg0<21<;00-=815$11#o$$@;00;;77;;qh9$2<$50",
"8=o<<=;68-.+=+o709&75$&e0=<q2<=06O=q45=57$X+;+#609$77=;q0$#66$$*",
":90$<qq;X=#X>ds>#;$$9u7;<26<$5;;+#=:<10=.$#X>ds,#;$$fe0$5qq5$21<",
"=56$581$.@=+&99>Xo$#r77=+185$5$O#=@5717+X@=o&99,oX$#076&#2q<<211",
";&<8q:000;9u09<16;<yq5<4q<.57+&;;>;17-0r0:9uq9<16$;tq<54q*+57$&9",
";o*q6;506-5uu7$1$.+11<<84*o;5+o$=&=6=-108-5uu,$1*.@12<*q4*o;7&o$",
";15$:0y<sfd;5fh9>>&O#=<=5u07;qq;-$##:rt<af0->fp0>>;O+*<$5e0:6qu5",
"=<$o;9<$aff-:f0;;9$OX<4=508-;qq0#+#.-7<=sff&>00;>9$+o58$588;:8q7",
"q8680-<41$+59-$70;5qt0<tt<1pi58wyq870-<48$+67$&97;5qu0<wt55ip<5w",
"q50e05<11+#:0$#5e5$1ut=12@;r7;<<q57u05<2<+#50&#605$1i0*64+5r6;*2",
"*6q$5jg:$<<;95<X->;$7yq77ei0$6;@*22<9ju:$<1=95*O-:;$8yq57ei0#1<$",
"$24$$ug5$$<+#<+O&$##<17$>ei*@*05@14$$ug:#$=+&*+#####<17$:0y<+<07",
"q=507$fhe550q;;e0>97<++;5#7yq>>g0=;06=rhe::0q;$e0>775++:<#9yq>:u",
"7;506&$80;$80:#;$#;=<=@7*@5qt6$77=705#;0q=$80>&<=#;=5$@5<@;qy5;5",
"<q86&59;$;5$584<7u079ru5&0i78y0;<qq7-77;$;6$;0457uq590g5#9p68y05",
"+<79900&;5$+$4w0:q4<;:5&;0q#*605+<6:;00;;5$+$qw0:0q<;55&;0q==207",
"y20yu958q;+<<&508$+;=X<yi7<qu95wy67iu0:6q5o<*$988$X;$+6yi6<4u9;y",
"w55eus5q1#o56$+18=X$$=<yw$$qu0#4y15tud58<@o56$#<8=X$$$6we$=4u0@4",
"0u899iq=:qw7*46*&9e$5yq*@#5&ss059u899yq=5qy7=22<=9e$5yw*+$5&sd05",
"9009$q4$6ww<<622;66&;uw#$>>X>95#,000<44$7w41<12<=76&$tw*&5>o>9*&",
"0997r5#56$$=0;&5;&$qy856s7&&5>570799u5#56$#;6;-:;&=qy856s7%&*>50",
"090e5=+#<+#;7$o$;X*tw65q0;%&5;9809005#o$1+#=0=o=;o*qt558e$%&9>5e",
"+*1&#5<=#*<;6uu5<qq$7g0;#1<:080;+*8#&5<$#*<;5uu5$4q<7p09$1<;0805",
"+*<#;7<;;<6:>885*q6;*00>$66>6q0;O$<#-5<;;56;588<<q7;$0e>-1595e7>",
"e5#58<X<5$8qq<*87;518$agf>>yq;$809$<q5+<5$8qq<=67;<27$9fs;7iw&$8",
"6;&;8+.@##<346$25@5q0>$75-5685$65;#;6O.@##5446=1<$788:&0>;&qq5$6",
"<70-=:0=:q0;+;5@$0f5&55@$15$&005=77;$575:q0-+:=@$0u;o5<$$11$-0u9",
"==5=-80;:ew;.#$O@5e7X$6#O*5;&55$$;5=;78;;ut<O#=+#709X;6#O*<;&;55",
"y<=r05rpy69q2+=r099ue5;f7$+65#;eq5;78>0iy5,q2+=r090ue5;s7#+5<+;u",
"4$=7=-9r8$>01$=75;:0e&&09;$50$#15#;55;9gq$,01==55:;0q;-00-#75#@4",
"+<7+;tq8==#+#5*+o$<@<675;eu6572<:qq;5eq7=$#+$<*#X;*@<855:eie>;$+",
"#<<X=4w<+=;X+=@+&;@##1$+58<$&6q7588$;6q5@$;o+$@o&$$#@<@O5q2<o$#X",
"0;=61<-61=+#=#;00;;77;=qp9$6<$688$X<<$$21#o$$#*0f&$09;5qh9<41<:0",
"4+=qw<=<1=.+<+#709;76;5q0$@62=#12=X<<=518$.+<##7e0;79$5q0=<44<;q"
};
