/* XPM */
static char *_4d198b1bb284551d1ed655e0f2a4ab1fKoUxshxxbPBwssr[] = {
/* columns rows colors chars-per-pixel */
"64 64 157 2 ",
"   c #4C4C4C",
".  c #504F4F",
"X  c #555454",
"o  c #585757",
"O  c #585857",
"+  c #5D5B5B",
"@  c #605F5F",
"#  c #61605F",
"$  c #615F60",
"%  c #656363",
"&  c #686766",
"*  c #696867",
"=  c #676768",
"-  c #6E6D6D",
";  c #6F6D6D",
":  c #6E6C6C",
">  c #6E6E6D",
",  c gray43",
"<  c #6F6E6E",
"1  c #6F6F6F",
"2  c #6D6C6C",
"3  c #6C6A6A",
"4  c #706E6D",
"5  c #706E6E",
"6  c #716E6E",
"7  c #706F6E",
"8  c #706F6F",
"9  c #716F6F",
"0  c #726F6F",
"q  c #706F6E",
"w  c #71706F",
"e  c #72706F",
"r  c #72706F",
"t  c #716F70",
"y  c gray44",
"u  c #717070",
"i  c #707171",
"p  c #717171",
"a  c #727070",
"s  c #737070",
"d  c #727170",
"f  c #737170",
"g  c #727171",
"h  c #737171",
"j  c #737271",
"k  c #727272",
"l  c #737272",
"z  c gray45",
"x  c #747171",
"c  c #747272",
"v  c #757272",
"b  c #747373",
"n  c #757373",
"m  c #767373",
"M  c #747474",
"N  c #757474",
"B  c gray46",
"V  c #767474",
"C  c #777474",
"Z  c #767575",
"A  c #777575",
"S  c #767676",
"D  c #777676",
"F  c #777777",
"G  c #747373",
"H  c #787575",
"J  c #787676",
"K  c #797676",
"L  c #787776",
"P  c #797776",
"I  c #787777",
"U  c #797777",
"Y  c #7A7777",
"T  c #787676",
"R  c #7A7877",
"E  c #7A7877",
"W  c gray47",
"Q  c #797878",
"!  c #797979",
"~  c #7A7878",
"^  c #7B7878",
"/  c #7A7879",
"(  c #7A7979",
")  c #7B7979",
"_  c #7B7A79",
"`  c #7A797A",
"'  c gray48",
"]  c #7B7A7A",
"[  c #7B7B7B",
"{  c #7C7979",
"}  c #7D7979",
"|  c #7C7A79",
" . c #7C7A7A",
".. c #7D7A7A",
"X. c #7C7B7B",
"o. c #7D7B7B",
"O. c #7E7B7B",
"+. c #7D7C7B",
"@. c #7C7C7C",
"#. c #7D7C7C",
"$. c gray49",
"%. c #7E7C7C",
"&. c #7F7C7C",
"*. c #7F7D7C",
"=. c #7E7D7D",
"-. c #7F7D7D",
";. c #7F7D7E",
":. c #7E7E7E",
">. c #7F7E7E",
",. c gray50",
"<. c #7C7B7B",
"1. c #807D7D",
"2. c #807E7D",
"3. c #807E7E",
"4. c #817E7E",
"5. c #817F7E",
"6. c #807F7F",
"7. c #817F7F",
"8. c #827F7F",
"9. c #807E7E",
"0. c #80807F",
"q. c #81807F",
"w. c #82807F",
"e. c #82807F",
"r. c #808080",
"t. c #818080",
"y. c #818181",
"u. c #828080",
"i. c #838080",
"p. c #828181",
"a. c #838181",
"s. c gray51",
"d. c #838282",
"f. c #838383",
"g. c #848181",
"h. c #848281",
"j. c #848282",
"k. c #858282",
"l. c #848383",
"z. c #858383",
"x. c #868383",
"c. c #848484",
"v. c #858484",
"b. c gray52",
"n. c #868484",
"m. c #878484",
"M. c #868584",
"N. c #878584",
"B. c #868585",
"V. c #878585",
"C. c #878686",
"Z. c #848282",
"A. c #888686",
"S. c #888686",
"D. c #888888",
"F. c #8B8B8B",
"G. c #898989",
/* pixels */
"$ % 3 3 4 } } & o & % + 2 } *.g @ % 3 % Y A.r.g g 4.r.V * E } 4 : S r.: g N.4.= X % % + : ^ *.g + & = % ^ N.s.1 g *.^ : & : 1 = ",
"+ % @ & 3 4 3 @ X + % X @ w m * X X % o g C t & @ V J 3 = g g : % g : % = V g % X % & . @ w m = o o % O g V g % + g V = @ : % + ",
"= & & 0 g % g O.^ & 1 r.r.g & : m @ & 4.} 3 3 } 4.* + 3 F % + 1 = $ & V } & 4 *.F = g r.r.M & : 4 % & e.} 3 3 ^ 4.3 X : V O @ 2 ",
"= + & m & + : } F % : s.c.: % m & . % m 4 3 & ^ } & + = M $ O % & O & @.V % : } V % : c.N.: % g & . % m t 3 = Y ^ = o 3 2 O + % ",
"# @ % + = *.g.3 : ^ [ & = 4.D.V = 3 % X + = 4 % : *.F = = w.w.3 % 4 w @ 2 *.r.= : } } & 2 *.D.M & 3 % X o 3 : % 2 *.^ = = *.*.1 ",
"+ + +   % w 3 % 1 O.O.+ 3 r.^ & = 4 & + + : E % : @.F & = } ^ : % 3 & o & 1 : % : } *.+ = r.^ & & 4 & + + : ^ % 2 @.^ & = ^ Y F ",
"w.^ m J V % 3 } V % + 1 M $ $ F V & = *.w.m = e.*.= : N.N.3 : *.} m g J V % 3 } V % + g V $ $ M J & & 4.8.m = 8.*.3 : N.c.: g r.",
"O.: g 4.^ = 3 J w + + 2 F @ $ M *.* % g 4.V % m V % & ^ V = & g ^ 3 w 4.} 3 = J g + + 2 F + % g 4.= % 4 *.J & m V % = ^ V & & g ",
"* V F = > F.s.3 # 3 : % 3 4 & o + * & $ g w.O.2 g *.g.m @ m = & & J Y & > F.c.2 $ 3 : % 3 4 & X + = & # g w.4.= 1 @.g.m @ m = = ",
"% w ^ & % y.b.> @ & = + + = # O + % @ + = V m @ = *.N.2 + 2 m = @ t ^ & % s.c.> @ = = + + * % o + % $ + & m m $ 2 *.N.: + 3 m 4 ",
"^ = 3 @.M % F D.r.2 = ^ 4.= & *.^ = 3 k = + + & 3 + 4 N.O.& = r.^ % 2 @.V % F D.s.2 3 ^ *.= * $.^ = = m = @ + & = + 4 N.} & = w.",
"F & : [ k $ = $.O.& * E *.= + 1 & + & = w % # 4 3 + * O.g.2 & M F & : ^ 1 $ = *.[ % = F *.= @ g = + & = 4 # $ 1 3 + = *.v.: & V ",
"* E E : $ k F = $ 2 : % = ^ ^ = = s.w.: : *.4.= $ J g.4 g r.*.= = F J : % g F = @ 3 1 % * ^ ^ = 2 r.w.2 : @.*.3 @ ^ g.4 g r.*.: ",
"+ : g = = ^ [ = % 1 & + % E O.m 3 O.*.= & : : % % J ^ & & S *.1 + : m = = V @.= & 1 % + % E O.g 2 O.*.* & : : % % V } % & V @.g ",
"g.w w v.s.k : ^ *.= O : = % 2 ^ } % o = = o : A.N.3 = *.N.1 = r.N.t t A.s.g : F O.= O 1 3 # 3 ^ ^ % o * = o : N.N.: = %.N.g = r.",
"g.: 2 r.c.M 1 ^ : $ o 3 g & + 4 J % . % % + t r.4.& & } *.V % ^ r.: 3 r.N.V : ^ 1 @ O 3 1 % @ w V % . % % + t r.*.& & @.*.g % } ",
"V r.@.g : r.^ % = w.v.4 % V V = & k *.& = N.4.= + # 3 + 4 Y V = 1 r.@.g : r.^ % 3 4.v.w % V J = & g *.& = A.4.3 @ # * + 4 Y C 3 ",
"g ^ @.M & @.J % g 4.1.4 3 V V : & M 1 % = 4.4.& @ 3 * o & m 3 % 2 ^ @.M & *.F % m 4.1.4 3 V V 4 & g : % & 4.4.% @ * 3 o & m 3 & ",
"@.: 1 V r.: + : V % % = J & + : = @ % ^ g.w 2 V V 3 + & * = : ^ @.: 1 V r.: $ : V % % = J & + w = + % ^ v.w 3 V J 3 + % = = 3 ^ ",
"r.: M *.k % O & m + + = ^ % o % = o % w.v.3 = } } % + # t & : *.*.1 M @.g % O % w + + = E % X % = o & r.v.= 3 [ } % + @ g & : *.",
"+ & g + % 1 3 + + = 4 % * w.1.2 & ^ O.& m r.[ : # w : % g E O.= + & g + % : = + + = 4 & = r.4.2 & ^ O.& m r.[ 2 % 4 : % g ^ *.2 ",
"o & = + % 1 : & % 4 m & 2 } E = & ^ g & & E *.3 # 1 4 & : r.F = o % & + % g 1 & % : w & : O.E 3 & O.w & = ^ :.3 @ g : & 1 r.V 2 ",
"} : + 3 ^ 2 o 1 2 # m 4.*.= & V g % : V F & 2 r.^ & 3 r.*.= # V @.: + = ^ : o : : + g 4.*.= & V g % = V F & 3 $.J & 3 w.*.= % F ",
"M & + 2 S +   % % + = J C w & w 1 @ = ^ @.= % M 1 % 3 ^ *.3 % F M & + : V +   % & + 3 J V : & g 1 % = } [ = & V 4 % 2 ^ O.= % F ",
"& 1 g & $ 1 V = = E E % o = : + & E 4.= O 1 1 % & : g % $ F r.2 % k M & $ 2 F = & E E % o = : + * ^ w.= + 1 : @ & : g & @ F [ : ",
"% = 1 & & V ^ = = O.w.* X # & o @ g } 2 X 3 1 # O & 3 % + : g 2 % 3 M = & M ^ = & *.w.& X # % o @ g ^ : X 3 1 % + & = & + 3 : = ",
"*.= = V V = m A.N.4 w O.V + = } ^ : V r.w.3 * F V @ o = 1 + & w.N.= & V ^ = k D.N.: 1 } J + & O.^ : V s.$.2 = V g # + g k @ = r.",
"1 $ = : 2 % g r.O.% = J 1 @ & m : * = *.$.= % F V & + : : + % E ^ & = g 2 % k $.O.% 3 V w # & g : = = @.@.& % F V % + : V % % k ",
"= *.[ = 3 [ O.4 % % % O + 2 % o O = = @ = V : = = $.N.V & = * o o : g + 3 [ *.w % % % o + 2 % O O = = @ * V : & & @.*.3 = V V 2 ",
": ^ ^ & & V ^ 3 @ % & . X & % O + = % @ # k % O 3 *.V : O % + o + * = O & ^ } 2 + % & X o & # O + = & + @ g & o = ^ 4 % # k E g ",
"*.% o = = # # m w # O % % + & E @.& % F V = = O.v.: = V 1 & & O.[ % & V g 3 + g w # O % % + = F [ & = F F = = } g.: % 4 = % 2 E ",
"F % X & 2 % & 2 e % X + % o + V [ 1 % F k & * O.E % : 4.V 2 % O.V + & ^ O.3 # 2 m # X + % o @ k ^ 1 % F g & = %.J % + g m & @ 4 ",
"= g } % 3 O.J % X $ + o & C } 2 o % & @ g $.[ = = J V = # 3 = % o @ & % 3 V V % X $ + o & V J 3 + % & @ g r.@.= = ^ 4.: % m V 3 ",
"= g : % * J m % X % & X # w m = X X % + k F k & @ g V & @ 2 % + + % % = 3 w 2 @ X % & X # w m 3 X X % o k V g & # J } 2 * m m w ",
"2 % % V O.* w } V = g 8.r.V & : 0 % * r.} 2 3 } 4.= X 2 V + @ = & % % g g % w O.S = g 8.r.M & : t @ & i.} 3 3 ^ 4.= + = V % + g ",
"& + & O.m % 2 } F $ 1 r.N.: % g * . # m w 3 & ^ } 3 O 3 3 O + & % @ = V % + : O.S % : s.N.: % g & X $ m t 3 & Y ^ * + = k @ o & ",
"& 1 1 # 3 1.w.3 : } O.& 2 *.D.k * 3 % X O = : % 2 *.[ = = 4.w.= + # # + = 1.g.3 : } } * 3 r.D.V * 3 % X o = : % 2 *.F = 3 $.w.1 ",
"% 3 & o % w 2 % 1 O.*.+ = r.@.& & 0 * o + : ^ % 2 O.E * = J ^ g @ + +   % w 3 % : } *.+ = *.@.= & 0 & + + 4 ^ % 2 O.F & = ^ E m ",
"O.V g V V % = ^ V % + 1 M $ $ V C & * 1.r.m = w.4.= : v.c.3 g 4.4.^ m J m % 3 } V % + 1 V % + V J & & %.8.m = 8.*.= : N.N.= : *.",
"^ = w w.} 3 2 V g + + 3 F @ # k 1.3 $ x 4.J * m J # & [ V & & m } : g 4.} * 3 C g + + 2 V + % b 4.* @ m 4.J & m V % * [ V & & g ",
"* V ^ = 2 F.s.3 % = : % 3 : & X @ & & + g w.*.3 t *.s.m $ g 3 % & V ^ = 2 F.c.2 % 2 2 % 3 4 & X + = & # g 4.*.3 g *.g.m @ m = * ",
"% g [ % % s.b.> @ = * + + = # + + $ % + & m g % 3 *.c.: + 3 m = @ g ^ & = r.c.2 + = & + + 3 % o + % @ + & m m $ 3 *.N.2 + 3 m 4 ",
"} = 3 @.k & F D.r.2 2 ^ 4.* * $.} & 3 m 3 + + & : + : N.1.& = 4.F & 2 @.V % F D.r.3 = [ *.= * $.^ = = m = @ O = = + : A.O.& = w.",
"E & : ^ g @ = $.@.% & V O.= + g & + % = 4 @ @ 6 3 + = *.g.: & b F & : ^ 1 $ = *.[ & & E *.= + g = + & = : % % : = # = *.v.3 & V ",
"3 J E 2 $ k F = % = 1 % = ^ } = 3 r.4.: : @.*.= @ S g.: V r.*.= & F ^ : % 1 F = % = 1 % * ^ ^ = 3 r.w.: 2 @.*.3 $ ^ g.: g r.O.: ",
"@ 2 w * = ^ [ = & 1 & + % ^ *.g : *.4.= & : : & % V %.% & F *.: + : g = = ^ ^ = % 1 & + % V *.g 2 *.*.= & : : % % V } % & V @.k ",
"e.4 w v.s.k 3 ! *.= + : : % : ^ } % X = & o : N.N.: = *.r.g & 4.N.t 4 N.r.k : F *.* + w 3 + 2 ^ } % o = & o : N.N.: = %.c.g * r.",
"g.4 2 s.s.B 2 [ : + o 3 : % + g V % . % % + t s.*.& & *.*.k % ^ r.: : r.N.V : @.w @ X = g & + g V % . % % + g r.*.& & *.*.g % } ",
"V *.*.g : r.^ % = *.g.g & V J * % k *.& = N.*.= @ # * + w ^ J = 1 r.@.g : r.^ % 3 4.g.m % V J * & g *.& 3 A.1.3 @ # * @ 4 Y C 3 ",
"g E @.g & *.^ & g 4.4.4 = V C 4 & k 1 % & r.4.& @ 3 * o = V : % 2 ^ @.M & *.F % g 4.*.4 = V m 4 & g : % & 4.4.% @ 3 * o & m 3 % ",
"@.2 1 V r.1 @ : V % % = V & + 4 * @ % } g.g : J C 4 @ % = = 2 @.@.: 1 V r.: $ : V % % = E & + w = + % ^ v.w 2 V V 3 + % = = : ^ ",
"r.1 k r.1 % O & g + + = F % o & & o % w.g.= = O.Y % + @ 1 & 2 *.*.1 M @.g % O % g + + = E % o % = o & r.v.= = [ } % + @ g & : *.",
"+ & V + & : = + + = 2 % = r.*.: % } O.* M s.[ 1 @ 6 4 % g J *.= + & g + % : = + + = : & = r.4.2 & ^ } * m r.[ 2 # 4 w % g ^ *.2 ",
"o & = + % g 1 % & 4 w & : ^ ^ = & O.w % = F @.3 @ 0 4 & 4 r.V = o % & + % g 1 & & : g & : } } = & O.w & = ^ *.3 # w 4 = t r.M 2 ",
"^ : + = F : O : 3 @ m 4.4.= * V k % : V F & 3 $.Y % 3 4.%.= % V @.: + = ^ : o : : + g *.*.= & V g % 2 V F & 2 $.E & 3 $.[ = % V ",
"k = + 2 V + . % % + 3 J C 4 & g : % = E [ = % M 0 % 4 ^ } : % V M & + : V +   % & + 3 J V : & g 1 # = ^ [ = % F 4 % 2 ^ O.3 % ^ ",
"= k V = % 1 V = & J J % o = 4 @ * E *.* + 1 1 % & : 1 % $ F O.= % g M & $ 1 F & & J J % o 3 : + & E w.3 + 1 : @ & : g & % ^ r.1 ",
"& 2 k = & V ^ = & 1.g.* X # % o # k ^ 2 o = 1 $ + & 3 & + 2 : & % = 1 = = k ^ = & *.r.* X # & o # g E 2 X 3 1 % + & = & + = 1 1 ",
"s.* = V F = m N.g.2 4 } m + & } E : V s.w.3 = V g @ + : k % = w.*.& = M V = k D.N.: 1 ^ C + & } ^ : V s.$.3 = V g + o 3 : + = r.",
"^ & = g 2 % g r.4.% 3 J : % * g 1 = = [ *.& % ' k & + g k % + m : $ & 2 1 % g $.*.& = V w # & g 2 = = @.$.= % ^ V & + : g + % ^ ",
"O : g + 3 } 4.4 % % % O + 2 % O O = = @ * V : & = [ *.= = V V * * *.} & 3 [ O.1 % % % o + 2 & O O = * + = V 1 & = 8.N.m & = % O ",
"+ * = + % } } : + % & . o & @ + + = & + + g % o 3 E : & # g ^ w = [ ^ % & V ^ 2 + % & X o & @ O + = & @ @ g % o = } m 2 O % + O ",
"^ % & V t 3 + g 4 @ o % % + & V [ % & F V = * O.r.= % w = % 2 ^ O.% O 3 = # # k w # o % % + = F ^ & % F M = * O.v.4 = J 4 & = *.",
"^ + * O.4.4 % : V % X + & + % J $.k = [ V = 2 4.} % % V V & % g V & X 3 2 % * w g % X + & + # F :.k = ^ V = 3 4.} % g w.^ : = r."
};
