/* XPM */
static char *a9a9420690e4406ff2c89099b5b5ffecCLO3p6gxR9GShrlP[] = {
/* columns rows colors chars-per-pixel */
"64 64 104 2 ",
"   c #2D2C2C",
".  c #312F2F",
"X  c #383736",
"o  c #393737",
"O  c #383636",
"+  c #393837",
"@  c #333231",
"#  c #2C2B2B",
"$  c #302F2E",
"%  c #2F2D2D",
"&  c #2D2B2B",
"*  c #363434",
"=  c #3B3939",
"-  c #393838",
";  c #373535",
":  c #343333",
">  c #343232",
",  c #353333",
"<  c #413F3F",
"1  c #3F3D3D",
"2  c #3C3B3A",
"3  c #3C3A3A",
"4  c #383737",
"5  c #3A3838",
"6  c #333131",
"7  c #383535",
"8  c #3A3737",
"9  c #3D3B3B",
"0  c #353434",
"q  c #2E2C2C",
"w  c #2D2C2B",
"e  c #373636",
"r  c #333232",
"t  c #2E2D2D",
"y  c #292828",
"u  c #302F2F",
"i  c #2C2A2A",
"p  c #302E2E",
"a  c #323030",
"s  c #2F2E2E",
"d  c #363535",
"f  c #2B2A2A",
"g  c #313030",
"h  c #3A3939",
"j  c #3E3C3C",
"k  c #403E3E",
"l  c #3C3B3B",
"z  c #3B3A3A",
"x  c #292727",
"c  c #282727",
"v  c #343332",
"b  c #2B2929",
"n  c #2A2929",
"m  c #3E3D3C",
"M  c #323131",
"N  c #2C2B2A",
"B  c #3D3A3A",
"V  c #3D3C3C",
"C  c #3B3838",
"Z  c #2A2828",
"A  c #242323",
"S  c #353433",
"D  c #403F3F",
"F  c #353232",
"G  c #3E3C3B",
"H  c #434141",
"J  c #3A3938",
"K  c #3F3E3E",
"L  c #3B393A",
"P  c #423F3F",
"I  c #424040",
"U  c #31302F",
"Y  c #373434",
"T  c #3E3D3D",
"R  c #3D3A3B",
"E  c #2F2E2D",
"W  c #333030",
"Q  c #393636",
"!  c #444242",
"~  c #3F3D3C",
"^  c #454343",
"/  c #403D3D",
"(  c #3C3939",
")  c #343131",
"_  c #363333",
"`  c #262525",
"'  c #302D2D",
"]  c #3B3A39",
"[  c #3E3B3B",
"{  c #302E2F",
"}  c #323130",
"|  c #322F2F",
" . c #3F3D3E",
".. c #373536",
"X. c #363433",
"o. c #282726",
"O. c #373635",
"+. c #3D3C3B",
"@. c #3F3C3C",
"#. c #333130",
"$. c #272626",
"%. c #2A2928",
"&. c #353332",
"*. c white",
/* pixels */
"    . X o O + @ # $ % & * = - ; : > > , < 1 ; . , 2 3 4 , o 5 * 6 7 8 : 4 9 = > # $ % & * = - ; : > > , < 1 ; . , = ; , 0 * , 6 ",
"q . w : - e r t y q u y i r > >   y p a 9 > a w & O 3 e : * 0 0 s 6 6 t r 5 * % y q u y i r > >   y p a 9 > a   i * = d a : f y ",
"g e e 4 h e 9 j 5 : 9 9 o * : 0 * > 6 k l e O 5 = g f g d g u 6 % s 0 3 k z = 9 5 : 9 9 o * : 0 * > 6 k l e O 5 = a x , * & w p ",
"q t * O   u * O ; s * ; 5 * r O a c   * e e v O O a b p > % x & % n : m O : * O ; s * ; 5 * r O a c   * e e v O O 6 n . a f x & ",
"M i N u a 5 j * o o ; . 6 o B o : s u f # a a a > 8 = d d V = 6 @ > > M > C j * o o ; . 6 o B o : s u f # a a a > 5 9 O > 3 = , ",
"g f Z A g e > . 5 = O # > = , a 6 > g # b . * a , O ; , a O 5 o r M % y a ; > . 5 = O # > = , a 6 > g # b . * a , O ; S . e = j ",
"k D = * ; , r 5 O u f a * p # F * * 0 = 9 l e 9 9 * 0 1 G , h 1 9 9 - * d : r 5 O u f a * p # F * * 0 = 9 l e 9 9 * 0 1 G 0 V H ",
"9 z 5 B = J 0 O > f q 6 = M b a 5 e g e K K . 6 , s ; l , M , e 3 5 - 9 L J 0 O > f q 6 = M b a 5 e g e K K . 6 , s ; 9 , a 0 ; ",
"M ; O g 0 P 3 . s 6 > r 1 h g n M v & q j 1 5 v , J I 9 q > p   g O O g S P 3 . s 6 > r 1 h g n M v & q j 1 5 v , J I 9 q > s t ",
"U > o p & 7 = 6   s u &   M q # $   i % > > > t a o k e b g X 0 s : o p & 7 = 6   s u &   M q # $   i % > > > t a o k e b a O ; ",
"o p . Y F 6 9 < 3 a a 7 o . p 7 Y d T 5 : # f > * g e k - > 0 9 o p . Y F 6 9 < 3 a a 7 o . p 7 Y d T 5 : # f > * g e k - > * R ",
"F . , O > % % * ; % t > o , # % i t 0 % , p E * M u : 5 j * s W > . , O > % % * ; % t > o , # % i t 0 % , p E * M u : 5 j * s a ",
": z z 9 . . > . g . 6 q , 5 5 5 e 5 Q 0 - 5 = d q * < l 3 9 ; p r 3 = 9 . . > . g . 6 q , 5 5 5 e 5 Q 0 - 5 = d q * < l 3 V * . ",
"t r * - * ; F u d 6 t t u - j < * Y o r r a a q M 3 = a g * Y a   > * - * ; F u d 6 t t u - j < * Y o r r a a q M 3 = a g * * 6 ",
"D 5 h k 3 ; M , z > n , r g O o o % n @ p # ; 1 ! 9 r h 9 ; d < D 5 h k 3 ; M , z > n , r g O o o % n @ p # ; 1 ! 9 r h 9 ; d < ",
"K 4 r o = o e o @   y r * . t 6 ; 6 y % . : e 9 ~ > M h 3 5 . o K 4 r o = o e o @   y r * . t 6 ; 6 y % . : e 9 ~ > M h 3 5 . 5 ",
"= = * , = ^ 9 r 6 3 / 4 r ; o r u ; o s , 1 5 6 % % > g l 3 O * o ( * , = ^ 9 r 6 3 / 4 r ; o r u ; o s , 1 5 6 % % > g l 3 O * ",
"; o = o M 9 o 6 ; = 9 4 0 ; ; ; p 6 > & u 9 = . r d s n , O . t * 5 C o M 9 o 6 ; = 9 4 0 ; ; ; p 6 > & u 9 = . r d s n , O . t ",
"7 4 o , O a % a , s % s * 6 u > % q 0 9 H k , : ; - & % , d . ) ; 4 o , O a % a , s % s * 6 u > % q 0 9 H k , : ; - & % , d . > ",
"Y * j O p   f i a b b q * u x & % x r < H h , = o S q t ; r > o * * j O p   f i a b b q * u x & % x r < H h , = o S q t ; r > o ",
"& g 5 u & > : 6 t g > r 4 1 = 6 r o 5 , O 3 ; a u * r 0 l O ; u # g 5 u & > : 6 t g > r 4 1 = 6 r o 5 , O 3 ; a u * r 0 l O ; a ",
"  g 6 E . > a r M e o , > O o * : 5 , U p F 5 6 s v d O O O > .   g 6 E . > a r M e o , > O o * : 5 , U p F 5 6 s v d O O O > 6 ",
"5 ; . a 5 : n r a M V j 3 > 6 ; e : 0 ; _ . o k ; u O 1 3 % t ; 5 ; . a 5 : n r a M V j 3 > 6 ; e : 0 ; _ . o k ; u O 1 3 % % O ",
"* g   . , # ` t i   e O h 5 : e 6 t d 5 * a q a . . M * 5 > p * * g   . , # ` t i   e O h 5 : e 6 t d 5 * a q a . . M * 5 > p * ",
"* ; d 6 % a ; M S 5 - M f . r s M ; = d f 6 > p g , > g a o 5 6 , O ; 6 % a ; M S 5 - M f . r s M ; = d f 6 > p g , > g a o 8 r ",
"t q ' g a , ; a > 5 3 > ` Z q n & d 3 ] y p > % n p , d & % 6 >   & . a g , ; a > 5 3 > ` Z q n & d 3 ] y p > % n p , *   p . a ",
"3 : e O 5 5 9 j j O d 3 o n a = ; 4 9 = 3 . a * > s   0 M b * 1 I 6 a O = h 9 j j O d 3 o n a = ; 4 9 = 3 . a * > s q * :   6 = ",
"a p 6 p . g 3 [ o u : z O u { > } : a ) o . q * , M g S : # s 5 3 6 p | p . l 9 o u : z O u { > } : a ) o . q * , M u , ; .   a ",
"* o ; a 0 = j z g & & t g * p   # p M s r O , - , j H  .: q q n f r 6 f a = j = g & & t g * p   # p M s r O , - , = j ; , * ; O ",
"* * ; u M ; = 4 t q p n # . t t % s % t p ; & # ..5 > ; i i &   . 6 . n . 5 V o t q p n # . t t % s % t p ; & # ; O a a p * 3 K ",
"- % b > a a M e > w n % u t 6 o Q M p > > q 6 3 ! l : ; ; ; > Q 5 p s ; * e u d > w n % u t 6 o Q M p > > q 6 3 H J s * > M e + ",
"; M n g : d : * o . c f a i Z a , O t | 6 % . O X.s > 5 X o M O d x . z 3 e r , o . c f a i Z a , O t | 6 % . Q , % q * * a t r ",
"a * O . 0 = o a b p   n : h e > r > a 6 j 9 F & . 4 * 6 r * > g b # p * ; 0 O g b p   n : h e > r > a 6 j 9 F & . 5 = ; r ; O : ",
". 6 6 % > h * s y q . Z i r > ,   y p M V > a q # ; ] d M : i o.  g   : 5 O > t y q . Z i r > ,   y p M V > W q   4 3 e , d * e ",
"p % 0 3 K z = 9 5 : 9 9 Q * : 0 * > 6 1 3 e O 5 = a x , * &   % . e e 4 h e 9 j 5 : 9 9 Q * : 0 * > 6 1 3 e O 5 h g f . * g $ > ",
"% n : m O : * O ; s * ; 5 * r O a c   * e e v O O 6 n . a f x & q % * O   u * O ; s * ; 5 * r O a c   * e e v O O a b p > % x & ",
": r > M > C j * o o ; . 6 o B o : s u f # a a a > 5 9 O > = = r @ f # u a 5 j * o o ; . 6 o B o : s u f # a a a > 8 = d d V = > ",
"> M % y a ; > . 5 = O # > = , a 6 > g # b . * a , O ; S . O.= 3 M b Z A g e > . 5 = O # > = , a 6 > g # b . * a , O ; , a O 5 = ",
"+.9 o * d : r 5 O u f a * p # F * * 0 = 9 l e 9 9 * 0 1 G 0 V H k D = * ; , r 5 O u f a * p # F * * 0 = 9 l e 9 9 * 0 1 G , h 1 ",
"3 5 - 9 L J 0 O > f q 6 = M b a 5 e g e K K . 6 , s ; 9 , a 0 O 9 z 5 B = J 0 O > f q 6 = M b a 5 e g e K K . 6 , s ; l , a 0 ; ",
"M e O g S P 3 . s 6 > r 1 h g n M v & q j 1 5 v , J I 9 q > p & g e O g 0 P 3 . s 6 > r 1 h g n M v & q j 1 5 v , J I 9 q > p t ",
"U > o p & 7 = 6   s u &   M q # $   i % > > > t a o k e b g 4 0 s : o p & 7 = 6   s u &   M q # $   i % > > > t a o k e b a O ; ",
"o p . Y F 6 9 < 3 a a 7 o . p 7 Y d T 5 : # f > * g e k - > 0 9 o p . Y F 6 9 < 3 a a 7 o . p 7 Y d T 5 : # f > * g e k - > * R ",
"F . , O > % % * ; % t > o , # % i t 0 % , p E * M u : 5 j * s W > . , O > % % * ; % t > o , # % i t 0 % , p E * M u : 5 j * s a ",
": z z 9 . . > . g . 6 q , 5 5 5 e 5 Q 0 - 5 = d q * < l 3 9 ; p r 3 = 9 . . > . g . 6 q , 5 5 5 e 5 Q 0 - 5 = d q * < l 3 V * . ",
"t r * - * ; F u d 6 t t u - j < * Y o r r a a q M 3 = a g * Y a   > * - * ; F u d 6 t t u - j < * Y o r r a a q M 3 = a g * * 6 ",
"D 5 h k 3 ; M , z > n , r g O o o % n @ p # ; 1 ! 9 r h 9 ; d < D 5 h k 3 ; M , z > n , r g O o o % n @ p # ; 1 ! 9 r h 9 ; d < ",
"K 4 r o = o e o @   y r * . t 6 ; 6 y % . : e 9 ~ > M h 3 5 . o K 4 r o = o e o @   y r * . t 6 ; 6 y % . : e 9 ~ > M h 3 5 . 5 ",
"= = * , = ^ 9 r 6 3 / 4 r ; o r u ; o s , 1 5 6 % % > g l 3 O * o ( * , = ^ 9 r 6 3 / 4 r ; o r u ; o s , 1 5 6 % % > g l 3 O * ",
"; o = o M 9 o 6 ; = 9 4 0 ; ; ; p 6 > & u 9 = . r d s n , O . t * 5 C o M 9 o 6 ; = 9 4 0 ; ; ; p 6 > & u 9 = . r d s n , O . t ",
"7 4 o , O a % a , s % s * 6 u > % q 0 9 H k , : ; - & % , d . ) ; 4 o , O a % a , s % s * 6 u > % q 0 9 H k , : ; - & % , d . > ",
"Y * j O p   f i a b b q * u x & % x r < H h , = o S q t ; r > o * * j O p   f i a b b q * u x & % x r < H h , = o S q t ; r > o ",
"& g 5 u & > : 6 t g > r 4 1 = 6 r o 5 , O 3 ; a u * r 0 l O ; u # g 5 u & > : 6 t g > r 4 1 = 6 r o 5 , O 3 ; a u * r 0 l O ; a ",
"  g 6 E . > a r M e o , > O o * : 5 , U p F 5 6 s v d O O O > .   g 6 E . > a r M e o , > O o * : 5 , U p F 5 6 s v d O O O > 6 ",
"5 ; . a 5 : n r a M V j 3 > 6 ; e : 0 ; _ . o k ; u O 1 3 % t ; 5 ; . a 5 : n r a M V j 3 > 6 ; e : 0 ; _ . o k ; u O 1 3 % % O ",
"* g   . , # ` t i   e O h 5 : e 6 t d 5 * a q a . . M * 5 > s * * g   . , # ` t i   e O h 5 : e 6 t d 5 * a q a . . M * 5 > p * ",
"d O.; 6 % a ; M S 5 - M f . r s M ; = d f 6 > p g , > g a o 5 M : e d 6 % a ; M S 5 - M f . r s M ; = d f 6 > p g , > g a o 5 > ",
"& & . a g , ; a > 5 3 > ` Z q n & d 3 ] y p > % n p , *   p . . t q ' g a , ; a > 5 3 > ` Z q n & d 3 ] y p > % n p , d & % 6 , ",
"I r g O = h 9 j j O d 3 o n a = ; 4 9 = 3 . a * > s q * : q 6 = 3 : e O 5 5 9 j j O d 3 o n a = ; 4 9 = 3 . a * > s   0 M b * @.",
"3 6 p | p . l 9 o u : z O u { > } : a ) o . q * , M u , ; .   #.a p 6 p . g 3 [ o u : z O u { > } : a ) o . q * , M g S : # s 5 ",
"# 6 6 f a = j = g & & t g * p   # p M s r O , - , = j ; , * ; ; S o ; a 0 = j z g & & t g * p   # p M s r O , - , j H  .: q q b ",
"g 6 . n . 5 V o t q p n # . t t % s % t p ; & # ; O a a s * 3 1 0 * ; u M ; = 4 t q p n # . t t % s % t p ; & # ; 5 > ; i i &   ",
"5 p s ; * e u d >   n s u t 6 o Q M p > > % 6 3 H 5 s * > M e o - s f > M M M e >   n s u t 6 o Q M p > > % 6 3 ! 2 : ; ; ; : O ",
"; x . 3 3 4 : v o p $.Z U # b 6 , O % a 6 q . o v s t * ; a t M 0 g %.g 6 0 , S o p $.Z U # b 6 , O % a 6 q . o &.s v 5 O 4 a O "
};
