/* XPM */
static char *ed9e3ac588b643c1cb7085ad5ee5aac8U1ZsFew9pQZtCa7Q[] = {
/* columns rows colors chars-per-pixel */
"64 64 149 2 ",
"   c #45221F",
".  c #4A221F",
"X  c #52231F",
"o  c #462320",
"O  c #4C2522",
"+  c #4C2925",
"@  c #462A28",
"#  c #4F2B28",
"$  c #542622",
"%  c #592722",
"&  c #542925",
"*  c #5B2A26",
"=  c #552D29",
"-  c #5C2D29",
";  c #56302D",
":  c #5D312D",
">  c #573532",
",  c #5D3431",
"<  c #5F3835",
"1  c #652D27",
"2  c #652C27",
"3  c #632B26",
"4  c #692D27",
"5  c #6A2D26",
"6  c #612D28",
"7  c #622C28",
"8  c #622D28",
"9  c #632D28",
"0  c #622D29",
"q  c #632D29",
"w  c #602E29",
"e  c #612E29",
"r  c #622E29",
"t  c #602E2A",
"y  c #612E2A",
"u  c #602F2A",
"i  c #612F2A",
"p  c #602F2B",
"a  c #612F2B",
"s  c #622E2A",
"d  c #632E2A",
"f  c #632F2A",
"g  c #622F2B",
"h  c #652D29",
"j  c #662D28",
"k  c #642E28",
"l  c #642E29",
"z  c #652E29",
"x  c #662E28",
"c  c #662F29",
"v  c #672F29",
"b  c #642F2B",
"n  c #652F2B",
"m  c #672F2A",
"M  c #632E29",
"N  c #692E28",
"B  c #682E29",
"V  c #692E29",
"C  c #682F29",
"Z  c #6A2F29",
"A  c #682F2A",
"S  c #692F2A",
"D  c #6F2E28",
"F  c #6A2F29",
"G  c #702F28",
"H  c #702F28",
"J  c #64302B",
"K  c #67302B",
"L  c #63302C",
"P  c #62312C",
"I  c #63312C",
"U  c #61322E",
"Y  c #61332F",
"T  c #63322E",
"R  c #65302C",
"E  c #65312D",
"W  c #66302C",
"Q  c #67322D",
"!  c #66332D",
"~  c #65332E",
"^  c #65332F",
"/  c #63312D",
"(  c #68302B",
")  c #69302B",
"_  c #6B302A",
"`  c #6B312B",
"'  c #6F302A",
"]  c #6E322B",
"[  c #6F322B",
"{  c #6A312C",
"}  c #6B312C",
"|  c #6A312D",
" . c #68322D",
".. c #6B322D",
"X. c #68322E",
"o. c #69322E",
"O. c #69332E",
"+. c #6B332F",
"@. c #6C312C",
"#. c #6C322C",
"$. c #6C322D",
"%. c #6C332D",
"&. c #6E322C",
"*. c #6F322C",
"=. c #6F322D",
"-. c #6F332E",
";. c #6A342F",
":. c #6C342F",
">. c #6C352F",
",. c #6E342F",
"<. c #6F342F",
"1. c #6B322C",
"2. c #71322B",
"3. c #71332D",
"4. c #70332E",
"5. c #71332E",
"6. c #70342E",
"7. c #71342E",
"8. c #73342F",
"9. c #76342D",
"0. c #71332D",
"q. c #633430",
"w. c #643530",
"e. c #653530",
"r. c #673430",
"t. c #653631",
"y. c #653532",
"u. c #653632",
"i. c #643733",
"p. c #643631",
"a. c #6A3732",
"s. c #6C3530",
"d. c #6D3530",
"f. c #6D3631",
"g. c #6C3632",
"h. c #6F3732",
"j. c #6D3530",
"k. c #663834",
"l. c #6B3935",
"z. c #6B3A35",
"x. c #6E3934",
"c. c #723530",
"v. c #703631",
"b. c #723630",
"n. c #753731",
"m. c #723631",
"M. c #723A35",
"N. c #743934",
"B. c #7A3A33",
/* pixels */
"$ $ 3 - L Z ~ = + * & O : u.m - = = - - z.N.D 3 7 +.0.n - m ( g - S 2.g m 7.+.* + & & $ : u.K - = = - - l.n.G 3 7 S m - - g g - ",
"& & O - : L * & o $ *   $ - g - O o $ + u.m 3 % $ g r.- - m m - & g - & * ~ g & O $ &   $ - 3 = + o & + u.j 3 $ $ g r.- = - $ O ",
"* > : L ~ = u.>.( - q.>.D m - g m = * j.( L : ( 0.= $ * Z & & g % & - ( j., q.d.~ - u.7.D m - g K = * j.d.- - Z +.* o 7 m O $ % ",
"$ & - g $ # g Z m & P D ' g = g * o & m g : - n Z * $ % 1 &   % * O & >.~ = - Z Z & - G ' : = m = o $ m g , - Z Z * O * * $ . % ",
"= $ $ & * ( 0.g : ~ Z & * >.9.~ - & & O $ * 3 = * 0.~ - : j.( * = m m = * ( 0.- , ~ m & * >.9.K - * & o $ = 3 = * +.j.: - +.2.3 ",
"= O .   & L - & , u.Z . - ( 5 * - = % O O * Z = - D m - * Z ~ L - * & o = g 3 = : u.Z O * ' 1 * - * & $ . 3 Z & g _ Z = * m ~ a.",
"j.l.~ 1 g = - ( ( = O 3 1 & $ 1 Z - - +.0.~ - 0.j.- g m.c.- q.a.a.u.~ 3 g = = S K & $ * P & $ 1 m - - ( 0.u.- 0.7.- : m.7.- u.M.",
"+.q.L j.~ : : K 3 $ # * ;.= X 3 +.- = ~ j.y.* 3 j & - a.m * - g ( : ~ +.~ , g S g $ O * ;.= X 3 +.: = g j.l.* 3 m & - >.m - - g ",
"- _ _ * : B.7.* $ = * = i.L = o # & $ $ q.x.( * g _ m.u.$ 3 * % = Z S = * B.7.* $ - g = i.: * O # & $ & u.j.( * g _ m.u.& 3 % % ",
"& * _ * X H 9.* $ % * + + * & $ & & $ & * m g $ * ' N.: . * g : & j S % * H 9.* $ & & $ O * $ # = $ $ & - m L $ * ' m.L . * : L ",
"( * * F 1 * ;.n.c.* * Z D * * D 5 : < K - $ O > : = L v.+.> - >.( % * D 1 & ;.n.2.* * ' _ & * D m : < / - $ O : : = : N.+.> : j.",
"Z & - _ 3 & * 5 Z % * 5 ~ - $ % $ & = * g & $ L & & - ' n.- * 3 m = g S 3 & & D D & * 1 m - $ 3 % O - % g & & P * & - ( 9.- * 3 ",
"- r.( i.& 3 1 * = * 3 & - >._ : : 2.D : / _ 2.- $ 1 v.q.u.7.Z * - ( r.q.= 3 1 * & * 3 & - >.Z : : 2.' : : +.>.- $ m m.q.r.0.Z * ",
"$ - 7 > : m 5 * - * % $ & ( >.l.: D ' * ; 3 * & = ;._ = * m Z * $ - 3 > - m 5 * : 3 % $ & _ >.k.- D ' * - * 3 $ = ~ ( * = m Z 3 ",
"N.q.L N.0.~ 7 4 d.= O g * = : ( _ & + - * + P n.N.q.- +.>.P : m.M.q.L m.7.~ * Z >.- . g - & L K ' & O - & # : n.N.q.- +.7.~ - M.",
"m.L * 0.0.~ L S 7 & O * g * & 7 K & @ & & ; P 7.x.& * +.>.;.& _ m.q.- 2.0.~ L ( * & O - g & & g K = @ & * = g 9.>.= * +.>.( = ( ",
"r.+.5 3 : M.a.= * m.7.K & m ~ * * P ' & - n.+.* & & - = < L 1 : : ' 5 3 q.M.j.= * j.9.P & g K - & P ' & - N.0.* & & * = , r.g - ",
"P ( >./ - >.~ - P ' +.P - m K L * 3 3 & * >.0.* = : $ o = L * & : >.>.P - >.( - K 2.+.P - m K L * 3 3 $ * j.+.% = : & o - g * & ",
"D : / 1 D 3 $ * 1 * $ * Z - & * * $ - >.N.y.* 3 P : O $ - : * 5 H / P v ' * $ * m & $ % _ - & * & & - >.N.i.- 1 g , + & - : * 5 ",
"D g k.H 3 & O % 3 O $ % Z &   $ & . & v.M.: : ( K = + $ P - - ' D : u.D 3 $ O $ 3 $ $ * 5 & . & * . * j.N.: - ( S = + $ g - - D ",
"O * / # X 3 : = # * 3 * , m.+.* * +.a.: ~ 7._ * $ P * = q._ _ * O * ;.# & 3 - = O * 3 * : v.( - - _ a.: ~ 7._ * & - - = ;.Z Z - ",
"+ = - # & 3 * = - L P - - Z S - - ( : = % Z +.- $ * P ; / ' 1 * + & - + & 1 3 = - : P : - D ( L - _ L = % 1 >.- $ g - : : 2.5 * ",
"+.g & * ( - O 3 * = y.j.+.3 = m g = - m m * / x.K & : x.>.& & F ' : & * ( - O 3 * & u.>.+.- * m - - - ~ Z * L v.g & : v.( * & _ ",
"m * & * Z $   & $ $ : Z ~ L - g 7 & : >.5 * & 3 * * * F ' * & F m * # * 1 $   & & & : Z ~ L = g - & : ( Z = & 3 * * * Z ' * & Z ",
"= K K * & * K * & ~ ;.& . * 7 & * m ( - . 1 3 & * 3 3 & & >.%.g = K 1 * & * K * & ~ a.& O * - & * v  .: . 3 * & * * 3 * = _ %.3 ",
"& % 3 & * K _ * & _ >.= . X $ O $ - r., . * - & O * : : $ * 3 * X * 3 * * K _ * & K +.* . X $ O $ * ;.: O * 3 & O * - - O * * * ",
"%.- : K ( q.u.m.9.P P ( ~ O * ( Z : a.0.%.* * K 3 & + * 3 O - m.N.- * K >.: k.7.9.L : K K O * _ K P e.9.7.* * K 1 & # g 1 & - %.",
"* & - * * & u.m.Z * - ~ g & * 3 * - * 5 ' * & K k ; & : * $ & _ ( * * 3 * & i.b._ * * ;.L & * 3 * - * 5 ' * & _ 1 = & - K & $ 3 ",
": ' _ * : ' m.q.& $ $ & = - % + O * * & * ~ g : : >.N.k.- % $ . O - g $ * >.v./ & & $ O & : * + + * * $ - K - , - +.>.: - K 1 : ",
"g 5 _ & & K ( : & & $ O + = $ # & * & $ & m $ O : %.1 P O $ O + = * * O *  .x.: & & * O + : X O & & & $ $ m $ O L _ * * & g ( u.",
"_ & # - - = = g 3 $ O & = $ - m K & * 5 1 * * >.v./ : K g - * _ _ * & ( g : & P * & . & & & - !  .& * 1 1 * - j.l.L & g - & L >.",
"K & + * - : - - L = . O & + O 3 5 P & 2 3 & * >.1 & * >.K : - _ m . * _ +.: = - / * . O & + . 3 F k * 2 3 & - ( 1 & & g m * & * ",
"* g Z & g +.m & + & $ O ; q.K & = = * = u.>.5 % * m m * = : * * O $ * = - j g & O & O O ; q.m * # = & = y.j.5 % * ( +.g * g K - ",
"* 3 g * - ( g & . & & o $ - 3 - + o & + u.5 3 % O g ~ : & - % . $ & $ - : ~ * & O $ * o $ - - - + o & # u.5 1 % $ ~ ( g - m m P ",
"* $ - ( j.> q.a.~ - / >.' g : g g = * j.+.L - +.+.* O - Z $ & * & : : g , ; y.j.~ - u.>.' 1 - g P - * j.r.g - Z +.* O * m * & * ",
"& O = d.m = g Z v & P H 2.- & P * o $ m g : = Z D * O * * O . & & & ; g $ & g _ 1 & g G ' : = K *   $ m g , - Z Z * O * 1 & . & ",
"- g 3 = - ( 0.g : ~ 1 & - +.9.;.: & & o $ * * = - +.>.: - +.2.* = X X # * Z +.- , / K & * >.9.K : & & o $ = 3 = - ' >.: : >._ 3 ",
"- * & o = L * & , u.Z O - ( 5 * - * & $ O * Z * g _ Z - * 1 ( u.= $ .   = g * * / u.K O * ( 5 * - * & $ . 3 Z & - _ m = * m ~ u.",
"a.q.;.3 g = - ( m * $ 3 3 & $ 3 g - - +.c.u.- 0.m.- - m.7.: k.v.j.l.~ m n = - ( K & O * K & $ 1 m = : ( 0.u.- 0.7.- - m.7.- L j.",
"( : ;.a.( , - m 3 O # * ~ = $ 3 +.- = m x.y.* 3 j & - a.1 * : g d., u.j.( , - ( K O $ * ;.= X 3 ' : = g m.k.* 3 m & - >.m - - g ",
"- m Z = g B.7.* + * g = < : * O & = $ & q.j.+.* g ' x.u.$ 3 % % * n S = P B.2.* $ - g = q.L = O # & $ $ u.m.+.* g _ v.u.& 3 $ * ",
"& 3 Z * $ G 0.3 $ % % & + * $ O & $ $ & - g g $ - ( 7.L . * P : $ 7 S * & ' 9.* $ & & $ + * $ # & $ $ # * 3 g $ * ' v.L $ % L L ",
"( & * Z 3 * a.n.0.* * Z D * & D Z : < L - $ O > - = L N.+.> : >.~ * * Z 3 & u.9.2.* * _ D & % D _ : < ;.- $ O > : = : N.+.> : >.",
"m * g Z 3 $ & D 5 * * m ( - $ 3 $ $ = * 3 & & g * = - ( 9.: & 3 3 * g Z 3 $ * D D & * 5 ~ - $ 3 X # - % g & $ P * & - ( 9.- & 3 ",
"- >.>.< & 3 1 * = * * & - +.( : : 2.' - L ( >.P $ 1 v.q.;.7.' * = +.( i.= 3 3 * & * 3 & - +._ : : ' ' - : ( >.: $ g m.u.a.m.Z * ",
"$ - - : : K 5 * - g % $ & ( j.k.g Z ' - - * * & = u._ = = Z F * $ 7 3 > - m 5 * : 3 $ $ & _ j.k.g D ' * - * 3 & & ;._ & & Z Z 3 ",
"M.L ;.v.7.P * 5 ( - O g g & : ( _ & O - * + P 9.B.q.- >.7.P : v.m.q.~ n.7.~ - Z >.- O g - & : ( ' & + - * + : N.N.q.- +.7.L - m.",
"m.: * 2.2.>.: _ 3 $ O - g * $ 3 Z = @ & & ; L 7.j.& * ( >.;.= _ m.: - 2.0.~ P _ * $ O - g * & 3 K & @ & * = P 9.>.= * +.j.;.= ( ",
"u.+.D 3 / M.a.= - j.9.L - m m - * P ' & - N.+.* & & - # < ~ K * K >.5 3 q.M.a.- * >.n.L & m K - & P ' & - n.+.* & & - = < r.g - ",
"K ~ >.L * ( ~ - m 2.+.K - m m - & 3 3 $ * 7.' * = : & o * P * $ : ~ >.~ - ( K - K 2.+.g - m g L * 3 3 & * j.0.* = - % o = g * & ",
"H : L v H 3 & * m & $ % m - & - * $ = >.M.q.- 3 g : + $ - : * 5 D P P 1 ' * $ * m & $ % Z = & - & & - >.N.k.* 3 g , + $ - - 3 5 ",
"H k k._ 3 $ O $ 3 O $ % 5 & . $ & O * j.N.: : >.S = + $ P - * +.D : k.D 3 $ O $ 3 $ $ % Z * . % * . * >.v.: : >.n = + $ P - - D ",
"O & ~ = $ * - = $ * 3 = : v.( - - _ a.: K 7. .* $ - g = u.m _ * O * L # & 3 - = & * * - q.j.( - - _ a.: ~ 0._ * $ - - = / ~ _ - ",
"+ * - # & 1 3 = = g ~ - - _ ( : - +.L = * F %.* + 7 - = L G 1 * + * * # & 1 3 = & P ~ - * Z ( : - _ q.= % 1 +.- $ 3 : : L ' 5 * ",
">.: & * >.- O 3 * & u.j.+.- * K : = * v v & / x.n & L m.( % & _ ' : & - ( - O * * = u.>.+.7 * m - - - n Z = L v.L & : v._ * & _ ",
"m * O * 1 $   & $ & : Z ~ L - P 3 & : >.F * $ 3 * * - Z +.- & 5 m - O * m $   * $ $ : Z ~ : - g * & , ( Z * & 3 3 & * _ _ * & Z ",
": K K * $ * Z * & ( r.& o * g & * 1 ( - O 3 3 & * 3 3 & & _ +.* = P K * & * K * & ~ r.& o * - & * 3  .: X 3 3 & * - 3 & = _ %.3 ",
"% X 3 * * m Z = & _ >.- . X % o $ P >.: O * : $ O * : : $ * 3 & $ * * * * v _ * & _ 0.- . X $ O $ k ;.: + * * & O * - : $ * 3 P ",
"v.* * m ( q.u.n.n.L P ( _ . * +._ : ;.2.>.* * K 3 & + - 3 & - +.' - : K ;., k.b.9.: P ( ~ O * ' K : ;.%.%.* * K 3 & + - 3 O : >.",
">.* * 3 * = i.m.D & - ~ L & * 3 * = * 5 ' * & 5 g = & g K & $ 3 * & - * * & t.b.' & - K g & * 3 * : * 5 H * & F 1 = = - 3 $ & _ ",
"O * 3 $ 3 +.d.q.& $ $ # = - * # + * * & - ~ 3 > - >.>.P - m m : - ' _ * - %.v./ & % $ # & : & + O * * $ - K - , : m.N.k.: * X . ",
"= - * + = +.d.g & $ * O + = $ + & * & $ & m $ # : _ * * & g ( y.: Z Z & * K >.: & & * o + - X # & * & O & m $ O : _ 1 g + X $ O ",
"' * * ~ g - = m * $ o & & & = m m & * 5 3 % - ( M.: & g * - : ( ( & # - * & = P * $ O & & & * !  .* * v 2 % - ( x.: - K - : = _ ",
"Z . * +.c.- = = n * . $ & $ X 3 D P % 5 3 % 3 +.3 $ & m m * & 3 m * + - * : : * ~ & . X & + X 3 H  .X 5 2 * - 0.1 & 3 +._ P * ' "
};
