/* XPM */
static char *_328_6bbf2a010627d16be413c9daa5978b38d89e1514047e610e9ca21d4df5bf0440_1[] = {
/* columns rows colors chars-per-pixel */
"128 128 16 1 ",
"  c #3A4041",
". c #6D1823",
"X c #190F20",
"o c #EFECEC",
"O c #C9B8BD",
"+ c #5B5168",
"@ c #0C3F0F",
"# c #63AD45",
"$ c #CEB7B9",
"% c #0F5314",
"& c #116116",
"* c #7EC262",
"= c #85BF13",
"- c #67940F",
"; c #FEFEFE",
": c #AF9DBB",
/* pixels */
"                                                                                                                                ",
"                                                                                                                                ",
"                                                                                                                                ",
"                                                                                                                                ",
"                                                                                                                                ",
"                                                                                                                                ",
"                                                                                                                                ",
"                                                                                                                                ",
"                                                                                                                                ",
"                                                                                                                                ",
"                                                                                                                                ",
"                                                                                                                                ",
"                                                                                                                                ",
"                                                                                                                                ",
"                                                                                                                                ",
"                                                                                                                                ",
"                                                                                                                                ",
"                                                                                                                                ",
"                                                                                                                                ",
"                                                                                                                                ",
"                                                      ++++++++++++++                                                            ",
"                                                      O;;;;;;;;;;;;+                                                            ",
"                                                    +Oo;;;;;;;;;;;;oO                                                           ",
"                                                    +;;;;;;;;;;;;;;;o                                                           ",
"                                                   o;;;;;;;;;;;;;;;;;;:                                                         ",
"                                                 +:o;;;;;;;;;;;;;;;;;;O:                                                        ",
"                                                 :;;;;;;;;;;;;;;;;;;;;;;                                                        ",
"                                                oo;;;;;;;;;;;;;;;;;;;;;;                                                        ",
"                                                ;;;;;;;;;;;;;;;;;;;;;;;;                                                        ",
"                                                ;;;;;;;;;;;;;;;;;;;;;;;;                                                        ",
"                                                ;;;;;;;;;;;;;;;;;;;;o:o;                                                        ",
"                                                ;;;;;;;;;;;;;;;;;;;;o O;                                                        ",
"                                                ;;;;;;;;;;;;;;;;;;;;o O;                                                        ",
"                                                ;;;;;;;;;;;;;;;;;;;;o:o;                                                        ",
"                                                ;;;;;;;;;;;;;;;;;;;;;;;;                                                        ",
"                                                ;;;;;;;;;;;;;;;;;;;;;;;;                                                        ",
"                                              ++;;;;;;;;;;;;;;;;;;;;;;;;                                                        ",
"                                              O;;;;;;;;;;;;;;;;;;;;;;;;;                                                        ",
"                                              O;;;;;;;;;;;;;;;;;;;;;;;;;                                                        ",
"                                              O;;;;;;;;;;;;;;;;;;;;;;;;;                                                        ",
"                                              O;;;;;;;;;;;;;;;;;;;;;;;;;;O                                                      ",
"                                              O;;;;;;;;;;;;;;;;;;;;;;;;;;O                                                      ",
"                                              O;;;;;;;;;;;;;;;;;;;;;;;;;;O                                                      ",
"                                              O;;;;;;;;;;;;;;;;;;;;;;;;;;O                                                      ",
"                                            ++o;;;;;;;;;;;;;;;;;;;;;;;;;;o++                                                    ",
"                                            +;;;;;;;;;;;;;;;;;;;;;;;;;;;;;;+                                                    ",
"                                            +;;;;;;;;;;;;;;;;;;;;;;;;;;;;;;+                                                    ",
"                                            +;;;;;;;;;;;;;;;;;;;;;;;;;;;;;;+                                                    ",
"                                            +;;;;;;;;;;;;;;;;;;;;;;;;;;;;;;;o                                                   ",
"                                           :O;;;;;;;;;;;;;;;;;;;;;;;;;;;;;;;o                                                   ",
"                                           o;;;;;;;;;;;;;;;;;;;;;;;;;;;;;;;;o                                                   ",
"                                         :o;;;;;;;;;;;;;;;;;;;;;;;;;;;;;;;;;;o:                                                 ",
"                                         :;;;;;;;;;;;;;;;;;;;;;;;;;;;;;;;;;;;;O+                                                ",
"                                         :;;;;;;;;;;;;;;;;;;;;;;;;;;;;;;;;;;;;;;                                                ",
"                                        Oo;;;;;;;;;;;;;;;;;;;;;;;;;;;;;;;;;;;;;;                                                ",
"                                        ;;;;;;;;;;;;;;;;;;;;;;;;;;;;;;;;;;;;;;;;                                                ",
"                                        ;;;;;;;;;;;;;;;;;;;;;;;;;;;;;;;;;;;;;;;;;O                                              ",
"                                      ::;;;;;;;;;;;;;;;;;;;;;;;;;;;;;;;;;;;;;;;;;O                                              ",
"                                      O;;;;;;;;;;;;;;;;;;;;;;;;;;;;;;;;;;;;;;;;;;O                                              ",
"                                    +oo;;;;;;;;;;;;;;;;;;;;;;;;;;;;;;;;;;;;;;;;;;O                                              ",
"                                    +;;;;;;;;;;;;;;;;;;;;;;;;;;;;;;;;;;;;;;;;;;;;o++                                            ",
"                                    +;;;;;;;;;;;;;;;;;;;;;;;;;;;;;;;;;;;;;;;;;;;;;;+                                            ",
"                                   Oo;;;;;;;;;;;;;;;;;;;;;;;;;;;;;;;;;;;;;;;;;;;;;;+                                            ",
"                                   o;;;;;;;;;;;;;;;;;;;;;;;;;;;;;;;;;;;;;;;;;;;;;;;+                                            ",
"                                   o;;;;;;;;;;;;;;;;;;;;;;;;;;;;;;;;;;;;;;;;;;;;;;;+                                            ",
"                                   o;;;;;;;;;;;;;;;;;;;;;;;;;;;;;;;;;;;;;;;;;;;;;;;+                                            ",
"                                   o;;;;;;;;;;;;;;;;;;;;;;;;;;;;;;;;;;;;;;;;;;;;;;;+                                            ",
"                                   o;;;;;;;;;;;;;;;;;;;;;;;;;;;;;;;;;;;;;;;;;;;;;;;+                                            ",
"                                   o;;;;;;;;;;;;;;;;;;;;;;;;;;;;;;;;;;;;;;;;;;;;;;;+                                            ",
"                                   o;;;;;;;;;;;;;;;;;;;;;;;;;;;;;;;;;;;;;;;;;;;;;;;+                                            ",
"                                   :O;;;;;;;;;;;;;;;;;;;;;;;;;;;;;;;;;;;;;;;;;;;;;;+                                            ",
"                                    +;;;;;;;;;;;;;;;;;;;;;;;;;;;;;;;;;;;;;;;;;;;;;;+                                            ",
"                                    +;;;;;;;;;;;;;;;;;;;;;;;;;;;;;;;;;;;;;;;;;;;;;;+                                            ",
"                                    +;;;;;;;;;;;;;;;;;;;;;;;;;;;;;;;;;;;;;;;;;;;;oO+                                            ",
"                                    +;;;;;;;;;;;;;;;;;;;;;;;;;;;;;;;;;;;;;;;;;;;;O                                              ",
"                                    +;;;;;;;;;;;;;;;;;;;;;;;;;;;;;;;;;;;;;;;;;;;;O                                              ",
"                                    +oo;;;;;;;;;;;;;;;;;;;;;;;;;;;;;;;;;;;;;;;;;;O                                              ",
"                                      O;;;;;;;;;;;;;;;;;;;;;;;;;;;;;;;;;;;;;;;;;;O                                              ",
"                                     XO;;;;;;;;;;;;;;;;;;;;;;;;;;;;;;;;;;;;;;;;;::                                              ",
"                                     XO;;;;;;;;;;;;;;;;;;;;;;;;;;;;;;;;;;;;;;;;;                                                ",
"                                     XO;;;;;;;;;;;;;;;;;;;;;;;;;;;;;;;;;;;;;;;;;                                                ",
"                                     X:O;;;;;;;;;;;;;;;;;;;;;;;;;;;;;;;;;;;;;;;;                                                ",
"                                      XX;;;;;;;;;;;;;;;;;;;;;;;;;;;;;;;;;;;;;;;;                                                ",
"                                        +O;;;;;;;;;;;;;;;;;;;;;;;;;;;;;;;;;;;;O+                                                ",
"                                        X:;;;;;;;;;;;;;;;;;;;;;;;;;;;;;;;;;;;;:                                                 ",
"                                         :;;;;;;;;;;;;;;;;;;;;;;;;;;;;;;;;;;;;:                                                 ",
"                                         :;;;;;;;;;;;;;;;;;;;;;;;;;;;;;;;;;;;;:                                                 ",
"                                         :;;;;;;;;;;;;;;;;;;;;;;;;;;;;;;;;;;;;:                                                 ",
"                                         :;;;;;;;;;;;;;;;;;;;;;;;;;;;;;;;;;;;;:                                                 ",
"                                         :Oo;;;;;;;;;;;;;;;;;;;;;;;;;;oO;;;;;;:                                                 ",
"                                           o;;;;;;;;;;;;;;;;;;;;;;;;;;: ;;;;;;:                                                 ",
"                                           +:;;;;;;;;;;;;;;;;;;;;;;;o++ ;;;;o++                                                 ",
"                                            +;;;;;;;;;;;;;;;;;;;;;;;o ++;;;;o                                                   ",
"                                            +;;;;;;;;;;;;;;;;;;;;;;;o O;;;;;o                                                   ",
"                                            +:o;;;;;;;;;;;;;;;;;;;;;o ::;;;O:                                                   ",
"                                              O;;;;;;;;;;;;;;;;;;;;;o   ;;;+                                                    ",
"                                                ;;;;;;;;;;;;;;;;;;;;o   ;;;+                                                    ",
"                                                ;;;;;;;;;;;;;;;;;;;oO ::;oO+                                                    ",
"                                                ;;;;;;;;;;;;;;;;;;;+  O;;O                                                      ",
"                                                +O;;;;;;;;;;;;;;;o+++oo;++                                                      ",
"                                                 :;;;;;;;;;;;;;;oO  +;oo                                                        ",
"                                                 :;;;;;;;;;;;;;;    +;:                                                         ",
"                                                 +:o;;;;;;;;;;;;   Oo;:                                                         ",
"                                                   o;;;;;;;;;;;;   o;;:                                                         ",
"                                                      O;;;;;;;;;                                                                ",
"                                                      :OOOOo;;oO                                                                ",
"                                                           o;;:                                                                 ",
"                                                           +:;:                                                                 ",
"                                                           +:o:                                                                 ",
"                                                           oo                                                                   ",
"                                                           ::                                                                   ",
"                                                                                                                                ",
"                                                                                                                                ",
"                                                                                                                                ",
"                                                                                                                                ",
"                                                                                                                                ",
"                                                                                                                                ",
"                                                                                                                                ",
"                                                                                                                                ",
"                                                                                                                                ",
"                                                                                                                                ",
"                                                                                                                                ",
"                                                                                                                                ",
"                                                                                                                                ",
"                                                                                                                                ",
"                                                                                                                                ",
"                                                                                                                                ",
"                                                                                                                                "
};
