/* XPM */
static char *_752_208ef1dfdb3cbf74d5aa62915989434abfc43e875bfe3fe1ac1c730898d976b6_5[] = {
/* columns rows colors chars-per-pixel */
"128 128 32 1 ",
"  c #3A4041",
". c #6D1823",
"X c #190F20",
"o c #EFECEC",
"O c #C9B8BD",
"+ c #5B5168",
"@ c #0C3F0F",
"# c #63AD45",
"$ c #CEB7B9",
"% c #0F5314",
"& c #116116",
"* c #7EC262",
"= c #85BF13",
"- c #67940F",
"; c #F7F6F7",
": c #D64F5D",
"> c #C2360F",
", c #D48A19",
"< c #F8F8F8",
"1 c black",
"2 c black",
"3 c black",
"4 c black",
"5 c black",
"6 c black",
"7 c black",
"8 c black",
"9 c black",
"0 c black",
"q c black",
"w c black",
"e c black",
/* pixels */
"                                                                                                                                ",
"                                                                                                                                ",
"                                                                                                                                ",
"                                                                                                                                ",
"                                                                                                                                ",
"                                                                                                                                ",
"                                                                                                                                ",
"                                                                                                                                ",
"                                                                                                                                ",
"                                                                                                                                ",
"                                                                                                                                ",
"                                                                                                                                ",
"                                                                                                                                ",
"                                                                                                                                ",
"                                                                                                                                ",
"                                                                                                                                ",
"                                                                                                                                ",
"                                                                                                                                ",
"                                                                                                                                ",
"                                                       ............                                                             ",
"                                                      .............                                                             ",
"                                                     ................                                                           ",
"                                                    .........XXXXXX...                                                          ",
"                                                   ..........XXXXXX...                                                          ",
"                                                  ..............XXXXX...                                                        ",
"                                                 ...............XXXXX...                                                        ",
"                                                ..................XXXX....                                                      ",
"                                                ..X........XX......XX.....                                                      ",
"                                                ..X........XX......XX.....                                                      ",
"                                                ..X........XXX....XXX   ..                                                      ",
"                                                ..XX......XXXX..XXXXX   ..                                                      ",
"                                                ..XXX.....XXXX..XXXXX   ..                                                      ",
"                                                ..XXXXXXXXXXXX....XXXX  ..                                                      ",
"                              ..                ..XXXXXXXXXXXX....XXXX  ..                                                      ",
"                              .>                ..XXXXXXXXXXXX.....XXX  ..                                                      ",
"                              >,              .>..XXXXXXXXXXXX.....XXXXX                                                        ",
"                              >,              >>. X+++ X+++ XX ....XXXXX                                                        ",
"                                              ..XXXOooOXooo+XXXX.....XXX                                                        ",
"                                              ..XXX+OO+XOOO XXXXX....XXXX                                                       ",
"                                              ..XXXXXXXXXXXXXXXXXX...XXXXX                                                      ",
"                                >.            ..XXXXXXXXXXXXXXXXXX...XXXXX                                                      ",
"                                ..            ..XXXXXXXXXXXXXXXXXX...XXXXX                                                      ",
"                                              ..XXXXXXXXXXXXXXXXXX...XXXXX                                                      ",
"                              >,            .>... XXXXXXXXXXXXXX.....XXXXXX                                                     ",
"                              >,.           .:>...XXXXXXXXXXXXXX.....XXXXXX                                                     ",
"                                >.          .:>...XXXXXXXXXXXX.....XXXXXXXX                                                     ",
"                              ....           >.....XXXXXXXXXX......XXXX..XXX                                                    ",
"                              .>           XX......XXXXXXXXXX......XXX....XXX                                                   ",
"                            .>,,         .:.XX.......XXXXXX.......XXXX.......                                                   ",
"                            .>,$..      .>>.XXX......XXXXXX......XXXXX.......                                                   ",
"                            .,$<,>      :>...XXX.....XXXXX......XXXXX.........                                                  ",
"                            .,$<,>     X......XXX....X .XX......XXX.............                                                ",
"                            .,$o,>    XX.......XXX...X..XX......XXX.............                                                ",
"                                     XXXXX......XXX..X....X...XXXX...X..........                                                ",
"                                    XXXXXXX........XXX....X..XXX.....XXX.........                                               ",
"                                   XXXXXXXX........XXX....X..XXX.....XXX..........                                              ",
"                            +$oo$*X>>.....X..........X....X..........XXX..........                                              ",
"                            +$ooOO+>>.....X..........X....X..........XXX..........                                              ",
"                            +$oooo$+.......XX........X....X...........XXXXXXXX....                                              ",
"                            +$ooooo+++.....XX.............X..........XXXXXX...XX...                                             ",
"                            +OOoooo+++.....XX.............X..........XXXXXX....X...                                             ",
"                              OOOO+XXX.....XX.XX...................XXX....XXX......                                             ",
"                              ++++.XXX.....XX.XX................XXXXX......XX......                                             ",
"                                  .XXX.....XX.XX................XXXXX......XX......                                             ",
"                                  .XXX.....XX.XXXX............XX...........XX......                                             ",
"                                  .XXX.........XXX............ X...................                                             ",
"                                  .XXX..........XX.XX........X....................X                                             ",
"                                  .XXX....X....XXX.XX......OOOOOO++ X...........XXX                                             ",
"                                  .XXX....X...XXXX.XX.....+OOOOOOO+XX...........XXX                                             ",
"                                  .XXX....X...XXXX.XX....OooooooOO+XX.........XXXXX                                             ",
"                                  .XX.....X...XX..XXX... +Oooooo+-- X........XXXXXX                                             ",
"                                  .XX.....X...XX..XXX...@+Oooooo@&#%X........XXXXXX                                             ",
"                                  .XX...XXX...XX..X.....@ .$$O$$X&#%X......XXXXXXX                                              ",
"                                  .XX...XXX....X..X.....@ .+O***X&#%X......XXXXXXX                                              ",
"                                  .XX...XXX........XXXXX@ ...XXXX&#%X......XXXXXXX                                              ",
"                                   XX...XXXXX......XX.... @..XXX--%XX.....XXXXXXXX                                              ",
"                                   XX...XXXXX......XX.....@..X@%-&XXX.... XXXXXXX                                               ",
"                                   ..X..XXXXX...XX.XX.XX...@@@-#XXXXX...XXXXXXXX                                                ",
"                                   ..X..XXXXXXXXXX.XX.XX.... @&&XXX ...XXXXXXXXX                                                ",
"                                   ..X..XXXXXXXXXX.XX.XX.....@XXXXX...XXXXXXXXXX                                                ",
"                                   ..X....XXXXXX......XX...%%&#*XXX...XXXXXXXXXX                                                ",
"                                   ..X ...XXXXXX......XX.. %&&-#-&X...XXXXXXXXXX                                                ",
"                                   ..   ..XXX.........XX. %&&&&&*-X..XXXXXXXXX                                                  ",
"                                   ..   .. XXX.......X... %-#-&&*-XXXXXXXXXXXX                                                  ",
"                                   ..   .. XXX ......X... %#=-&&*-XXXXXXXXXXXX                                                  ",
"                                   ..   .. XXXXX.....X... %#=-&&*-XXXXXXXXXXXX                                                  ",
"                                   ..  .    XXXX....XX... %#=-&&*-XXXXXXXXXXXX                                                  ",
"                                   .. ..     XXX...XXX... %#=-&&*-XXXXXXXXXXXX                                                  ",
"                                  .          XXX...XXXXX. %&&&&&*-XXXX  XXXXXX                                                  ",
"                                  .          XXX...XXXXX..@%&&&--&XXXX  XXXXXX                                                  ",
"                                              XX...XX.XX..X%%&#*XXXXXX    XXXX                                                  ",
"                                              XX...XXXXX..X..X%&XXXXXX     XXX                                                  ",
"                                              XX...XXXXX..X..XXXXXXXXX     XXX                                                  ",
"                                              XXXX.XX.XX..X..XXXXXXXXX     XXX                                                  ",
"                                              XXXX.XX.XX..X..XXXXXXXXX     XXX                                                  ",
"                                              XXXX.XX.XX..X..XXXXXX  X     XXX                                                  ",
"                                                XX....XX..X..XXX  X  X     XXX                                                  ",
"                                                XX....XX..X..XXX  X  X     XXX                                                  ",
"                                                  X...XX.. ..XXX           XX                                                   ",
"                                                  XXX.XX.. ..XXX           XX                                                   ",
"                                                  XXX.XX.. ..XXX           XX                                                   ",
"                                                   XX.XX..... XX          XXX                                                   ",
"                                                   XXXXXX.... XX          XX                                                    ",
"                                                   XXXXXXX... XX          X                                                     ",
"                                                     XXX   ...                                                                  ",
"                                                     XXX    ..                                                                  ",
"                                                             .                                                                  ",
"                                                           ..                                                                   ",
"                                                           ..                                                                   ",
"                                                                                                                                ",
"                                                                                                                                ",
"                                                                                                                                ",
"                                                                                                                                ",
"                                                                                                                                ",
"                                                                                                                                ",
"                                                                                                                                ",
"                                                                                                                                ",
"                                                                                                                                ",
"                                                                                                                                ",
"                                                                                                                                ",
"                                                                                                                                ",
"                                                                                                                                ",
"                                                                                                                                ",
"                                                                                                                                ",
"                                                                                                                                ",
"                                                                                                                                ",
"                                                                                                                                ",
"                                                                                                                                "
};
