/* XPM */
static char *_752_208ef1dfdb3cbf74d5aa62915989434abfc43e875bfe3fe1ac1c730898d976b6_6[] = {
/* columns rows colors chars-per-pixel */
"128 128 32 1 ",
"  c #3A4041",
". c #6D1823",
"X c #190F20",
"o c #EFECEC",
"O c #C9B8BD",
"+ c #5B5168",
"@ c #0C3F0F",
"# c #63AD45",
"$ c #CEB7B9",
"% c #0F5314",
"& c #116116",
"* c #7EC262",
"= c #85BF13",
"- c #67940F",
"; c #F7F6F7",
": c #D64F5D",
"> c #C2360F",
", c #D48A19",
"< c #F8F8F8",
"1 c black",
"2 c black",
"3 c black",
"4 c black",
"5 c black",
"6 c black",
"7 c black",
"8 c black",
"9 c black",
"0 c black",
"q c black",
"w c black",
"e c black",
/* pixels */
"                                                                                                                                ",
"                                                                                                                                ",
"                                                                                                                                ",
"                                                                                                                                ",
"                                                                                                                                ",
"                                                                                                                                ",
"                                                                                                                                ",
"                                                                                                                                ",
"                                                                                                                                ",
"                                                                                                                                ",
"                                                                                                                                ",
"                                                                                                                                ",
"                                                                                                                                ",
"                                                                                                                                ",
"                                                                                                                                ",
"                                                                                                                                ",
"                                                                                                                                ",
"                                                                                                                                ",
"                                                                                                                                ",
"                                                       ............                                                             ",
"                                                      .............                                                             ",
"                                                     ................                                                           ",
"                                                   .>........XXXXXX...                                                          ",
"                                                   >>........XXXXXX...                                                          ",
"                                                 .:.............XXXXX...                                                        ",
"                                                .>>.............XXXXX...                                                        ",
"                                                :>................XXXX....                                                      ",
"                                                :>X........XX......XX.....                                                      ",
"                                                :>X........XX......XX.....                                                      ",
"                                                :>X........XXX....XXX   ..                                                      ",
"                                                :>XX......XXXX..XXXXX   ..                                                      ",
"                                                :>XXX.....XXXX..XXXXX   ..                                                      ",
"                           >>                   :>XXXXXXXXXXXX....XXXX  ..                                                      ",
"                           ..                   :>XXXXXXXXXXXX....XXXX  ..                                                      ",
"                                                :>XXXXXXXXXXXX.....XXX  ..                                                      ",
"                           >>                 .>:>XXXXXXXXXXXX.....XXXXX                                                        ",
"                           >>                 >:>.X+++ X+++ XX ....XXXXX                                                        ",
"                                              >:XXXOooOXooo+XXXX.....XXX                                                        ",
"                                              >:XXX+OO+XOOO XXXXX....XXXX                                                       ",
"                                              >:XXXXXXXXXXXXXXXXXX...XXXXX                                                      ",
"                              .>              >:XXXXXXXXXXXXXXXXXX...XXXXX                                                      ",
"                              >>              >:XXXXXXXXXXXXXXXXXX...XXXXX                                                      ",
"                              >,              >:XXXXXXXXXXXXXXXXXX...XXXXX                                                      ",
"                            .>..            .>::. XXXXXXXXXXXXXX...XXXXXXXX                                                     ",
"                            .>..            .::>..XXXXXXXXXXXXXX...XXXXXXXX                                                     ",
"                            .,>>            .:>...XXXXXXXXXXXX.....XXX....XXX                                                   ",
"                            .>,,..          .:>....XXXXXXXXXX......XXX......                                                    ",
"                            .>,,>.         X.:>....XXXXXXXXXX......XXX.......                                                   ",
"                           >>>,,,,>.     .:.XX.......XXXXXX.......XXX.........                                                  ",
"                           >>>,$,,>.    .>:.XXX......XXXXXX......XXX...........                                                 ",
"                           >>,$<,,>.    :::..XXX.....XXXXX......XXX.............                                                ",
"                           >>,$<o$>.   X:>....XXX....X .XX......XXX..X..........                                                ",
"                           >>,$oo$>.  XX>>.....XXX...X..XX......XXX..X .........                                                ",
"                            .>>>>.   XXXXX......XXX..X....X...XXXX...XXX..........                                              ",
"                             .....  XXXXXXX........XXX....X..XXX.....XXX..........                                              ",
"                                   XXXXXXXX........XXX....X..XXX.....XXX..........                                              ",
"                            +$oooOX>>.....X..........X....X...........XXXXXXXX....                                              ",
"                            +$oooO+>>.....X..........X....X...........XXXXXXXX....                                              ",
"                            +$oooo$+.......XX........X....X..........XXXXXX...XX...                                             ",
"                            +$ooooo+++.....XX.............X........XXX .. XXX......                                             ",
"                            +OOoooo+++.....XX.............X........XXX....XXX......                                             ",
"                              OOOO+XXX.....XX.XX................XXXXX......XX......                                             ",
"                              ++++.XXX.....XX.XX...............X...........XX......                                             ",
"                                  .XXX.....XX.XX..............XX...........XX......                                             ",
"                                  .XXX..........XX.XX........X....................X                                             ",
"                                  .XXX..........XX.XX......+++++++...............XX                                             ",
"                                  .XXX........XXXX.XX......OOOOOOO+XX...........XXX                                             ",
"                                  .XXX........XXXX.XX....*ooooooOO+XX..........XXXX                                             ",
"                                  .XXX........XXXX.XX....OooooooO*+ X.........XXXXX                                             ",
"                                  .XXX....X...XX..XXX...@+Oooooo@&#%X........XXXXXX                                             ",
"                                  .XX.....X...XX..X ....@++OOOOOX&#%X.......XXXXXX                                              ",
"                                  .XX.....X...XX..X.....@ .$$O$$X&#%X......XXXXXXX                                              ",
"                                  .XX...XXX........XXXXX@ ...XXXX&#%X......XXXXXXX                                              ",
"                                  .XX...XXX .......XXXXX  ...XXX&&-@X......XXXXXXX                                              ",
"                                  .XX...XXXXX......XX.....@..XXX#-XXX.....XXXXXXXX                                              ",
"                                   XX...XXXXX...X..XX..X... @@--%@XXX...XXXXXXXX                                                ",
"                                   XX...XXXXX...XX.XX.XX... @@--XXXXX...XXXXXXXX                                                ",
"                                   ..X..XXXXXXXXXX.XX.XX.....@XXXXX...XXXXXXXXXX                                                ",
"                                   ..X..XXXXXXXX......XX...  %--XXX...XXXXXXXXXX                                                ",
"                                   ..X..XXXXXXXX......XX...%%&#*XXX...XXXXXXXXXX                                                ",
"                                   ..X....XXX.........XX. %&&&&&*-X..XXXXXXXXX                                                  ",
"                                   ..X ...XXX......... X. %--&&&*-X  XXXXXXXXX                                                  ",
"                                   ..   ..XXXX.......X... %#=-&&*-XXXXXXXXXXXX                                                  ",
"                                   ..   ..XXXXXX.....X... %#=-&&*-XXXXXXXXXXXX                                                  ",
"                                   ..   ..XXXXXX.....X... %#=-&&*-XXXXXXXXXXXX                                                  ",
"                                   ..   ..   XXX...XXX... %#=-&&*-XXXXXXXXXXXX                                                  ",
"                                   ..   ..   XXX...XXXXX. %--&&&*-XXXXX XXXXXX                                                  ",
"                                   ..   ..   XXX...XXXXX. %&&&&&*-XXXX  XXXXXX                                                  ",
"                                   ..         XX...XX.XX..X%%&#*XXXXXX    XXXX                                                  ",
"                                   ..         XX...XX.XX..X  %--XXXXXX    XXXX                                                  ",
"                                   ..         XX...XXXXX..X..XXXXXXXXX     XXX                                                  ",
"                                              XXX..XX.XX..X..XXXXXXXXX     XXX                                                  ",
"                                              XXXX.XX.XX..X..XXXXXXXXX     XXX                                                  ",
"                                              XXXX.XX.XX..X..XXXXXX  X     XXX                                                  ",
"                                                XX....XX..X..XXX XX  X     XXX                                                  ",
"                                                XX....XX..X..XXX  X  X     XXX                                                  ",
"                                                  X...XX.. ..XXX           XX                                                   ",
"                                                  X ..XX.. ..XXX           XX                                                   ",
"                                                  XXX.XX.. ..XXX           XX                                                   ",
"                                                   XX.XX..... XX          XXX                                                   ",
"                                                   XX.XX..... XX          XXX                                                   ",
"                                                   XXXXX..... XX          X                                                     ",
"                                                    XXXX   ...                                                                  ",
"                                                     XXX   ...                                                                  ",
"                                                             .                                                                  ",
"                                                             .                                                                  ",
"                                                           ..                                                                   ",
"                                                                                                                                ",
"                                                                                                                                ",
"                                                                                                                                ",
"                                                                                                                                ",
"                                                                                                                                ",
"                                                                                                                                ",
"                                                                                                                                ",
"                                                                                                                                ",
"                                                                                                                                ",
"                                                                                                                                ",
"                                                                                                                                ",
"                                                                                                                                ",
"                                                                                                                                ",
"                                                                                                                                ",
"                                                                                                                                ",
"                                                                                                                                ",
"                                                                                                                                ",
"                                                                                                                                ",
"                                                                                                                                ",
"                                                                                                                                ",
"                                                                                                                                "
};
