/* XPM */
static char *_752_208ef1dfdb3cbf74d5aa62915989434abfc43e875bfe3fe1ac1c730898d976b6_3[] = {
/* columns rows colors chars-per-pixel */
"128 128 32 1 ",
"  c #3A4041",
". c #6D1823",
"X c #190F20",
"o c #EFECEC",
"O c #C9B8BD",
"+ c #5B5168",
"@ c #0C3F0F",
"# c #63AD45",
"$ c #CEB7B9",
"% c #0F5314",
"& c #116116",
"* c #7EC262",
"= c #85BF13",
"- c #67940F",
"; c #F7F6F7",
": c #D64F5D",
"> c #C2360F",
", c #D48A19",
"< c #F8F8F8",
"1 c black",
"2 c black",
"3 c black",
"4 c black",
"5 c black",
"6 c black",
"7 c black",
"8 c black",
"9 c black",
"0 c black",
"q c black",
"w c black",
"e c black",
/* pixels */
"                                                                                                                                ",
"                                                                                                                                ",
"                                                                                                                                ",
"                                                                                                                                ",
"                                                                                                                                ",
"                                                                                                                                ",
"                                                                                                                                ",
"                                                                                                                                ",
"                                                                                                                                ",
"                                                                                                                                ",
"                                                                                                                                ",
"                                                                                                                                ",
"                                                                                                                                ",
"                                                                                                                                ",
"                                                                                                                                ",
"                                                                                                                                ",
"                                                                                                                                ",
"                                                                                                                                ",
"                                                                                                                                ",
"                                                       ............                                                             ",
"                                                      .............                                                             ",
"                                                     ................                                                           ",
"                                                    .........XXXXXX...                                                          ",
"                                                   ..........XXXXXX...                                                          ",
"                                                  ..............XXXXX...                                                        ",
"                                                 ...............XXXXX...                                                        ",
"                                                ..................XXXX....                                                      ",
"                                                ..X........XX......XX.....                                                      ",
"                                                ..X........XX......XX.....                                                      ",
"                                                ..X........XXX....XXX   ..                                                      ",
"                                                ..XX......XXXX..XXXXX   ..                                                      ",
"                                                ..XXX.....XXXX..XXXXX   ..                                                      ",
"                                                ..XXXXXXXXXXXX....XXXX  ..                                                      ",
"                                                ..XXXXXXXXXXXX....XXXX  ..                                                      ",
"                                                ..XXXXXXXXXXXX.....XXX  ..                                                      ",
"                                               ...XXXXXXXXXXXX.....XXXXX                                                        ",
"                                              ... X+++ X+++ XX ....XXXXX                                                        ",
"                                              ..XXXOooOXooo+XXXX.....XXX                                                        ",
"                                              ..XXX+OO+XOOO XXXXX....XXXX                                                       ",
"                                              ..XXXXXXXXXXXXXXXXXX...XXXXX                                                      ",
"                                              ..XXXXXXXXXXXXXXXXXX...XXXXX                                                      ",
"                                              ..XXXXXXXXXXXXXXXXXX...XXXXX                                                      ",
"                                              ..XXXXXXXXXXXXXXXXXX...XXXXX                                                      ",
"                                             .... XXXXXXXXXXXXXX.....XXXXXX                                                     ",
"                                             .....XXXXXXXXXXXXXX.....XXXXXX                                                     ",
"                                             .....XXXXXXXXXXXX.....XXXXXXXX                                                     ",
"                                             ......XXXXXXXXXX......XXXX..XXX                                                    ",
"                                           XX......XXXXXXXXXX......XXX....XXX                                                   ",
"                                          .XXX.......XXXXXX.......XXXX.......                                                   ",
"                                         ...XXX......XXXXXX......XXXXX.......                                                   ",
"                                        .....XXX.....XXXXX......XXXXX.........                                                  ",
"                              Oo       X>>....XXX....X .XX......XXX.............                                                ",
"                              Oo      XX>>.....XXX...X..XX......XXX.............                                                ",
"                                     XXXXX......XXX..X....X...XXXX...X..........                                                ",
"                                    XXXXXXX........XXXXX..X..XXX.....XXX.........                                               ",
"                                   XXXXXXXX........XXXXX..X..XXX.....XXX..........                                              ",
"                            +$oo$*X>>.....X.............XX.XX........XXX..........                                              ",
"                            +$ooOO+>>.....X.............XX..X........XXX..........                                              ",
"                            +$oooo$+.......XX...........XX...X........XXXXXXXX....                                              ",
"                            +$ooooo+++.....XX........................XXXXXX...XX...                                             ",
"                            +OOoooo+++.....XX........................XXXXXX....X...                                             ",
"                              OOOO+XXX.....XX.XX...................XXX....XXX......                                             ",
"                              ++++.XXX.....XX.XX................XXXXX......XX......                                             ",
"                                  .XXX.....XX.XX................XXXXX......XX......                                             ",
"                                  .XXX.....XX.XXXX............XX...........XX......                                             ",
"                                  .XXX.........XXX............ X...................                                             ",
"                                  .XXX..........XX.XX........X....................X                                             ",
"                                  .XXX....X....XXX.XX......OOOOOO++ X...........XXX                                             ",
"                                  .XXX....X...XXXX.XX.....+OOOOOOO+XX...........XXX                                             ",
"                                  .XXX....X...XXXX.XX....OooooooOO+XX.........XXXXX                                             ",
"                                  .XXX....X...XX..XXX... +Oooooo+-- X........XXXXXX                                             ",
"                                  .XXX....X...XX..XXX...@+Oooooo@&#%X........XXXXXX                                             ",
"                                  .XXX..XXX.......X.....@ .$$O$$X&#%X......XXXXXXX                                              ",
"                                  .XXX..XXX.......X.....@ .+O***X&#%X......XXXXXXX                                              ",
"                                  .XXX..XXX...XX..X..XXX@ ...XXXX&#%X......XXXXXXX                                              ",
"                                   XXX..XXXXXXXX..X..XXX. @..XXX--%XX.....XXXXXXXX                                              ",
"                                   XXX..XXXXXXXX..X..XXX..@..X@%-&XXX.... XXXXXXX                                               ",
"                                   ..X..XXXXXX.......XXX...@@@-#XXXXX...XXXXXXXX                                                ",
"                                   ..X..XXX .........XXX.... @&&XXX ...XXXXXXXXX                                                ",
"                                   ..X..XXX..........XXX.....@XXXXX...XXXXXXXXXX                                                ",
"                                   ..X....XXX......XX.XX...%%&#*XXX...XXXXXXXXXX                                                ",
"                                   ..X ...XXX......XX.XX.. %&&-#-&X...XXXXXXXXXX                                                ",
"                                   ..   ..XXXX.....XX.XX. %&&&&&*-X..XXXXXXXXX                                                  ",
"                                   ..  ... XXX....XXX.XX. %-#-&&*-XXXXXXXXXXXX                                                  ",
"                                   ..  ..  XXX....XXX.XX. %#=-&&*-XXXXXXXXXXXX                                                  ",
"                                  ...      XXX....XXXXXX. %#=-&&*-XXXXXXXXXXXX                                                  ",
"                                            XX....X  XXX. %#=-&&*-XXXXXXXXXXXX                                                  ",
"                                             X....X..XXX. %#=-&&*-XXXXXXXXXXXX                                                  ",
"                                             X....XXXXXX. %&&&&&*-XXXX  XXXXXX                                                  ",
"                                             XX...XXXXXX..@%&&&--&XXXX  XXXXXX                                                  ",
"                                             XXX..X..XXX..X%%&#*XXXXXX    XXXX                                                  ",
"                                             XXX..X..XXX..X..X%&XXXXXX     XXX                                                  ",
"                                             XXX..X..XXX..X..XXXXXXXXX     XXX                                                  ",
"                                              XX.....XXX..X..XXXXXXXXX     XXX                                                  ",
"                                                X....XXX..X..XXXXXXXXX     XXX                                                  ",
"                                                XX...XXX..X..XXXXXX  X     XXX                                                  ",
"                                                XXX..XXX..X..XXX  X  X     XXX                                                  ",
"                                                XXX..XXX..X..XXX  X  X     XXX                                                  ",
"                                                  X..XXX.. ..XXX           XX                                                   ",
"                                                  XXXXXX.. ..XXX           XX                                                   ",
"                                                  XXXXXX.. ..XXX           XX                                                   ",
"                                                   XXXXX..... XX          XXX                                                   ",
"                                                      XXX.... XX          XX                                                    ",
"                                                      XXXX... XX          X                                                     ",
"                                                           ...                                                                  ",
"                                                            ..                                                                  ",
"                                                             .                                                                  ",
"                                                           ..                                                                   ",
"                                                           ..                                                                   ",
"                                                                                                                                ",
"                                                                                                                                ",
"                                                                                                                                ",
"                                                                                                                                ",
"                                                                                                                                ",
"                                                                                                                                ",
"                                                                                                                                ",
"                                                                                                                                ",
"                                                                                                                                ",
"                                                                                                                                ",
"                                                                                                                                ",
"                                                                                                                                ",
"                                                                                                                                ",
"                                                                                                                                ",
"                                                                                                                                ",
"                                                                                                                                ",
"                                                                                                                                ",
"                                                                                                                                ",
"                                                                                                                                "
};
