/* XPM */
static char *_328_6bbf2a010627d16be413c9daa5978b38d89e1514047e610e9ca21d4df5bf0440_2[] = {
/* columns rows colors chars-per-pixel */
"128 128 16 1 ",
"  c #3A4041",
". c #6D1823",
"X c #190F20",
"o c #EFECEC",
"O c #C9B8BD",
"+ c #5B5168",
"@ c #0C3F0F",
"# c #63AD45",
"$ c #CEB7B9",
"% c #0F5314",
"& c #116116",
"* c #7EC262",
"= c #85BF13",
"- c #67940F",
"; c #FEFEFE",
": c #AF9DBB",
/* pixels */
"                                                                                                                                ",
"                                                                                                                                ",
"                                                                                                                                ",
"                                                                                                                                ",
"                                                                                                                                ",
"                                                                                                                                ",
"                                                                                                                                ",
"                                                                                                                                ",
"                                                                                                                                ",
"                                                                                                                                ",
"                                                                                                                                ",
"                                                                                                                                ",
"                                                                                                                                ",
"                                                                                                                                ",
"                                                                                                                                ",
"                                                                                                                                ",
"                                                                                                                                ",
"                                                                                                                                ",
"                                                                                                                                ",
"                                                                                                                                ",
"                                                                                                                                ",
"                                                                                                                                ",
"                                                                                                                                ",
"                                                                                                                                ",
"                                                                                                                                ",
"                                                                                                                                ",
"                                                                                                                                ",
"                                                                                                                                ",
"                                                                                                                                ",
"                                                      .............                                                             ",
"                                                     .+:............                                                            ",
"                                                     .::.............                                                           ",
"                                                   ...::.....XXXXXX...                                                          ",
"                                                ++ ...::++...XXXXXX ...                                                         ",
"                                                ::....::::......XXXXX...                                                        ",
"                                                +......+::....... XXXX..                                                        ",
"                                                ..+.....:+........XXXX..                                                        ",
"                                                .+:+.......XX......XX...                                                        ",
"                                                .++++...:+.XXX....XXX ..                                                        ",
"                                                ..X::...::.XXX....XXX ..                                                        ",
"                                                ..X::::::+XXXX..XXXXX ..                                                        ",
"                                                ..X+::::::+ XX..XXXXX ..                                                        ",
"                                                ..XX+::::::+XX....XXXX..                                                        ",
"                                                ..XX+oO::Oo+XX.....XXX..                                                        ",
"                                                . X :;O::O;: X ....XXX .                                                        ",
"                                              ..XXX:O;:XX:;O:XXX.....XXX                                                        ",
"                                              ..XXX:::+XX+:::XXXX....XXXX                                                       ",
"                                              ..XXX::XXXXXX::XXXXX...XXXXX                                                      ",
"                                              ..XXXX+::::::+XXXXXX...XXXXX                                                      ",
"                                              ..XXXX+::::::+XXXXXX...XXXXX                                                      ",
"                                              ..XXXX+::::::+XXXXXX...XXXXX                                                      ",
"                                             .... XXX++++++XXXXX.....XXXXXX                                                     ",
"                                             .....XXXXXXXXXXXXXX.....XXXXXX                                                     ",
"                                          ........XXXXXXXXXXXX.....XXXXXXXX                                                     ",
"                                        ...........XXXXXXXXXX......XXXXX.........                                               ",
"                                        ...........XXXXXXXXXX......XXXXX..........                                              ",
"                                        ......XXXX...X..XX......XXX...............                                              ",
"                                        .......XXX...X..X ......XXX...............                                              ",
"                                      ..........XXX..X....X...XXXX...X.............                                             ",
"                                      .............XXX....X..XXX.....X.............                                             ",
"                                      .............XXX....X..XXX.....X ............                                             ",
"                                      .............XXX....X..........XXX...........                                             ",
"                                     .............X.......X..........XXXXXXXXX.....                                             ",
"                                     ......XX.....X.......X..........XXXXXXXXX.....                                             ",
"                                     ......XX.............X::......XXXXXXXX...XX...                                             ",
"                                    .......XX.............X++......XXXXXXXX ...X...                                             ",
"                                   ........XX.XX..................XXXX....XXX......                                             ",
"                                   ........XX.XX...........::...XXXXX......XX......                                             ",
"                                   ........XX.XX...........::...XXXXX......XX......                                             ",
"                                   ........XX.XXXX............XXXXXXXXXX...XX......                                             ",
"                                   .............XX...........:+.++....XX..........X                                             ",
"                                   .............XX.XX.......+:+.::....XX..........X                                             ",
"                                   .......XXXXXXXX.XX........X+:X+:+X...........XXX                                             ",
"                                    ......XXXXXXXX.XX.......+:OO:OO+X...........XXX                                             ",
"                                     ...XX....XXXX.XX......X+;;;;;;+X.........XXXXX                                             ",
"                                     ..X..XXXXXX..XXX......X ++++++ X........XXXXXX                                             ",
"                                     ..X. XXXXXX..XXX......XXXXXXXXXX........XXXXXX                                             ",
"                                     ...XXX.......X........XXXXXXXXXX......XXXXXXX                                              ",
"                                     ..XXX.....X..X..XXX...XXXXXXXXXX......XXXXXXX                                              ",
"                                     .XXXX....XX..X..XXX...XXXXXXXXXX......XXXXXXX                                              ",
"                                      XX......XXXXX..XXX@@@@@@@@###%X.....XXXXXXXX                                              ",
"                                      XX......XXXXX..XXX@@   @@@--#%X....XXXXXXXX                                               ",
"                                     X........XXXXX..XXX@ ...XXXX&#%X...XXXXXXXX                                                ",
"                                     X..........XXX..XXX@ ...XXXX&#....XXXXXXXXX                                                ",
"                                     X .........XXX..XXX@ ...XXX%&-...XXXXXXXXXX                                                ",
"                                      XX.....X..XXXXX.XX..@..XXX#-X...XXXXXXXXXX                                                ",
"                                        X...XX...XXXX.XX...  @&-&&X..XXXXXXXXXX                                                 ",
"                                        XX.XXX....XXX.XX...@@@-#XXX..XXXXXXXXX                                                  ",
"                                          ...X....XXX.XX.....@XXXXXXXXXXXXXXXX                                                  ",
"                                          ...X....XXX.XX.... %&-XXXXXXXXXXXXXX                                                  ",
"                                          ...X....XXXXXX...%%&#*XXXXXXXXXXXXXX                                                  ",
"                                          ...X....X..XXX..%&&&&&#-XXXXXXXXXXXX                                                  ",
"                                          ...X....X..XXX. %&&&&&*-XXXXXXXXXXXX                                                  ",
"                                           ..X....XXXXXX. %#=-&&*-XXXX  XXXXXX                                                  ",
"                                             XXX..X  XXX. %#=-&&*-XXX   XXXXX                                                   ",
"                                             XXX..X..XXX. %#=-&&*-XXX   XXXXX                                                   ",
"                                             XXX..X..XXX. %#=-&&*-XXX XXXXXXX                                                   ",
"                                             XXX..X..XXX. %---&&*-XXX  XXXXX                                                    ",
"                                              XX.....XXX. %&&&&&*-XXX   XXX                                                     ",
"                                                X....XXX..X%%&-#& XXX   XXX                                                     ",
"                                                XX...XXX..X@%%-#XXXXX   XXX                                                     ",
"                                                XXX..XXX..X..XXX  X   XXXX                                                      ",
"                                                 XX..XXX.. ..XXXXX   XXX                                                        ",
"                                                  X..XXX.. ..XXXXX   XXX                                                        ",
"                                                  XXXXXX.. ..XXX     X                                                          ",
"                                                  XXXXXX.. ..XXX    XX                                                          ",
"                                                   XXXXX..... XX   XXX                                                          ",
"                                                      XXX.... XX                                                                ",
"                                                       XX ...  X                                                                ",
"                                                           ...                                                                  ",
"                                                            ..                                                                  ",
"                                                             .                                                                  ",
"                                                           ..                                                                   ",
"                                                                                                                                ",
"                                                                                                                                ",
"                                                                                                                                ",
"                                                                                                                                ",
"                                                                                                                                ",
"                                                                                                                                ",
"                                                                                                                                ",
"                                                                                                                                ",
"                                                                                                                                ",
"                                                                                                                                ",
"                                                                                                                                ",
"                                                                                                                                ",
"                                                                                                                                ",
"                                                                                                                                ",
"                                                                                                                                "
};
