/* XPM */
static char *_752_208ef1dfdb3cbf74d5aa62915989434abfc43e875bfe3fe1ac1c730898d976b6_1[] = {
/* columns rows colors chars-per-pixel */
"128 128 32 1 ",
"  c #3A4041",
". c #6D1823",
"X c #190F20",
"o c #EFECEC",
"O c #C9B8BD",
"+ c #5B5168",
"@ c #0C3F0F",
"# c #63AD45",
"$ c #CEB7B9",
"% c #0F5314",
"& c #116116",
"* c #7EC262",
"= c #85BF13",
"- c #67940F",
"; c #F7F6F7",
": c #D64F5D",
"> c #C2360F",
", c #D48A19",
"< c #F8F8F8",
"1 c black",
"2 c black",
"3 c black",
"4 c black",
"5 c black",
"6 c black",
"7 c black",
"8 c black",
"9 c black",
"0 c black",
"q c black",
"w c black",
"e c black",
/* pixels */
"                                                                                                                                ",
"                                                                                                                                ",
"                                                                                                                                ",
"                                                                                                                                ",
"                                                                                                                                ",
"                                                                                                                                ",
"                                                                                                                                ",
"                                                                                                                                ",
"                                                                                                                                ",
"                                                                                                                                ",
"                                                                                                                                ",
"                                                                                                                                ",
"                                                                                                                                ",
"                                                                                                                                ",
"                                                                                                                                ",
"                                                                                                                                ",
"                                                                                                                                ",
"                                                                                                                                ",
"                                                                                                                                ",
"                                                       ............                                                             ",
"                                                      .............                                                             ",
"                                                     ................                                                           ",
"                                                    .........XXXXXX...                                                          ",
"                                                   ..........XXXXXX...                                                          ",
"                                                  ..............XXXXX...                                                        ",
"                                                 ...............XXXXX...                                                        ",
"                                                ..................XXXX....                                                      ",
"                                                ..X........XX......XX ....                                                      ",
"                                                ..X........XX......XX  ...                                                      ",
"                                                ..X........XXX....XXX   ..                                                      ",
"                                                ..XX......XXXX..XXXXX   ..                                                      ",
"                                                ..XXX.....XXXX..XXXXX   ..                                                      ",
"                                                ..XXXXXXXXXXXX....XXXX  ..                                                      ",
"                                                ..XXXXXXXXXXXX....XXXX  .                                                       ",
"                                                ..XXXXXXXXXXXX.....XXX                                                          ",
"                                               ...XXXXXXXXXXXX.....XXXXX                                                        ",
"                                              ... X+++ X+++ XX ....XXXXX                                                        ",
"                                              ..XXXOooOXooo+XXXX.....XXX                                                        ",
"                                              ..XXX+OO+XOOO XXXXX....XXXX                                                       ",
"                                              ..XXXXXXXXXXXXXXXXXX...XXXXX                                                      ",
"                                              ..XXXXXXXXXXXXXXXXXX...XXXXX                                                      ",
"                                              ..XXXXXXXXXXXXXXXXXX...XXXXX                                                      ",
"                                              ..XXXXXXXXXXXXXXXXXX...XXXXX                                                      ",
"                                             .... XXXXXXXXXXXXXX.....XXXXX                                                      ",
"                                             .....XXXXXXXXXXXXXX.....XXXXX                                                      ",
"                                          XXX.....XXXXXXXXXXXX.....XXXXXXX                                                      ",
"                                        ...XXX.....XXXXXXXXXX......XXXXX...                                                     ",
"                                        ...XXX.....XXXXXXXXXX......XXXXX...                                                     ",
"                                        .....X.......XXXXXX.......XXXX.......                                                   ",
"                                        .....XX......XXXXXX......XXXXX.......                                                   ",
"                                      .......XXX.....XXXXX......XXXXX........                                                   ",
"                                      ........XXX....X .XX......XXX...........                                                  ",
"                                      .........XXX...X..XX......XXX...........                                                  ",
"                                     ...........XXX..X....X...XXXX...X........                                                  ",
"                                     .....X........XXX....X..XXX.....X..........                                                ",
"                                     .....X........XXX....X..XXX.....X..........                                                ",
"                                   ........XX........X....X..........XXX........                                                ",
"                                   ........XX........X....X..........XXX........                                                ",
"                                  X........XX........X.....XX........XXXXXXXXX....                                              ",
"                                  .........XX......................XXXXX......XX..                                              ",
"                                  .........XX......................XXXXX.......X..                                              ",
"                                  ........XXX.XX..................XXXXXXXXX.......                                              ",
"                                X .....XXXXXX.XX................XXXXX....XXX......                                              ",
"                                XX....XXXXXXX.XX................XXXXX.....XXX.....                                              ",
"                                XX...XXX...XX.XXXX...X........XX...........XX.....                                              ",
"                                X....XXX...X...XXX...X........ X...........XX.....                                              ",
"                                .....X..XXX.....XX...X.......X.............XX.....                                              ",
"                                X.......XXXXX..XXX...X.....XXXXXXXXXX...........X                                               ",
"                                XX......XXXXX.XXXX...X.....++++++ XXX...........XX                                              ",
"                                XXX...XXXXXXXXXXXX...X.....OOOOOOO+XX.........XXXX                                              ",
"                                XXX...XXXXX++XXX..XXX....+OOooooOO+XX........XXXXX                                              ",
"                                XXX...XXXXXOOXXX..XXX....OooooooOO+XX........XXXXX                                              ",
"                                  X..XXXX+O+......X.....@+Oooooo@&#%X......XXXXXXX                                              ",
"                                  X..XXX++O.......X.....@+OOoooo@&#%X......XXXXXXX                                              ",
"                                  X..XXXOO...X....X..XXX@+O$$O$$X&#%X......XXXXXXX                                              ",
"                                  XXXXXX+..XX.....X..XXX@ ++++++X&#%X.....XXXXXXXXX                                             ",
"                                  XXXXXX...XX.....X..XXX@ ...XXX%&-%X.... XXXXXXXXX                                             ",
"                                     X....X.......X..XXX..@..XXX#-XXX...XXXXXXXXXX                                              ",
"                                     XXXX .....XXXX..XXX...  @&-&&X ...XXXXXXXXXXX                                              ",
"                                     XXXXX....XXXXX..XXX...@@@-#XXX...XXXXXXXXXXXX                                              ",
"                                      XXXX...X..XXXXX.XX...XX@XXXXX...XXXXXXXXXXXX                                              ",
"                                       XXX.. XX.XXXXX.XX...X@%&-XXX...XXXXXXXXXXXX                                              ",
"                                        XX.XXXXX..XXX.XX...%%&#*XXX..XXXXXXXXXXXXX                                              ",
"                                        XXX...XX..XXX.XX..%&&&&&#-XXXXXXXXXXXXXXXX                                              ",
"                                        XXX...XX..XXX.XX. %&&&&&*-XXXXXXXXXXXXXXXX                                              ",
"                                          X...XX..XXXXXX. %#=-&&*-XXXXXXXXXXXXXXXX                                              ",
"                                          X.......X  XXX. %#=-&&*-XXXXXXXXXXXXXXXX                                              ",
"                                          X.......X..XXX. %#=-&&*-XXXXXXXXXXXXXXXX                                              ",
"                                          X..X.....XXXXX. %#=-&&*-XXXXXX  XXXXXX                                                ",
"                                          X  XX.....XXXX. %---&&*-XXXXXX  XXXXXX                                                ",
"                                          XXXXXX.....XXX. %&&&&&*-XXXX    XXXXXX                                                ",
"                                           XXXXX.....XXX..X%%&-#& XXXXXX   XXXXX                                                ",
"                                           XXXXX.....XXX..X@%%-#XXXXXXXX   XXXXX                                                ",
"                                           XX XX.....XXX..XXX.XXXXXXX XX   XXXXX                                                ",
"                                          X   XXX....XXX..XXX.XXXXXXX XX   XXXXX                                                ",
"                                          X   XXXX...XXX..XXX.XXXXXXX XX   XXXXX                                                ",
"                                              XXXXX..XXX..XXX.XX   XX        XXX                                                ",
"                                              XXXXX..XXX..XX .XX   XX        XXX                                                ",
"                                              XX  X..XXX..   .XX   XX        X                                                  ",
"                                             X    XXXXXX..   .XX   XX      XXX                                                  ",
"                                             X   XXXXXXX..   .XX   XX      XXX                                                  ",
"                                                XXXXXXXX...  .XX          XXX                                                   ",
"                                                    XXXXX.... ..X       XXXX                                                    ",
"                                                     XXXXX... ..XX      XXX                                                     ",
"                                                                ..                                                              ",
"                                                                .                                                               ",
"                                                                                                                                ",
"                                                                                                                                ",
"                                                                                                                                ",
"                                                                                                                                ",
"                                                                                                                                ",
"                                                                                                                                ",
"                                                                                                                                ",
"                                                                                                                                ",
"                                                                                                                                ",
"                                                                                                                                ",
"                                                                                                                                ",
"                                                                                                                                ",
"                                                                                                                                ",
"                                                                                                                                ",
"                                                                                                                                ",
"                                                                                                                                ",
"                                                                                                                                ",
"                                                                                                                                ",
"                                                                                                                                ",
"                                                                                                                                ",
"                                                                                                                                ",
"                                                                                                                                "
};
