/* XPM */
static char *_328_6bbf2a010627d16be413c9daa5978b38d89e1514047e610e9ca21d4df5bf0440_6[] = {
/* columns rows colors chars-per-pixel */
"128 128 16 1 ",
"  c #3A4041",
". c #6D1823",
"X c #190F20",
"o c #EFECEC",
"O c #C9B8BD",
"+ c #5B5168",
"@ c #0C3F0F",
"# c #63AD45",
"$ c #CEB7B9",
"% c #0F5314",
"& c #116116",
"* c #7EC262",
"= c #85BF13",
"- c #67940F",
"; c #FEFEFE",
": c #AF9DBB",
/* pixels */
"                                                                                                                                ",
"                                                                                                                                ",
"                                                                                                                                ",
"                                                                                                                                ",
"                                                                                                                                ",
"                                                                                                                                ",
"                   ++                                                                                                           ",
"                   ::                                                                                                           ",
"           ::                                                                                                                   ",
"           ++                                                                                                                   ",
"                                                                                                                                ",
"                                                                                                                                ",
"                                                                                                                                ",
"                                                                                                                                ",
"                   ++                                                                                                           ",
"                   ::                                                                                                           ",
"                                                                                                                                ",
"                                                                                                                                ",
"                                                                                                                                ",
"                                :+                                                                                              ",
"                                :+                                                                                              ",
"                                                                                                                                ",
"                                                                                                                                ",
"                                                                                                                                ",
"                                                                                                                                ",
"                                                                                                                                ",
"                                                                                                                                ",
"                                                                                                                                ",
"                           ++                                                                                                   ",
"                           ::                                                                                                   ",
"                           ++           :+                                                                                      ",
"                                        ::                                                                                      ",
"                                                                                                                                ",
"                                                                                                                                ",
"                                                                                                                                ",
"                                                                                                                                ",
"                                                                                                                                ",
"                                                                                                                                ",
"                                                                                                                                ",
"                                                                                                                                ",
"                                                                                                                                ",
"                                                                                                                                ",
"                                                                                                                                ",
"                                                                                                                                ",
"                                                                                                                                ",
"                                                                                                                                ",
"                                                                                                                                ",
"                                                                                                                                ",
"                                                                                                                                ",
"                                                                                                                                ",
"                                                                                                                                ",
"                                                                                                                                ",
"                                                                                                                                ",
"                                                                                                                                ",
"                                                                                                                                ",
"                                                                                                                                ",
"                                                                                                                                ",
"                                                                                                                                ",
"                                                                                                                                ",
"                                                                                                                                ",
"                                                                                                                                ",
"                                                                                                                                ",
"                                                                                                                                ",
"                                                                                                                                ",
"                                                                                                                                ",
"                                                                                                                                ",
"                                                                                                                                ",
"                                                                                                                                ",
"                                                                                                                                ",
"                                                                                                                                ",
"                                                                                                                                ",
"                                                                                                                                ",
"                                                                                                                                ",
"                                                                                                                                ",
"                                                                                                                                ",
"                                                                                                                                ",
"                                                                                                                                ",
"                                                                                                                                ",
"                                                                                                                                ",
"                                                                                                                                ",
"                                                                                                                                ",
"                                                                                                                                ",
"                                                                                                                                ",
"                                                                                                                                ",
"                                                                                                                                ",
"                                                   .............                                                                ",
"                                                ....................                                                            ",
"                                                .....................                                                           ",
"                                              ........................                                                          ",
"                                              .........................                                                         ",
"                                              ..........................                                                        ",
"                                             ...........................                                                        ",
"                                             ...........................                                                        ",
"                                           XXX............................                                                      ",
"                                             XXX....................XXXX..                                                      ",
"                                           ..XXX...................XXXXX..                                                      ",
"                                           ...XXXX............XX..XXXXXX..                                                      ",
"                                           ...XXXX............XX.XXXXXXX..                                                      ",
"                                          ....XXXXXXXXXXXXXXXXXXXXXXXXXX...                                                     ",
"                                          ......XX...XXXXXXXXXXX...XXXXX...                                                     ",
"                                          ......XX...XXXXXXXXXXX...XXXXX...                                                     ",
"                                          ......XX......XX...X.......XXX.....                                                   ",
"                                          ......XXX..X...............XXX.....                                                   ",
"                                          ......XXX..X...............XXX.....                                                   ",
"                                          ......XXXXX.XX..............XXXX...                                                   ",
"                                          ......XXXXX.XX..............XXXX...                                                   ",
"                                          ........XXXXXX........XX...XXXXX...                                                   ",
"                                          ........X..XXX........XX....XXXX...                                                   ",
"                                          ....... X..XXX........XX.....XXX...                                                   ",
"                                          ......XXXXXXXX..........X.....XX.                                                     ",
"                                          ......XXX  XXX...........X....XX.                                                     ",
"                                          ......XXX..XXX...........XX...XX.                                                     ",
"                                          ...XXXXXX..XXX...........XX......                                                     ",
"                                          .. XXXXXX..XXX...........XX......                                                     ",
"                                          .XXXXXXXX..XXX........XX.XX......                                                     ",
"                                          XXXX .XX...XXX........XX.XX@@@                                                        ",
"                                          XXXX..XX...XXX........XX.XX@@@&                                                       ",
"                                          X...XXXXX..XXX......XXXX...@XX#-                                                      ",
"                                          ...XXX.XX..XXX......XXXX...@XX&--                                                     ",
"                                          ...XXX..X..XXX......XXXX...@XXX&#&                                                    ",
"                                          XXXX....XXXXXX...XXX%&&-*&@@-####%X                                                   ",
"                                         XXXXX....XXXXXX...X@---&&#&% &---- X                                                   ",
"                                        XXX.....XX.XXXXX..XX&===&&&&%......XXX                                                  ",
"                                       X.......X...XXXXXXXX%&=#-&&&##XXX.....X                                                  ",
"                                       X.......X...XXXXXXXX%&#--&&&##XXX.....X                                                  ",
"                                      .............XXXXXXXX%&&&&&-*..XXX........                                                ",
"                                      ............XXXXXXXXX%&###@&- XXXXX.......                                                ",
"                                      ............XXXXXXXXX%&***XXXXXXXXXX......                                                "
};
