/* XPM */
static char *_752_208ef1dfdb3cbf74d5aa62915989434abfc43e875bfe3fe1ac1c730898d976b6_2[] = {
/* columns rows colors chars-per-pixel */
"128 128 32 1 ",
"  c #3A4041",
". c #6D1823",
"X c #190F20",
"o c #EFECEC",
"O c #C9B8BD",
"+ c #5B5168",
"@ c #0C3F0F",
"# c #63AD45",
"$ c #CEB7B9",
"% c #0F5314",
"& c #116116",
"* c #7EC262",
"= c #85BF13",
"- c #67940F",
"; c #F7F6F7",
": c #D64F5D",
"> c #C2360F",
", c #D48A19",
"< c #F8F8F8",
"1 c black",
"2 c black",
"3 c black",
"4 c black",
"5 c black",
"6 c black",
"7 c black",
"8 c black",
"9 c black",
"0 c black",
"q c black",
"w c black",
"e c black",
/* pixels */
"                                                                                                                                ",
"                                                                                                                                ",
"                                                                                                                                ",
"                                                                                                                                ",
"                                                                                                                                ",
"                                                                                                                                ",
"                                                                                                                                ",
"                                                                                                                                ",
"                                                                                                                                ",
"                                                                                                                                ",
"                                                                                                                                ",
"                                                                                                                                ",
"                                                                                                                                ",
"                                                                                                                                ",
"                                                                                                                                ",
"                                                                                                                                ",
"                                                                                                                                ",
"                                                                                                                                ",
"                                                     .............                                                              ",
"                                                   ................                                                             ",
"                                                   ................                                                             ",
"                                                  .........XXXXXXX...                                                           ",
"                                                ..............XXXXX...                                                          ",
"                                                ..............XXXXX...                                                          ",
"                                              ..................XXXXX...                                                        ",
"                                              ..................XXXX ...                                                        ",
"                                              ..XX........X.......X   ..                                                        ",
"                                              ..XX........XXX...XXX     .                                                       ",
"                                              ..XX....... XXX...XXX     ..                                                      ",
"                                              ..XXX.....XXXXX.XXXXX       .                                                     ",
"                                              ..XXXXXXXXXXXXX...XXXX                                                            ",
"                                              ..XXXXXXXXXXXXX...XXXXX                                                           ",
"                                              ..XXXXXXXXXXXXX.....XXX                                                           ",
"                                              ..XXXXXXXXXXXXX.....XXX                                                           ",
"                                             ...XXXXXXXXXXXXX.....XXXX                                                          ",
"                                             ..XX+OOOXOOOOXXXX.....XXX                                                          ",
"                                             .XXX+OOOXOOOOXXXX ....XXXX                                                         ",
"                                             .XXXXXXXXXXXXXXXXXX...XXXXX                                                        ",
"                                             .XXXXXXXXXXXXXXXXXX...XXXXX                                                        ",
"                                             .XXXXXXXXXXXXXXXXXX...XXXXX                                                        ",
"                                           ...XXXXXXXXXXXXXXXXXX...XXXXX                                                        ",
"                                            ...XXXXXXXXXXXXXXXXX...XXXXX                                                        ",
"                                          XXX...XXXXXXXXXXXXXX.....XXXXXXX                                                      ",
"                                        ...XX...XXXXXXXXXXXXX.....XXXXXXXX                                                      ",
"                                        ...XX...XXXXXXXXXXXXX.....XXXXXXX                                                       ",
"                                      XX...XX.....XXXXXXXXX.......XXXX....                                                      ",
"                                       ....XXX.....XXXXXXX......XXXXX......                                                     ",
"                                      .....XXX.....XXXXXXX......XXXXX......                                                     ",
"                                     X.......XXX...XXXXX......XXXXX........                                                     ",
"                                     X.......XXX...XXXXX......XXXXX.........                                                    ",
"                                     .........XXXX.XX.XX......XXXX...........                                                   ",
"                                   XX...........XX.XX...X....XXX...XX........                                                   ",
"                                   XX...........XX.XX...XX...XXX...XX........                                                   ",
"                                  XXX.............XXXX..XX.XXX.....XX.........                                                  ",
"                                  XXXXXX.............. X..X........XXX..........                                                ",
"                                  XXXXXX..............XX..X........XXX..........                                                ",
"                              XXXXX.....XX..............XX.XX......XXXXXXXX.....                                                ",
"                              XXXXX.....X...............X..........XXXXXXXX.....                                                ",
"                              XX..................................XXXXXX...XX...                                                ",
"                              XX.............X..................XXXXX.XXX..XX...                                                ",
"                               X.............X..................XXXXX..XXX.XX...                                                ",
"                              .....XXXXXXX...X................XXXXX.....XX........                                              ",
"                              ..........XX...XXX.............X............X.......                                              ",
"                              ..........XX...XXX.............X............X.......                                              ",
"                              ..X ++++++..X...XX...........XX...................XX                                              ",
"                              ..X+++++++..X...XX...........XX...................XX                                              ",
"                              ..X+OOOOOOXX....XX..........XXXXXXXXX...........XXXX                                              ",
"                              ..X*ooooO+XXX...XX..XXX....+OOOOOO+ X..........XXXXX                                              ",
"                              ..X+OOOO+XXXX....X..XXX...+OOOOOOO+ X..........XXXXX                                              ",
"                              ..XXXXXXXXXXX.....XX......ooooooOO+ X........XXXXXXX                                              ",
"                              ..XXXXXXXXXX.....XXX..... OoooooO+-&X.......XXXXXX                                                ",
"                              ..XXXXXXXXXX....XXXX.... @OOoooo*@#-X.......XXXXXX                                                ",
"                              ....XXXXXX.....XXXXX.XXX@@OO$OO$+X#-X.......XXXXXX                                                ",
"                               ...XXXXXX.... XXXXX.XXX@@OO$O**+X#-X......XXXXXXX                                                ",
"                                ..XXXX.....XXXXXXX.XXX@@...XXXXX#-X.....XXXXXXXX                                                ",
"                                ..XXX.XXXXXXX...XX.XXX .@ .XXX&-%@X....XXXXXXXXX                                                ",
"                                ..XXX.XXXXXXX...XX.XXX..@ .XX%--XXX...XXXXXXXXXX                                                ",
"                                ..XXX.XX...XX...XX.XXX....@@&#&XXX...XXXXXXXXXXX                                                ",
"                                ..XXX.XX...XX..XXXX. X.....@%&%XXX...XXXXXXXXXX                                                 ",
"                                ..XXX.XX...XX.XXXXX..X.....@@XXXXX...XXXXXXXXX                                                  ",
"                                  .XX XXXX.XX...XX...X... %&&*-XXX.XXXXXXXXXXX                                                  ",
"                                  .XX  XXX......XX...X..  %&&#--XX.XXXXXXXXXXX                                                  ",
"                                  .XX   XX......XX...X..%%&&&&#*XXXXXXXXXXXXX                                                   ",
"                                  .XX   XX.XX...XX.XXX..%-#--&#*XXXXXXXXXXXXX                                                   ",
"                                  .XX   XX.XX...XX.XXX..%-=--&#*XXXXXXXXXXXXX                                                   ",
"                                  .XX   XX.XX...XX.XXX..%-=--&#*XXXXXXXXXXXXX                                                   ",
"                                   ...  XX.XX...XX.XXX..%-=--&#*XXXXXXXXXXXXX                                                   ",
"                                   ...  XX.XX...XX.XXX..%-=--&#*XXXXXXXXXXXXX                                                   ",
"                                      XXXXXXXX..XX.XXX..%%&&&&#*XXXXX XXXXXXX                                                   ",
"                                      XXXXXXXX..XX.XXX..@%&&&---XXXXX  XXXXXX                                                   ",
"                                      XX  XXXX..XX.XXX..X@%&&*-XXXXXX   XXXXX                                                   ",
"                                     X    X  X.....XXX..XX.X@&@XXXXXXX   XXXXX                                                  ",
"                                     X    X  X ....XXX..XX.XXXXXXXXXXX    XXXXX                                                 ",
"                                          X  XXX...XXX..XX.XXXXXXX    XX  XXXXXX                                                ",
"                                             XXXX..XXX..XX.XXXX XXX         XXXXX                                               ",
"                                             XXXXX.XXX..XX.XXX  XXX          XXXXX                                              ",
"                                             X  XX.XXX..  .XXX     XX           XXX                                             ",
"                                             X  XX.XXX..  .XXX                  XXXX                                            ",
"                                             X  XXXXXX..  .XXX                    XXX                                           ",
"                                                 XXXXX.....  X                                                                  ",
"                                                  XXXX ....  X                                                                  ",
"                                                     XXX...  X                                                                  ",
"                                                         ...                                                                    ",
"                                                          ...                                                                   ",
"                                                           ..                                                                   ",
"                                                           .                                                                    ",
"                                                          .                                                                     ",
"                                                                                                                                ",
"                                                                                                                                ",
"                                                                                                                                ",
"                                                                                                                                ",
"                                                                                                                                ",
"                                                                                                                                ",
"                                                                                                                                ",
"                                                                                                                                ",
"                                                                                                                                ",
"                                                                                                                                ",
"                                                                                                                                ",
"                                                                                                                                ",
"                                                                                                                                ",
"                                                                                                                                ",
"                                                                                                                                ",
"                                                                                                                                ",
"                                                                                                                                ",
"                                                                                                                                ",
"                                                                                                                                ",
"                                                                                                                                ",
"                                                                                                                                "
};
