/* XPM */
static char *_328_6bbf2a010627d16be413c9daa5978b38d89e1514047e610e9ca21d4df5bf0440_5[] = {
/* columns rows colors chars-per-pixel */
"128 128 16 1 ",
"  c #3A4041",
". c #6D1823",
"X c #190F20",
"o c #EFECEC",
"O c #C9B8BD",
"+ c #5B5168",
"@ c #0C3F0F",
"# c #63AD45",
"$ c #CEB7B9",
"% c #0F5314",
"& c #116116",
"* c #7EC262",
"= c #85BF13",
"- c #67940F",
"; c #FEFEFE",
": c #AF9DBB",
/* pixels */
"                                                                                                                                ",
"                                                                                                                                ",
"                                                                                                                                ",
"                                                                                                                                ",
"                                                                                                                                ",
"                                                                                                                                ",
"                                                                                                                                ",
"                                                                                                                                ",
"                                                                                                                                ",
"                                                                                                                                ",
"                                                                                                                                ",
"                                                                                                                                ",
"                                                                                                                                ",
"                                                                                                                                ",
"                                                                                                                                ",
"                                                                                                                                ",
"                                            +:+                                                                                 ",
"                                ++          +:+                                                                                 ",
"                                ::                                                                                              ",
"                                ++                                                                                              ",
"                                                                                                                                ",
"                                                                                                                                ",
"                                                                                                                                ",
"                                                                                                                                ",
"                                                                                                                                ",
"                                                                                                                                ",
"                                                                                                                                ",
"                                                 +:+                                                                            ",
"                                                 +:+                                                                            ",
"                                                                                                                                ",
"                                        :+                                                                                      ",
"                                        ::                                                                                      ",
"                                                                                                                                ",
"                                                   ++                                                                           ",
"                                                   ::                                                                           ",
"                                                   ++                                                                           ",
"                                           ++                                                                                   ",
"                                           ::                                                                                   ",
"                                           ++       +:+                                                                         ",
"                                                    +:+                                                                         ",
"                                                ::  +;:                                                                         ",
"        ++                                      :::++O:                                                                         ",
"        ::                                       :;+                                                                            ",
"        ++                                       +++                                                                            ",
"                                                                                                                                ",
"                                                                                                                                ",
"                                                                                                                                ",
"                                                                                                                                ",
"                           ::                                                                                                   ",
"                           ++                                                                                                   ",
"                                                                                                                                ",
"                            +o:                                                                                                 ",
"                            +o:                                                                                                 ",
"                                                                                                                                ",
"                                                                                                                                ",
"                                                                                                                                ",
"                                                                                                                                ",
"                                                                                                                                ",
"                                                                                                                                ",
"                                                                                                                                ",
"                                                                                                                                ",
"                                                                                                                                ",
"                                                                                                                                ",
"                                                                                                                                ",
"                                                                                                                                ",
"                                                                                                                                ",
"                                                                                                                                ",
"                                                                                                                                ",
"                                                                                                                                ",
"                                                     XXXXXXXXXXXXXX                                                             ",
"                                                XXXXXXX..........XXXXX                                                          ",
"                                                XXXXXX............XXXX                                                          ",
"                                              XXXX......................                                                        ",
"                                               XX.......................                                                        ",
"                                           ................................                                                     ",
"                                          ..............................XXXXX                                                   ",
"                                         ...............................XXXXX                                                   ",
"                                        .............................XXX...XXX                                                  ",
"                                        XXX.......................XXXXX..... X                                                  ",
"                                        XXX.......................XXXX.......X                                                  ",
"                                        ...XXXXXXXX.............XXXXXX........                                                  ",
"                                        ....XXXXXXX.............XXXXXX........                                                  ",
"                                        ......XX...XXXXXXXXXXXXXXXXXXX........                                                  ",
"                                        ...XX.XX......XXXXXXXXXXXXXXXX..X.....                                                  ",
"                                        ...XX.XX.......XXXXXXXXXXXXXXX .XX....                                                  ",
"                                        ...XX.XXXX......XXX..X....XXXXXXXX....                                                  ",
"                                        ........XX......XX...X.....XXXXX......                                                  ",
"                                        ........XX......XX...X.....XXXXX......                                                  ",
"                                        ..XXXXXXXX......XX...X.......XXX......                                                  ",
"                                        ..XXXXXXXX......XX...X.......XXX......                                                  ",
"                                        XX....XXXX......XX............XX......                                                  ",
"                                        ..XXXXXX......................XX.....X                                                  ",
"                                        . XXXXXX.......................X.....X                                                  ",
"                                        XXX.......X..........................X                                                  ",
"                                        XX........X..X.......................X                                                  ",
"                                        XX........X..X.......................X                                                  ",
"                                        XX........X..X...............X.......X                                                  ",
"                                        XX.......XX..X...............XX......XX                                                 ",
"                                        XX......XXX..X...............XXX.....XXX                                                ",
"                                        XX......XXX..X...............XXX......XX                                                ",
"                                        XX......XXX..X...............XXX......XX                                                ",
"                                        XXX..X..XXXXX.XX..............XXXX...X                                                  ",
"                                          .XXX...XXXX.XX..............XXXXXXXX                                                  ",
"                                          .XXX....XXX.XX..............XXXXXXXX                                                  ",
"                                          ...X....XXX.XX..............XXXXX                                                     ",
"                                          ...X....XXX.XX..............XXXXX                                                     ",
"                                          X..X....XXXXXX.............XXXXXX                                                     ",
"                                          X..X....X..XXX@@@@@@@@---..XXXXXX                                                     ",
"                                          X..X....X..XXX@@@@@@@@-##..XXXXXX                                                     ",
"                                          XXXX....XXXXXX@ .......-#..X  XXX                                                     ",
"                                           XXX....X  XXX@ .......-# X   XX                                                      ",
"                                           XXX....X..XXX@ .......-#%X   XX                                                      ",
"                                             X....X..XXX..@.....#-.XX XXXX                                                      ",
"                                             X...XX..XXX..  .. --&.XX XXX                                                       ",
"                                             X..XXX..XXX...@@@-#XX.XX XX                                                        ",
"                                             X..XX...XXX.....@ .XX.XXXXX                                                        ",
"                                             X..XX...XXX.....@ .XX.XXXXX                                                        ",
"                                             .XXXXX..XXX..X%%&#*XX.  X                                                          ",
"                                                 XX..XXX..@%&&&---. XX                                                          ",
"                                                  X..XXX. %&&&&&*-.XXX                                                          ",
"                                                  XXXXXX. %#=-&&*-.XXX                                                          ",
"                                                  XXXXXX. %#=-&&*-.XXX                                                          ",
"                                                   XXXXX. %#=-&&*-XXXX                                                          ",
"                                                   XXXXX. %#=-&&*-XXXXXX                                                        ",
"                                                   XXXXX. %-#-&&*-XXXXXX                                                        ",
"                                                  XXXXXX. %&&&&&*-X  XXX                                                        ",
"                                                  XXXXXX..@%&&-#-&XXXXXXX                                                       ",
"                                                  XXXXXX..X%%&#*XXXXXXXXXX                                                      "
};
