/* XPM */
static char *_328_6bbf2a010627d16be413c9daa5978b38d89e1514047e610e9ca21d4df5bf0440_3[] = {
/* columns rows colors chars-per-pixel */
"128 128 16 1 ",
"  c #3A4041",
". c #6D1823",
"X c #190F20",
"o c #EFECEC",
"O c #C9B8BD",
"+ c #5B5168",
"@ c #0C3F0F",
"# c #63AD45",
"$ c #CEB7B9",
"% c #0F5314",
"& c #116116",
"* c #7EC262",
"= c #85BF13",
"- c #67940F",
"; c #FEFEFE",
": c #AF9DBB",
/* pixels */
"                                                                                                                                ",
"                                                                                                                                ",
"                                                                                                                                ",
"                                                                                                                                ",
"                                                                                                                                ",
"                                                                                                                                ",
"                                                                                                                                ",
"                                                                                                                                ",
"                                                                                                                                ",
"                                                                                                                                ",
"                                                                                                                                ",
"                                                                                                                                ",
"                                                                                                                                ",
"                                                                                                                                ",
"                                                                                                                                ",
"                                                                                                                                ",
"                                                                                                                                ",
"                                                                                                                                ",
"                                                                                                                                ",
"                                                                                                                                ",
"                                                                                                                                ",
"                                                                                                                                ",
"                                                                                                                                ",
"                                                                                                                                ",
"                                                                                                                                ",
"                                                                                                                                ",
"                                                                                                                                ",
"                                         +:+                                                                                    ",
"                                         +:+         +                                                                          ",
"                                                    +:+                                                                         ",
"                                                     ++                                                                         ",
"                                                                                                                                ",
"                                                                                                                                ",
"                                                      ++                                                                        ",
"                                                      ::                                                                        ",
"                                                :+    ++                                                                        ",
"                                                :+      ++                                                                      ",
"                                                        ::                                                                      ",
"                                                        ++                                                                      ",
"                                                                                                                                ",
"                                                 +:+  .....XXXXXXX                                                              ",
"                                                 +:+ ++...+.XXXXXX                                                              ",
"                                                    +:+..+:+.XXXXXX                                                             ",
"                                                   .+:+...+.....XXXXX                                                           ",
"                                                   .+:+...+.....XXXXX                                                           ",
"                                                  ..+:+..+:+......XXXX                                                          ",
"                                                ....+:::.+:+.......XX.XX                                                        ",
"                                                ....+:::.+:+.......XX.XX                                                        ",
"                                                ......O;.:;O:.....XXX...                                                        ",
"                                                .....+O;.:;O:.....XXX...                                                        ",
"                                              ....X.+:o;.:;O:X.....XXX....                                                      ",
"                                             .....XX+::+::+::X.......XXXX                                                       ",
"                                             .... XX :++::+::X.......XXXXX                                                      ",
"                                             ...XXXXXX+::::+XX..........XX                                                      ",
"                                            ...XXXXXXX+++++ XXXXXXX.....XX                                                      ",
"                                           ...XXXXXXXXXXXXXXXXXXXXX.....XX                                                      ",
"                                           ..X+:..XXXXXXXXXXXXXX...XX...XXX                                                     ",
"                                           ..X+:..XXXXXXXXXXXXXX........XXXX                                                    ",
"                                          ........XXXXXXXXXXXX........XXXXXXX                                                   ",
"                                          .........XXXXXXXXXX.....XXXXXX.....                                                   ",
"                                          .........XXXXXXXXXX.....XXXXXX.....                                                   ",
"                                          ....XXXX...X..XX........X..........                                                   ",
"                                        ........++X..X....X...................                                                  ",
"                                        ........:+X..X....X...................                                                  ",
"                                        ...........XXX....X..........X........                                                  ",
"                                        ...........XXX...++..........X.........                                                 ",
"                                        ...........XXX...+:+.........X..........                                                ",
"                                       ....XX.....X...+:..+OO........X..........                                                ",
"                                      .....XX.....X...+:+++oo........X..........                                                ",
"                                      .....XX...........:O;O:........X..........                                                ",
"                                      .....XX..X........oO:oO........X..........                                                ",
"                                      .....XX.XX........;O.oo........X..........                                                ",
"                                      .....XX.XX.....................X..XX......                                                ",
"                                      .....XX.XX.....................XX.XX......                                                ",
"                                      .....XX.XXXX...................XXXXX......                                                ",
"                                      ..........XX.XX..............XXXXX........                                                ",
"                                      ..........X..XX..............XXXXX........                                                ",
"                                      .............XX..............XX...........                                                ",
"                                      ..........X..XX..............XX..........X                                                ",
"                                      ..........XX.XX..............XX.........XX                                                ",
"                                      .....XX.....XXX..............XX........XXX                                                ",
"                                      .....X.....XXX...............XX........XXX                                                ",
"                                      ....X.....XXX................XXX.......X                                                  ",
"                                       XXX.....XXXX..XXX.............XXX.....X                                                  ",
"                                      XXX.....XXXXX..XXX.............XXX.....X                                                  ",
"                                      XX.....XXX..X..XXX@@@@@@@@###..XXXXX...                                                   ",
"                                      XXXXXXX.....X..XXX@@......--#..XXXXX..                                                    ",
"                                      XXXXXXX.....X..XXX@ .......-#..XXXXX.XX                                                   ",
"                                        XXX..........XXX@ .......-#..XXXXX.XX                                                   ",
"                                        XXX..........XXX  ......---..XXXXX.XX                                                   ",
"                                        XX.........XX.XX..@.....#-....XXXXXXX                                                   ",
"                                          X........XX.XX... @@--% ....XXXXXXX                                                   ",
"                                          X........XX.XX... @@--X.....XXXXXXX                                                   ",
"                                          X........XX.XX.....@........XXXXX                                                     ",
"                                          XXXX.....XXXXX...  %--.....XXXXXX                                                     ",
"                                          XXXX.....XXXXX...%%&#*.....XXXXXX                                                     ",
"                                           XXX.......XXX. %&&&&&*-...XXXXXX                                                     ",
"                                           XXX...... XXX. %--&&&*-...XXXXXX                                                     ",
"                                           XXX.....XXXXX. %#=-&&*-...X  XXX                                                     ",
"                                             XXX..X..XXX. %#=-&&*-XXX   XX                                                      ",
"                                             XXX..X..XXX. %#=-&&*-XXX   XX                                                      ",
"                                             XXX..X..XXX. %#=-&&*-XXX XXXX                                                      ",
"                                              XX.....XXX. %--&&&*-XXX XX                                                        ",
"                                              XX.....XXX. %&&&&&*-XXX XX                                                        ",
"                                                XX...XXX..X%%&#*XXXXXXXX                                                        ",
"                                                XX...XXX..X  %--XXXXXXXX                                                        ",
"                                                XXX..XXX..X..XXX  X  X                                                          ",
"                                                 XX..XXX.. ..XXXXX XXX                                                          ",
"                                                  X..XXX.. ..XXXX  XXX                                                          ",
"                                                  XXXXXX.. ..XXX   XXX                                                          ",
"                                                   XXXXX..... XX  XXX                                                           ",
"                                                   XXXXX..... XX  XXX                                                           ",
"                                                      XXXX... XX                                                                ",
"                                                       XX ...  X                                                                ",
"                                                           ...                                                                  ",
"                                                             .                                                                  ",
"                                                             .                                                                  ",
"                                                           ..                                                                   ",
"                                                                                                                                ",
"                                                                                                                                ",
"                                                                                                                                ",
"                                                                                                                                ",
"                                                                                                                                ",
"                                                                                                                                ",
"                                                                                                                                ",
"                                                                                                                                ",
"                                                                                                                                ",
"                                                                                                                                "
};
