/* XPM */
static char *_752_208ef1dfdb3cbf74d5aa62915989434abfc43e875bfe3fe1ac1c730898d976b6_7[] = {
/* columns rows colors chars-per-pixel */
"128 128 32 1 ",
"  c #3A4041",
". c #6D1823",
"X c #190F20",
"o c #EFECEC",
"O c #C9B8BD",
"+ c #5B5168",
"@ c #0C3F0F",
"# c #63AD45",
"$ c #CEB7B9",
"% c #0F5314",
"& c #116116",
"* c #7EC262",
"= c #85BF13",
"- c #67940F",
"; c #F7F6F7",
": c #D64F5D",
"> c #C2360F",
", c #D48A19",
"< c #F8F8F8",
"1 c black",
"2 c black",
"3 c black",
"4 c black",
"5 c black",
"6 c black",
"7 c black",
"8 c black",
"9 c black",
"0 c black",
"q c black",
"w c black",
"e c black",
/* pixels */
"                                                                                                                                ",
"                                                                                                                                ",
"                                                                                                                                ",
"                                                                                                                                ",
"                                                                                                                                ",
"                                                                                                                                ",
"                                                                                                                                ",
"                                                                                                                                ",
"                                                                                                                                ",
"                                                                                                                                ",
"                                                                                                                                ",
"                                                                                                                                ",
"                                                                                                                                ",
"                                                                                                                                ",
"                                                                                                                                ",
"                                                                                                                                ",
"                                                                                                                                ",
"                                                                                                                                ",
"                                                                                                                                ",
"                                                                                                                                ",
"                                                      ....                                                                      ",
"                                                      >::>.........                                                             ",
"                           ..                       .>::>...........                                                            ",
"                           >>                       .:::.............                                                           ",
"                                                   >>........XXXXXX...                                                          ",
"                           ..                    ..>>........XXXXXX ...                                                         ",
"                           ,,                    .:.............XXXXX...                                                        ",
"                           ..                   >:::>............ XXXX...                                                       ",
"                                                ::>:>.............XXXX....                                                      ",
"                                                :>X>>......XX......XX.....                                                      ",
"                                                :>X>>......XXX....XXX   ..                                                      ",
"                                                :>X>>......XXX....XXX   ..                                                      ",
"                                                :>XX.:>...XXXX..XXXXX   ..                                                      ",
"                                                :>XX.>...XXXXX..XXXXX   ..                                                      ",
"                                                :>XXXXXXXXXXXX....XXXX  ..                                                      ",
"                                >.              :>XXXXXXXXXXXX.....XXX  ..                                                      ",
"                                >>            ..:>XXXXXXXXXXXX.....XXXX .                                                       ",
"                                ,>            >::>XXXXXXXXXXXX.....XXXXX                                                        ",
"                                ..            >:..XOOO+XOOO+XXXX.... XXX                                                        ",
"                                              >:XXXOooOXooo+XXXX.....XXX                                                        ",
"                                              >:XXXXXXXXXXXXXXXXXX...XXXXX                                                      ",
"                              ..              >:XXXXXXXXXXXXXXXXXX...XXXXX                                                      ",
"                              .>              >:XXXXXXXXXXXXXXXXXX...XXXXX                                                      ",
"                            .>..              >:XXXXXXXXXXXXXXXXXX...XXXXX                                                      ",
"                            .>...            .>:XXXXXXXXXXXXXXXXX....XXXXX                                                      ",
"                              .>>.          .:::..XXXXXXXXXXXXXX.....XXXXXX                                                     ",
"                             .>,,>.         .:>>..XXXXXXXXXXXXX.....XXXXXXX                                                     ",
"                            .>,,,,>.        .:>...XXXXXXXXXXXX.....XXXXXXXX                                                     ",
"                            .,,,<$>.       X.:>....XXXXXXXXXX......XXX....XXX                                                   ",
"                           ..,$$$$>.     .. .>>>....XXXXXXXX.......XXX....XX                                                    ",
"                           >>,$<,,>.     .:.XX>:.....XXXXXX.......XXXX.......                                                   ",
"                           >>>$<,,>.    >::>>X.......XXXXX......XXXXX.........                                                  ",
"                           >>>$o,>>.    ::::>XXX.....XXXXX......XXXXX..........                                                 ",
"                            .>>>>.    XX:::...XXXX...X..XX......XXX.............                                                ",
"                             .....   XXX.>:.....XXX..X....X....XXX...X..........                                                ",
"                                     XXXX.:.....XXX..X....X...XXXX...X..........                                                ",
"                                   XXXXXXXX........XXX....X..XXX.....XXX..........                                              ",
"                            +OOO++ ....XXXX.........XX....X..XXX.....XXX..........                                              ",
"                            +ooo$*X>::>...X..........X....X..........XXX..........                                              ",
"                            +$oooOO::......XX........X....X...........XXXXXXXX....                                              ",
"                            +$oooo$:>......XX........X....X...........XXXXXXXX....                                              ",
"                            +$ooooo+++.....XX.............X..........XXXXXX...XX...                                             ",
"                            ++OOOOO+  .....XX..X....................XXX..XXX.......                                             ",
"                              OOOO+XXX.....XX.XX...................XXX....XXX......                                             ",
"                                  .XXX.....XX.XX................XXXXX......XX......                                             ",
"                                  .XXX.........X................XXXX.......XX......                                             ",
"                                  .XXX..........XX.XX.........XX...........XX......                                             ",
"                                  .XXX.........XXX.XX........X....................X                                             ",
"                                  .XXX........XXXX.XX......++++++................ X                                             ",
"                                  .XXX....X...XXXX.XX......OOOOOOO+XX...........XXX                                             ",
"                                  .XXX....X...XX..XXX....+OOooooOO+XX..........XXXX                                             ",
"                                  .XXX....X...XX..XXX....OooooooOO+XX.........XXXXX                                             ",
"                                  .XX.....X...XX..X.....@+Oooooo@&#%X........XXXXXX                                             ",
"                                  .XX....XX....X..X.....@+OOoooo@&#%X....... XXXXXX                                             ",
"                                  .XX...XXX........XXXXX@ .$$O$$X&#%X......XXXXXXX                                              ",
"                                  .XX...XXXXX......XX...@ ..++++X&#%X......XXXXXXX                                              ",
"                                  .XX...XXXXX......XX...@ ...XXX%&-%X......XXXXXXX                                              ",
"                                   XX...XXXXX...XX.XX.XX..@..XXX#-XXX.....XXXXXXXX                                              ",
"                                    .X..XXXXXXXXXX.XX.XX...  @&-&&XXX...XXXXXXXX                                                ",
"                                   ..X..XXXXXXXXXX.XX.XX...@@@-#XXXXX...XXXXXXXX                                                ",
"                                   ..X..XXXXXXXX......XX.....@XXXXX...XXXXXXXXXX                                                ",
"                                   ..X..XXXXXXXX......XX.... %&-XXX...XXXXXXXXXX                                                ",
"                                   ..X....XXX.........XX...%%&#*XXX...XXXXXXXXXX                                                ",
"                                   ..   ..XXXX.......X....%&&&&&#-X..XXXXXXXXXX                                                 ",
"                                   ..   ..XXXX ......X... %&&&&&*-X..XXXXXXXXX                                                  ",
"                                   ..   .. XXXXX.....X... %#=-&&*-XXXXXXXXXXXX                                                  ",
"                                   ..   ..  XXXX....XX... %#=-&&*-XXXXXXXXXXXX                                                  ",
"                                   ..   ..   XXX...XXX... %#=-&&*-XXXXXXXXXXXX                                                  ",
"                                   ..   ..   XXX...XXXXX. %#=-&&*-XXXXXXXXXXXX                                                  ",
"                                   ..   ..   XXX...XXXXX. %---&&*-XXXXXXXXXXXX                                                  ",
"                                   ..   ..    XX...XX.XX. %&&&&&*-XXXX  XXXXXX                                                  ",
"                                   ..         XX...XXXXX..X%%&-#& XXXX   XXXXX                                                  ",
"                                   ..         XX...XXXXX..X@%%-#XXXXXX    XXXX                                                  ",
"                                   ..         XXXX.XX.XX..X..XXXXXXXXX     XXX                                                  ",
"                                              XXXX.XX.XX..X..XXXXXXXXX     XXX                                                  ",
"                                              XXXX.XX.XX..X..XXXXXXXXX     XXX                                                  ",
"                                                XX....XX..X..XXXXXX  X     XXX                                                  ",
"                                                XX....XX..X..XXXXXX  X     XXX                                                  ",
"                                                  X...XX..X..XXX  X  X     XXX                                                  ",
"                                                  XXX.XX.. ..XXX           XX                                                   ",
"                                                  XXX.XX.. ..XXX           XX                                                   ",
"                                                   XX.XX.. ..XXX           XX                                                   ",
"                                                   XXXXX..... XX          XXX                                                   ",
"                                                   XXXXX..... XX          XXX                                                   ",
"                                                     XXXXX... XX          X                                                     ",
"                                                     XXXX ...  X          X                                                     ",
"                                                           ...                                                                  ",
"                                                             .                                                                  ",
"                                                             .                                                                  ",
"                                                           ..                                                                   ",
"                                                                                                                                ",
"                                                                                                                                ",
"                                                                                                                                ",
"                                                                                                                                ",
"                                                                                                                                ",
"                                                                                                                                ",
"                                                                                                                                ",
"                                                                                                                                ",
"                                                                                                                                ",
"                                                                                                                                ",
"                                                                                                                                ",
"                                                                                                                                ",
"                                                                                                                                ",
"                                                                                                                                ",
"                                                                                                                                ",
"                                                                                                                                ",
"                                                                                                                                ",
"                                                                                                                                "
};
