/* XPM */
static char *_328_6bbf2a010627d16be413c9daa5978b38d89e1514047e610e9ca21d4df5bf0440_4[] = {
/* columns rows colors chars-per-pixel */
"128 128 16 1 ",
"  c #3A4041",
". c #6D1823",
"X c #190F20",
"o c #EFECEC",
"O c #C9B8BD",
"+ c #5B5168",
"@ c #0C3F0F",
"# c #63AD45",
"$ c #CEB7B9",
"% c #0F5314",
"& c #116116",
"* c #7EC262",
"= c #85BF13",
"- c #67940F",
"; c #FEFEFE",
": c #AF9DBB",
/* pixels */
"                                                                                                                                ",
"                                                                                                                                ",
"                                                                                                                                ",
"                                                                                                                                ",
"                                                                                                                                ",
"                                                                                                                                ",
"                                                                                                                                ",
"                                                                                                                                ",
"                                                                                                                                ",
"                                                                                                                                ",
"                                                                                                                                ",
"                                                                                                                                ",
"                                                                                                                                ",
"                                                                                                                                ",
"                                                                                                                                ",
"                                                                                                                                ",
"                                                                                                                                ",
"                                                 ++                                                                             ",
"                                                 +:+                                                                            ",
"                                           ::     +                                                                             ",
"                                           ::                                                                                   ",
"                                                                                                                                ",
"                                                                                                                                ",
"                                                                                                                                ",
"                                           ::      ::                                                                           ",
"                                           ++      ++                                                                           ",
"                                                                                                                                ",
"                                            +:+                                                                                 ",
"                                            +:+                                                                                 ",
"                                                                                                                                ",
"                                                   ++                                                                           ",
"                                                   ::                                                                           ",
"                                              ::                                                                                ",
"                                             +::++ ++++                                                                         ",
"                                            +::::: :::+                                                                         ",
"                                            +:::++ ++:::                                                                        ",
"                                            +:::++  +:::                                                                        ",
"                                              ::::    ::                                                                        ",
"                                              ++::    ::                                                                        ",
"                                                ::    ::                                                                        ",
"                                                      ::                                                                        ",
"                                                 +:+++:O                                                                        ",
"                                                 :;O::o;                                                                        ",
"                                                 ++oo:OOoO                                                                      ",
"                                                  +Oo:::oO                                                                      ",
"                                                 +:++:+ ::                                                                      ",
"                                                 ++  ++ ++                                                                      ",
"                                                                                                                                ",
"                                                   :: ::                                                                        ",
"                                                   ++ +:                                                                        ",
"                                                                                                                                ",
"                                                                                                                                ",
"                                                                                                                                ",
"                                                                                                                                ",
"                           ++                       ........ XXX                                                                ",
"                           ::                      ..........XXX                                                                ",
"                                                  ............XXXX                                                              ",
"                                         ++      ..............XXX                                                              ",
"                                         +:+  ....................XXX                                                           ",
"                                          +  ........................XXX                                                        ",
"                                         +++ ........................XXX                                                        ",
"                                         :;+ ...........................XX                                                      ",
"                                 +:+     +:+...XX...............XXX.....XX                                                      ",
"                                 +:+       ...XXXX..............XXX.....XX                                                      ",
"                                   oo      ..X....X...........XXXX.XX...XXX                                                     ",
"                                   OO      ..X....X ..........XXXX......XXX                                                     ",
"                                          ........XXXX.......XXXXX......XXX                                                     ",
"                                          ........XXXXXXXXXXXXXXXX.....XXXX..                                                   ",
"                                          ........XXXXXXXXXXXXXXX.....XXXXX..                                                   ",
"                                          XXX......XXXXXXXXXXXXX.....XXX.....                                                   ",
"                                          .XXXXX......XXXXXXXXX...XXXXX......                                                   ",
"                                          .XXXXX......XXXXXXXX....XXXX.......                                                   ",
"                                        ...XX.XXXXX.............XX...X.......                                                   ",
"                                        ...XX.XXXXX.............X....X.......                                                   ",
"                                        ...XX.XX...XX.XX.............X.......                                                   ",
"                                        ...XX.XX......XXX....X.......X..X.....                                                  ",
"                                        ...XX.XX.......XXX...X.......X .XX....                                                  ",
"                                        ...XX.XXXX......XX...X.......XXXXX....                                                  ",
"                                        ........XX......XX...X......XXXX......                                                  ",
"                                        ........XX.XX...XX...X.....XXXXX......                                                  ",
"                                        ..XXXXXXXX.XX........X.....XX.........                                                  ",
"                                        ..XXXXXXXX.XX........X.....XX.........                                                  ",
"                                        XX....XXXX.XX..............XX.........                                                  ",
"                                        ..XXXXXX..XXX..............XX........X                                                  ",
"                                        . XXXXXX..XXX..............XX........X                                                  ",
"                                        XXX.......X................XXX.......X                                                  ",
"                                        XX.....X..X..XXX............ XXX.....X                                                  ",
"                                        XX....XX..X..XXX.............XXX.....X                                                  ",
"                                        ......XXXXX..XXX.............XXXXX...                                                   ",
"                                        ......XXXXX..XXX.............XXXXX..                                                    ",
"                                        ......XXXXX..XXX.............XXXXX.XX                                                   ",
"                                        ........XXX..XXX.............XXXXX.XX                                                   ",
"                                        ........XXX..XXX.............XXXXX.XX                                                   ",
"                                        .....X..XXXXX.XX..............XXXXXXX                                                   ",
"                                         ...XX...XXXX.XX..............XXXXXXX                                                   ",
"                                          .XXX....XXX.XX..............XXXXXXX                                                   ",
"                                           ..X....XXX.XX@@@@@@@@###...XXXXX                                                     ",
"                                           ..X....XXX.XX@@      --#...XXXXX                                                     ",
"                                           ..X....XXXXXX@ .......-#..XXXXXX                                                     ",
"                                             X....X..XXX@ .......-#..XXXXXX                                                     ",
"                                             X....X..XXX@ .......--..XXXXXX                                                     ",
"                                             X....XXXXXX..@.....#-...X  XXX                                                     ",
"                                             XXX..X  XXX...   &-& ..X   XX                                                      ",
"                                             XXX..X..XXX...@@@-#XX.XX   XX                                                      ",
"                                             XXX..X..XXX.....@.....XX XXXX                                                      ",
"                                             XXX..X..XXX.... %&-...XX XXX                                                       ",
"                                              XX.....XXX...%%&#*...XX XX                                                        ",
"                                                X....XXX..%&&&&&#-.XXXXX                                                        ",
"                                                XX...XXX. %&&&&&*-.XXXXX                                                        ",
"                                                XXX..XXX. %#=-&&*-.  X                                                          ",
"                                                 XX..XXX. %#=-&&*-XXXX                                                          ",
"                                                  X..XXX. %#=-&&*-XXXX                                                          ",
"                                                  XXXXXX. %#=-&&*-XXXX                                                          ",
"                                                  XXXXXX. %---&&*-XXXX                                                          ",
"                                                   XXXXX. %&&&&&*-XXX                                                           ",
"                                                      XX..X%%&-#& X                                                             ",
"                                                       X. X@%%-#XXX                                                             ",
"                                                           ...                                                                  ",
"                                                            ..                                                                  ",
"                                                             .                                                                  ",
"                                                           ..                                                                   ",
"                                                                                                                                ",
"                                                                                                                                ",
"                                                                                                                                ",
"                                                                                                                                ",
"                                                                                                                                ",
"                                                                                                                                ",
"                                                                                                                                "
};
