/* XPM */
static char *_752_208ef1dfdb3cbf74d5aa62915989434abfc43e875bfe3fe1ac1c730898d976b6_0[] = {
/* columns rows colors chars-per-pixel */
"128 128 32 1 ",
"  c #3A4041",
". c #6D1823",
"X c #190F20",
"o c #EFECEC",
"O c #C9B8BD",
"+ c #5B5168",
"@ c #0C3F0F",
"# c #63AD45",
"$ c #CEB7B9",
"% c #0F5314",
"& c #116116",
"* c #7EC262",
"= c #85BF13",
"- c #67940F",
"; c #F7F6F7",
": c #D64F5D",
"> c #C2360F",
", c #D48A19",
"< c #F8F8F8",
"1 c black",
"2 c black",
"3 c black",
"4 c black",
"5 c black",
"6 c black",
"7 c black",
"8 c black",
"9 c black",
"0 c black",
"q c black",
"w c black",
"e c black",
/* pixels */
"                                                                                                                                ",
"                                                                                                                                ",
"                                                                                                                                ",
"                                                                                                                                ",
"                                                                                                                                ",
"                                                                                                                                ",
"                                                                                                                                ",
"                                                                                                                                ",
"                                                                                                                                ",
"                                                                                                                                ",
"                                                                                                                                ",
"                                                                                                                                ",
"                                                                                                                                ",
"                                                                                                                                ",
"                                                                                                                                ",
"                                                                                                                                ",
"                                                                                                                                ",
"                                                                                                                                ",
"                                                                                                                                ",
"                                                                                                                                ",
"                                                                                                                                ",
"                                                      .............                                                             ",
"                                                     ...............                                                            ",
"                                                     ................                                                           ",
"                                                   ..........XXXXXX...                                                          ",
"                                                   ..........XXXXXX ...                                                         ",
"                                                  ..............XXXXX...                                                        ",
"                                                ................. XXXX..                                                        ",
"                                                ..................XXXX..                                                        ",
"                                                ..X........XX......XX...                                                        ",
"                                                ..X........XXX....XXX ..                                                        ",
"                                                ..X........XXX....XXX ..                                                        ",
"                                                ..XXX.....XXXX..XXXXX ..                                                        ",
"                                                ..XXX....XXXXX..XXXXX ..                                                        ",
"                                                ..XXXXXXXXXXXX....XXXX..                                                        ",
"                                                ..XXXXXXXXXXXX.....XXX..                                                        ",
"                                                ..XXXXXXXXXXXX.....XXX .                                                        ",
"                                              ....XXXXXXXXXXXX.....XXXXX                                                        ",
"                                              ..XXXOOO+XOOO+XXXX.... XXX                                                        ",
"                                              ..XXXOooOXooo+XXXX.....XXX                                                        ",
"                                              ..XXXXXXXXXXXXXXXXXX...XXXXX                                                      ",
"                                              ..XXXXXXXXXXXXXXXXXX...XXXXX                                                      ",
"                                              ..XXXXXXXXXXXXXXXXXX...XXXXX                                                      ",
"                                              ..XXXXXXXXXXXXXXXXXX...XXXXX                                                      ",
"                                              ..XXXXXXXXXXXXXXXXX....XXXXX                                                      ",
"                                             .....XXXXXXXXXXXXXX.....XXXXXX                                                     ",
"                                             .....XXXXXXXXXXXXX.....XXXXXXX                                                     ",
"                                             .....XXXXXXXXXXXX.....XXXXXXXX                                                     ",
"                                             ......XXXXXXXXXX......XXXXX.....                                                   ",
"                                             .......XXXXXXXX.......XXXXX.....                                                   ",
"                                           XXX.......XXXXXX.......XXXX.......                                                   ",
"                                          ...XXX.....XXXXX......XXXXX.........                                                  ",
"                                          ...XXX.....XXXXX......XXXXX..........                                                 ",
"                                          ....XXXX...X..XX......XXX.............                                                ",
"                                        ........XXX..X....X....XXX...X..........                                                ",
"                                        ........XXX..X....X...XXXX...X..........                                                ",
"                                        ...........XXX....X..XXX.....X............                                              ",
"                                        ...........XXX....X..XXX.....XX...........                                              ",
"                                      .............XXX....X..........XXX..........                                              ",
"                                     ......XX.....X.......X..........XXXXXXXXX....                                              ",
"                                     ......XX.....X.......X..........XXXXXXXXX....                                              ",
"                                     ......XX.............X........XXXXXXXX...XX...                                             ",
"                                    .......XX..X..................XXXXX..XXX.......                                             ",
"                                   ........XX.XX..................XXXX....XXX......                                             ",
"                                   ........XX.XX................XXXXX......XX......                                             ",
"                                   ........XX.XX................XXXX.......XX......                                             ",
"                                   ........XX.XXXX............XX...........XX......                                             ",
"                                   .............XX.XX........X....................X                                             ",
"                                   .............XX.XX......++++++................ X                                             ",
"                                   .......XXXXXXXX.XX......OOOOOOO+XX...........XXX                                             ",
"                                    ....X ....XXXX.XX....+OOooooOO+XX..........XXXX                                             ",
"                                     ...XX....XXXX.XX....OooooooOO+XX.........XXXXX                                             ",
"                                     .XX..XXXXXX..XXX...@+Oooooo@&#%X........XXXXXX                                             ",
"                                     ..X.XXXXXXX..XX....@+OOoooo@&#%X....... XXXXXX                                             ",
"                                     ...XXX.......X.....@+O$$O$$X&#%X......XXXXXXX                                              ",
"                                     ..XXX.....X..X..XXX@ ++++++X&#%X......XXXXXXX                                              ",
"                                     .XXX.....XX. X..XXX@ ...XXX%&-%X......XXXXXXX                                              ",
"                                      XX......XXXXX..XXX..@..XXX#-XXX.....XXXXXXXX                                              ",
"                                     X .......XXXXX..XXX...  @&-&&XXX...XXXXXXXX                                                ",
"                                     X........XXXXX..XXX...@@@-#XXXXX...XXXXXXXX                                                ",
"                                     X..........XXX..XXX.....@XXXXX...XXXXXXXXXX                                                ",
"                                     X .........XXX .XXX.... %&-XXX...XXXXXXXXXX                                                ",
"                                      XX.....X..XXXXX.XX...%%&#*XXX...XXXXXXXXXX                                                ",
"                                        X..XXX... XXX.XX..%&&&&&#-X..XXXXXXXXXX                                                 ",
"                                        X .XXX....XXX.XX. %&&&&&*-X..XXXXXXXXX                                                  ",
"                                          ...X....XXX.XX. %#=-&&*-XXXXXXXXXXXX                                                  ",
"                                          ...X....XXXXXX. %#=-&&*-XXXXXXXXXXXX                                                  ",
"                                          ...X....XXXXXX. %#=-&&*-XXXXXXXXXXXX                                                  ",
"                                          ...X....X..XXX. %#=-&&*-XXXXXXXXXXXX                                                  ",
"                                          ...X....X  XXX. %---&&*-XXXXXXXXXXXX                                                  ",
"                                           ..X....XXXXXX. %&&&&&*-XXXX  XXXXXX                                                  ",
"                                             XXX..X..XXX..X%%&-#& XXX   XXXXX                                                   ",
"                                             XXX..X..XXX..X@%%-#XXXXX   XXXXX                                                   ",
"                                             XXX..X..XXX..X..XXXXXXXX XXXXXXX                                                   ",
"                                              XX.....XXX..X..XXXXXXXX   XXXX                                                    ",
"                                              XX.....XXX..X..XXXXXXXX   XXX                                                     ",
"                                                XX...XXX..X..XXXXXXXX   XXX                                                     ",
"                                                XX...XXX..X..XXXXXXX    XXX                                                     ",
"                                                XXX..XXX..X..XXX  X   XXXX                                                      ",
"                                                 XX..XXX.. ..XXXXX   XXX                                                        ",
"                                                  X..XXX.. ..XXXX    XXX                                                        ",
"                                                  XXXXXX.. ..XXX     X                                                          ",
"                                                   XXXXX..... XX    XX                                                          ",
"                                                   XXXXX..... XX   XXX                                                          ",
"                                                      XXXX... XX                                                                ",
"                                                       XX ...  X                                                                ",
"                                                           ...                                                                  ",
"                                                             .                                                                  ",
"                                                             .                                                                  ",
"                                                           ..                                                                   ",
"                                                                                                                                ",
"                                                                                                                                ",
"                                                                                                                                ",
"                                                                                                                                ",
"                                                                                                                                ",
"                                                                                                                                ",
"                                                                                                                                ",
"                                                                                                                                ",
"                                                                                                                                ",
"                                                                                                                                ",
"                                                                                                                                ",
"                                                                                                                                ",
"                                                                                                                                ",
"                                                                                                                                ",
"                                                                                                                                ",
"                                                                                                                                ",
"                                                                                                                                ",
"                                                                                                                                "
};
