/* XPM */
static char *_328_6bbf2a010627d16be413c9daa5978b38d89e1514047e610e9ca21d4df5bf0440_7[] = {
/* columns rows colors chars-per-pixel */
"128 128 16 1 ",
"  c #3A4041",
". c #6D1823",
"X c #190F20",
"o c #EFECEC",
"O c #C9B8BD",
"+ c #5B5168",
"@ c #0C3F0F",
"# c #63AD45",
"$ c #CEB7B9",
"% c #0F5314",
"& c #116116",
"* c #7EC262",
"= c #85BF13",
"- c #67940F",
"; c #FEFEFE",
": c #AF9DBB",
/* pixels */
"                                                                                                                                ",
"                                                                                                                                ",
"                                                                                                                                ",
"                                                                                                                                ",
"                                                                                                                                ",
"                                                                                                                                ",
"                                                                                                                                ",
"                                                                                                                                ",
"                                                                                                                                ",
"                                                                                                                                ",
"                                                                                                                                ",
"                                                                                                                                ",
"                                                                                                                                ",
"                                                                                                                                ",
"                                                                                                                                ",
"                                                                                                                                ",
"                                                                                                                                ",
"                                                                                                                                ",
"                                                                                                                                ",
"                                                                                                                                ",
"                                                                                                                                ",
"                                                                                                                                ",
"                                                                                                                                ",
"                                                                                                                                ",
"                                                                                                                                ",
"                                                                                                                                ",
"                                                                                                                                ",
"                                                                                                                                ",
"                                                                                                                                ",
"                                                                                                                                ",
"                                                                                                                                ",
"                                                                                                                                ",
"                                                                                                                                ",
"                                                                                                                                ",
"                                                                                                                                ",
"                                                                                                                                ",
"                                                                                                                                ",
"                                                                                                                                ",
"                                                                                                                                ",
"                                                                                                                                ",
"                                                                                                                                ",
"                                                                                                                                ",
"                                                                                                                                ",
"                                                                                                                                ",
"                                                                                                                                ",
"                                                                                                                                ",
"                                                                                                                                ",
"                                                                                                                                ",
"                                                                                                                                ",
"                                                                                                                                ",
"                                                                                                                                ",
"                                                                                                                                ",
"                                                                                                                                ",
"                                                                                                                                ",
"                                                                                                                                ",
"                                                                                                                                ",
"                                                                                                                                ",
"                                                                                                                                ",
"                                                                                                                                ",
"                                                                                                                                ",
"                                                                                                                                ",
"                                                                                                                                ",
"                                                                                                                                ",
"                                                                                                                                ",
"                                                                                                                                ",
"                                                                                                                                ",
"                                                                                                                                ",
"                                                                                                                                ",
"                                                                                                                                ",
"                                                                                                                                ",
"                                                                                                                                ",
"                                                                                                                                ",
"                                                                                                                                ",
"                                                                                                                                ",
"                                                                                                                                ",
"                                                                                                                                ",
"                                                                                                                                ",
"                                                                                                                                ",
"                                                                                                                                ",
"                                                                                                                                ",
"                                                                                                                                ",
"                                                                                                                                ",
"                                                                                                                                ",
"                                                                                                                                ",
"                                                                                                                                ",
"                                                                                                                                ",
"                                                                                                                                ",
"                                                                                                                                ",
"                                                                                                                                ",
"                                                                                                                                ",
"                                                                                                                                ",
"                                                                                                                                ",
"                                                                                                                                ",
"                                                                                                                                ",
"                                                            .....                                                               ",
"                                                           .......                                                              ",
"                                                      ...............                                                           ",
"                                                      ...............                                                           ",
"                                                   ...................                                                          ",
"                                                ........................                                                        ",
"                                                ........................                                                        ",
"                                              ............................                                                      ",
"                                             XXX.......................X..                                                      ",
"                                             XXX......................XX..                                                      ",
"                                             .XXXX....................XX..                                                      ",
"                                            ..XXXX....................XX..                                                      ",
"                                           ...XXXXXXX..............XXXXX...                                                     ",
"                                           .....XX.XX.............XXXXXX...                                                     ",
"                                           .....XX.XX.............XXXXXX...                                                     ",
"                                          ......XX...XXX........XX...XXX.....                                                   ",
"                                          ......XXX..XXXXXXXXXXX.....XXX.....                                                   ",
"                                          ......XXX..XXXXXXXXXXX.....XXX.....                                                   ",
"                                          ......XXXXX.XX..............XXXX...                                                   ",
"                                         .......XXXXX.XX...............XX...                                                    ",
"                                        ...XXXXXXXX..XXX........XX.XX......XXX                                                  ",
"                                        ...XXX .XX...XXX........XX.XXXXX.....XXX                                                ",
"                                        ...XXX..XX...XXX........XX.XXXXX.....XXX                                                ",
"                                      ....X...XXXXX..XXX..X.....XX....XXXX....XX                                                ",
"                                     XXX.....XXX.XX..XXX..XXXX..XX....XXXXX......                                               ",
"                                     XXX.....XXX..X..XXX..XXXX..XX....XXXXX.......                                              ",
"                                   XXX....XXXX....XXXXXX..XXXXXXXX.XX...XXXXX...XX.                                             ",
"                                   XXX....XXXX....XXXXXX..XXXXXXXX.XX...XXXXX...X .                                             ",
"                                  XXX.....X.....XX.XXXXX..XXXXXXXXXXXX.....XX.....X                                             ",
"                                XX.............X...XXXXXXXXXXXXX####-XXX.....X.....XXX                                          ",
"                                XX.............X...XXXXXXXXXXXXX####-XXX.....X.....XXXX                                         ",
"                              XXXX.........XX......XXXXXXXXXXX%&&&&&&&@X...@@........XXXXX                                      ",
"                             XXX..........XXX.....XXXXXXXXXX -#########-   @@...........XX                                      ",
"                             XXX..........XXX.....XXXXXXXXXX&***********@@@@@...........XX                                      "
};
