/* XPM */
static char *result[] = {
/* columns rows colors chars-per-pixel */
"64 64 36 1 ",
"  c #3E2616",
". c #3F2718",
"X c #432717",
"o c #482717",
"O c #452917",
"+ c #492A17",
"@ c #432718",
"# c #482718",
"$ c #462919",
"% c #4B2C1B",
"& c #512E17",
"* c #512E1C",
"= c #47301B",
"- c #4E301D",
"; c #53321D",
": c #5A341D",
"> c #5C391F",
", c #60371E",
"< c #61381F",
"1 c #4D2E20",
"2 c #512F20",
"3 c #4E3121",
"4 c #543221",
"5 c #5A3521",
"6 c #573823",
"7 c #5D3923",
"8 c #613622",
"9 c #623B24",
"0 c #693D27",
"q c #663E28",
"w c #654127",
"e c #694227",
"r c #674128",
"t c #6B4229",
"y c #714027",
"u c #71422A",
/* pixels */
"0800:<<:;;6;;65:ttu0;;%%2**4%2*&55;:;;5;*4:>79879e>%4%%%9tt7qu09",
"52*;:&:&%+%6465;4425%+#+&%#&4%*;77;;$%;%$%%%45::8w7$$$$$;746075*",
"5::*::&%%&$;455*2422%1%$%$%%64;;;57;%-%-%+%+;;:*>w9%$$+$%754888:",
";*::&:&-;%%%%5*%%*;:%1$%%%$@;5;;%;;&$+%%%+%X;:::-7;$$%$%;%6%0884",
":&::994;%%54%**-%;:*786***%**;%--%;*%%4-9007;::>--*%%2%%*;:58888",
"::::w;%%%%44%+#%:*:*w524o#++@%;4%3+$%%++:*58;;7;%$*%%#%%43%%5850",
":::;=%++&;2%%%%o;;:-7444+%*;6646624133%@;:;;%46;%%%&%%%$%;:-5884",
":&;&&+%---%%##%+64*%6-2***%2%%11111%%%;4;;;%$45-O+%+$##2-%*%%45+",
"5;4*o=4%$%9q44133-%-3-##%++%%%13%2%#%$%%$%---%%%@$%%ee-+%%$$%-65",
"3%%3%64-%755431@$$-1%$@@1%-3%334%#%%%$.%%$@+%4$$$@@-wwq$o%%%%@%-",
";;%%;%-4955413%$$64%1%$11433%%3%%+%+%$$@$%+$162$%%++7789%$1%-$--",
"%%$$%%556579.1%3;3%%11111%%%6355+***-$@$#$+$1%12%%$@;;45;;%%O@6%",
"$$$-%;6&;779754%$$@$%%1%$%$%#11%+%##%%%+@@O%++$$%4754;;;3413-%%$",
"+%%%+O+%577724%$+$$$%;%*%$#11%2+$#%%+#+%;-%$+%1%$;4::;::3%%%+-%-",
"X@X$$%%-7w9:42++++%$--%+%#+%+%+##$$$%%#23%;-@1$%%%*%5:5-$+%%%+O%",
" $$OX-@$77;;$#%%%%=%;$++%$%##+%$$$$#$#243-$33%$%+%%%464-$%$#++++",
";:;::;%%;%4%%%$%$$1++%%#*+++458899:&$$-43%%333.+%%%%-%63%%;-665:",
":;;*+++%+$4+#%-$-=%+%+*%%%&&;4456:6;44;3%13331=%#%%+&%1%-$$%46;6",
"55;;%1%+$%*%%13-%%3%%%%%+%#@*574;;4%%=676334%-;:%#+%+*%%3%$.3;4-",
";;;:.%%@%%$%1%%3$+*%%++# #%**44#%;;4-31-34=%%-%%6#%+%%;$$%$.;%44",
";;;*6tuq=%+%%%1+%%+-6955%*%64%%*-43;55766;;-;$+$;-+%+%-%;58;-;41",
"*&;47999%$$$+%%++%++5*:5%%%%+%#%*%%-*4*%--;6%%$%-6-%%%%-755;-*3%",
"&:44588-XOO@%%$+%#%:;*;*+%#$$%%#64644&%%*4449*%+-13;&-%$;776%;41",
";%+%079:;+X$%@#$%o%::;*%$+%@@%%#-;61%*;%14449*++%+$%%++;;77;$463",
"*%;;598%%*;;4;$#o&8:;&**588;1244;%4-379;*455;6O+%%:%%646;;:&-;&2",
"o+%%:::+%#%%%364+586;445545*%#2#%+%%75655555&*;=;&+%%%43;;7:O%+X",
"+%%O;:%+%##%4%1267871456*88*2#%%+++$:5;*;55-*7t;%%%%+-;;%;7-+$+#",
"OO%+%&;%+%+%%344+-;6-376:*:21%%#+%$@4:;&O;63;w-@%%+%=;%%%-;-#%%%",
"=;42%%-%%%%%o*3%;3333%335::*:8,&4554%;;;;;&%-+;1-1$+%%$%%-676-*4",
"%+$$$#%%%#%%%%313111%.$14855::::445:%*;&*%+#@#%%+%#+-;%%+-;413#%",
"%$%$%$.$%%%+%11133331$$.:554&&::544;-&&&+%+%$@%+%%%$3;%%%-%$3-22",
"@$%$#@%$#%#o+%+$%%%1=%. #22*:::**5;6%%;$.+%O@$$$##$$$$#$$@X%--4@",
"4%%%-4:4*%4;;*2%5*$$%%14975;;::;5888;;65;:%--;--%--;;11144;%%+%%",
"-.$$$%+++$14%%%+%%+#@%+%5554;::688556;;%%%%;13--$$%$+21131%%%##%",
"%@+$$+$$$$%%+%%++++%%$%$5755;:77:0;54;;3%+%-;1%%%$11221%11%$++%@",
"%@$.@$%+$+%%+#+*$+%#@%%%7775$47;%75:344%++%%143%111122#124%$%$$.",
"-+%64q%+%$+%++2&;:,&;77977763-+%%4%%44645q9:4551313$=%%%1*e-+;2;",
"$1%477-$+1%%+%%%%;:;>78w7775$@OX@$%$%442279>565*113%1%+31;57+%%%",
"%11155-$%-3%O++%&&:&;:794756$%+%$$%@-:;*&*44642*33-%11%314::%%$%",
"+$%%453@@=%%=%-;%%:%;497%4*%$@%%%$%$%;*%*&%-;;*&;63$%%%%%:<5@%%.",
"75::;57@%-;--%$++O59244566%;-%%%464;;%*%;;*%752**24&%;6%;8::5806",
"5*:&>;76;%3%%$@XO+%4454243%%%%$+3-3%4%+%455&*4;4*43%+%%;55542225",
"::*&;76;%%1%;%O$++$1765*%&+++$$$%-4-&+$%559%522552%%%%%%75:;;45*",
"5::&=-77%%33%;$%+$%1-5;%O++XX$$X$%4$@+$$5;73242242&+%%%1:5*$:;4*",
":::&-;%4*%113;;+%%@+%;%%%%;-755465::=;4--;22%144*&%%%%%%@#%*5::%",
"::::+%%;%%%44%-%%%$%$%%X$$+%644-*;;7;1%-4%##*%1%%%;%%%++$##@&::%",
"::5;+*%%%+%%3%+;*+++-++%-@+@;44-*;::$-@;*%%%%**45;++#+%++$@@*::&",
";:5%$%++$$%@%-*#%;X%-%$$%%;;;&-=%;::;;%=++%%%+84*:;+@%%#@+%#:5:&",
";-+&%%%-9qe7%;+%#*%#%+$$$*%%%%%;%;%&&+;%1#%%+***4%%+;:,;;:&*;%&;",
"++%+$+O%q9994$++++%&$+$@=&%$$$4=+%%%*%%%1%#+*%#%+%%*5*;;%%%++%%#",
"%XO$$%$%8w954*+$$#+%%%$@%%+%%-4-%++++%*%%$%*%%+++o15*:4*+++%%%$$",
"%-%%%@$@7878*5%$++o$%*-42#$$@$;3o++Xo+%;55*o%o#+%%*%&:;%OOO%%$;%",
"@%%$31455758%2;%$$$$=$@@%*%%@#%=+OXX**:*212%o+#+%%**4;4:8%%%++@@",
"=-3%$1&&555;%%%%=$+%%$@@##%%$%%56%;-25**2225$#+%+$#%4541%%%$$%%+",
"+%4%-$+%&48;%%&%$%%%+%%$$#%+%$$%3%-42*242254*%%#+%#%*5%%%%%1%%11",
"+%1%&;%++%;%$O+o@@@ 4$%%+%#%%%%%-%%%2445425*%2#@$%#$%%%%%%&;*#$$",
"w6;+O%-$+%%;;;;&>657954;%%$%4-%%%$+%%33%-;555582*2*%4&%%$+%+&:06",
"7;76=%%%%+$+++%-;-4557572;%;;-%+-%$@$%4375444444%+#%%&%32+$-:557",
"9577<;%++$%#%%++4;;;:<9*;46*;;%-$%%4%$$3%5545454#%%%%%%3%%6755:;",
"578>%:%O+$#++$+O;;;;;:6%%%%%%$$@%--$.@$---4-2422$%%+**%%%444:75;",
"977578:%%6-4&885;:;;-4%%%%%%;tqr59e>--%-*%*-5*;257q4%%31%676:<8;",
"87775*::756%-;55;:;;$$$$+#%%q097**:,@@+O.@$%554;755%$1%+-4475775",
"7775;::;;64%%::*;;57$$$@#%11245*:;;*+$$$$%#$454;7q6%31-$4997;:8:",
"466%+;;%-4%2#*:*.;;- @XX.@  422::;;&.  X@#+##%&$7t5@$$$@$766;7;O"
};
