/* XPM */
static char *result[] = {
/* columns rows colors chars-per-pixel */
"64 64 254 2 ",
"   c #040302",
".  c #090602",
"X  c #0C0A05",
"o  c #080909",
"O  c #120501",
"+  c #1C0501",
"@  c #120D05",
"#  c #1B0C02",
"$  c #16020C",
"%  c #110E08",
"&  c #0B1206",
"*  c #151106",
"=  c #1B1405",
"-  c #151209",
";  c #1A150B",
":  c #161A0A",
">  c #1E190D",
",  c #040F10",
"<  c #180913",
"1  c #091716",
"2  c #191C12",
"3  c #230C01",
"4  c #2B0D00",
"5  c #250708",
"6  c #360E05",
"7  c #231301",
"8  c #2B1501",
"9  c #231A06",
"0  c #2B1A03",
"q  c #29130B",
"w  c #231C0C",
"e  c #2A1D0C",
"r  c #331402",
"t  c #341B03",
"y  c #3A1806",
"u  c #240518",
"i  c #380718",
"p  c #261312",
"a  c #231C11",
"s  c #331812",
"d  c #1B230D",
"f  c #0B221D",
"g  c #1A271A",
"h  c #2A2307",
"j  c #2C220C",
"k  c #392505",
"l  c #32250C",
"z  c #352A0D",
"x  c #3B2C0D",
"c  c #3E320A",
"v  c #252312",
"b  c #2C2412",
"n  c #252A15",
"m  c #2B2816",
"M  c #242C19",
"N  c #292E19",
"B  c #312614",
"V  c #342A13",
"C  c #3A2D14",
"Z  c #342C1A",
"A  c #392A19",
"S  c #2B341C",
"D  c #3D3115",
"F  c #36371B",
"G  c #3D321A",
"H  c #2B1326",
"J  c #38132D",
"K  c #361A2C",
"L  c #162A25",
"P  c #152826",
"I  c #162C28",
"U  c #192D29",
"Y  c #1E3731",
"T  c #202B20",
"R  c #2A3B28",
"E  c #363621",
"W  c #343922",
"Q  c #213832",
"!  c #441705",
"~  c #4B1C01",
"^  c #46100E",
"/  c #561903",
"(  c #44061C",
")  c #6A0F00",
"_  c #452302",
"`  c #482806",
"'  c #552502",
"]  c #582905",
"[  c #47350A",
"{  c #583609",
"}  c #462715",
"|  c #4B2D12",
" . c #572D16",
".. c #423415",
"X. c #453914",
"o. c #493A15",
"O. c #43361A",
"+. c #4A3119",
"@. c #45391C",
"#. c #4B3C1C",
"$. c #523212",
"%. c #553C1B",
"&. c #652901",
"*. c #6C2D01",
"=. c #762A02",
"-. c #673707",
";. c #6B3302",
":. c #743903",
">. c #7B3900",
",. c #733D09",
"<. c #6B3C14",
"1. c #590724",
"2. c #4E1129",
"3. c #5C142C",
"4. c #6E0B2F",
"5. c #690D2C",
"6. c #63142D",
"7. c #6A122E",
"8. c #750D35",
"9. c #691833",
"0. c #741837",
"q. c #473826",
"w. c #4C3E21",
"e. c #4C312E",
"r. c #77213E",
"t. c #374014",
"y. c #33472B",
"u. c #374E2C",
"i. c #58420D",
"p. c #4B4116",
"a. c #4D431D",
"s. c #574718",
"d. c #52421E",
"f. c #6A430F",
"g. c #774309",
"h. c #7B430A",
"j. c #794814",
"k. c #69541B",
"l. c #75591A",
"z. c #78611E",
"x. c #4D4123",
"c. c #4D4926",
"v. c #534323",
"b. c #594724",
"n. c #554A26",
"m. c #5A4A24",
"M. c #544629",
"N. c #5A4A2A",
"B. c #5B5126",
"V. c #594533",
"C. c #4D5837",
"Z. c #644927",
"A. c #724D2A",
"S. c #675729",
"D. c #6A5739",
"F. c #75573A",
"G. c #48673B",
"H. c #506C3C",
"J. c #78652B",
"K. c #6E6130",
"L. c #786A38",
"P. c #492344",
"I. c #582D4C",
"U. c #663359",
"Y. c #763C5F",
"T. c #6A3464",
"R. c #743A6A",
"E. c #7B3F72",
"W. c #745C44",
"Q. c #4A6A40",
"!. c #557743",
"~. c #7D644A",
"^. c #7F6A52",
"/. c #7E4072",
"(. c #8C1800",
"). c #B71800",
"_. c #952700",
"`. c #843902",
"'. c #853108",
"]. c #963900",
"[. c #B13200",
"{. c #8E1A3E",
"}. c #C63300",
"|. c #D63100",
" X c #874505",
".X c #964802",
"XX c #97580F",
"oX c #844C14",
"OX c #8B5518",
"+X c #A84D00",
"@X c #B14D02",
"#X c #A95504",
"$X c #B75603",
"%X c #8A651C",
"&X c #B56812",
"*X c #89532A",
"=X c #8B672A",
"-X c #86723B",
";X c #A86F30",
":X c #CD4906",
">X c #C75D01",
",X c #F54E03",
"<X c #CE6F0D",
"1X c #CB7516",
"2X c #F67118",
"3X c #C87E2C",
"4X c #E26521",
"5X c #831C40",
"6X c #87694B",
"7X c #846A4D",
"8X c #8F7246",
"9X c #98724D",
"0X c #846C53",
"qX c #8A6E51",
"wX c #8C7358",
"eX c #947556",
"rX c #9D7751",
"tX c #947659",
"yX c #95795B",
"uX c #9C7C5C",
"iX c #A47A51",
"pX c #854577",
"aX c #987D62",
"sX c #5C844B",
"dX c #5F8752",
"fX c #638B4E",
"gX c #638E50",
"hX c #699956",
"jX c #6FA15B",
"kX c #79AA69",
"lX c #DB821A",
"zX c #E88819",
"xX c #F68C16",
"cX c #D68321",
"vX c #EE8F29",
"bX c #FD9927",
"nX c #A58059",
"mX c #9D8164",
"MX c #A38362",
"NX c #A6896A",
"BX c #AA8C6C",
"VX c #AD8F70",
"CX c #AD9173",
"ZX c #AB9378",
"AX c #B29779",
"SX c #B3987B",
"DX c #E7A850",
"FX c #FFC257",
"GX c #944C84",
"HX c #9C5387",
"JX c #A4588F",
"KX c #AE6697",
"LX c #B69E82",
"PX c #B9A185",
/* pixels */
"  * - X . o o % % X . .   . X * X .                         .   . . .   .       X * > a e w w > : v w ; a w % % @ % @ - e e %   ",
". V ..G G O.X.O.O.D C V l z D O.X.D V z V V V b w j j j j B ......O.O.D D D C D F p.a.a.a.x.a.v.O.G D G a.d.b.b.v...O.O.M.#.C . ",
"- C #.w.#.#.#.G C A @.#.......o.o.o.o.X.p.X.X.X.X.X...D ..X.......@.o.#.#.#.X.O.D C O.D V C @.a.a.@.@.O.@.v.N.N.M.#...@.v.@.C . ",
"; G @.O.B ; X % - - v b e w h 0 w e e e h j w w w v w = > = = % % = = 9 9 w = ; = * * * * w 9 w 9 9 > = > w j a e w = a O.@.A . ",
"- C O.v .   o               . o . . . . .   . .     . . . .       . .   .   .             .   X X X X % % % * X X       j G V . ",
"e #.M.e   - ; ; - % - = - - * % X . o & ; ; ; ; ; ; ; ; ; 2 2 ; ; ; > ; : ; ; ; ; ; > ; > : ; ; ; : > > w ; > > ; -     j ..V X ",
"e w.b.a o > > ; ; ; * % .   # 7 t oX`   X ; ; ; ; ; w > ; a > ; % X X % X o .   - a a w w > > ; ; ; ; ; = ; > > > > %   C #.G X ",
"> G w.a X w > a w ; ; -   [ +X] :.bXzXZ.X . - ; ; ; > > a ; > . . @ * = p y ' 8 % a a a a 2 >             % - * > w ; . V #.O.% ",
"* B O.p X ; > > > ; ; -   OXzX' oXbXbXDX0X< . X X % * - %     & j #.m.B.A.4X2X'.% a % X o .       ; a Z @       - 2 ; . V w.@.- ",
"; @.v.a % > ; ; ; ; ; ;   <.lXr &XbXvXiXuXV.p .   o o * X @ ` <.m.-X-XL.o.:X2X=.X %   o o . o X b L.-XK.x * X   - w w X b #.w.w ",
"e v.N.e X > ; ; % % % %   h.cXt &XbX X( ( 5.{.8.( < .     $.OX} N K.-X-X+.'.2X'.  @ # g S E E M E 8XL.c.x j.|   o X - X b v.v.a ",
"b n.M.a % > ; ; o : : &   oXzX] 1XvX^ 1.4.5X8.4.8.1.y ! k j.oXe v D.L.L...'.,X:X]  X! g E W W d S L.L.F 0 j.<.X . . % % B w.x.; ",
"B v.x.w & ; > ; o G.gXQ.g OXbXh.&X1X^ 6.4.0.9.r.0.( _ $X$Xg.f.# k z.J.=Xo.].,X:X`.@X_ v E F W g z =XJ.x 7 -.j.;..X~ X X b w.v.% ",
"V n.v.> * w a % : dXkXkXQ.OXxX:.#X&Xi 0.5Xr.r.r.r.( ! $X$Xg.f.; 9 m.L.L.C ].,X}.] $X&.d W W E M F L.S.v @ $.j. X>X:.& % m v.x.% ",
"b M.M.> X ; : . g gXkXjXu.j.lXk  X1Xe 3.9.9.9.9.9.i y @X@Xh.j.t * d.K.K.B '.,X}.;.1X X2 W W W S F S.S.v # { OX X>X`.X . b v.M.- ",
"> M.M.> o * X   y.hXkXsXg h.1X8 ,.<Xs 6.7.7.9.6.9.i y #X+XoXj.k X s.J.K.b / ,X[..XDX%X> S N E M z S.S.v # { oX X>X`.    b w.M.w ",
"- q.x.2         u.jXjXG.1 h.lXt :.1Xi 5.8.8.0.0.r.s q +X+X,.,.y @ s.J.S.y / :X_.&XFX%X2 n n n n h k.l.j 3 { ,.>.>X>.    v M.N.b ",
": x.q.2       o G.jXgXy.& h.xX] :.1Xq 3.9.9.9.9.9.i 4 +X+Xg.g.t @ i.k.m.B =.,X).#XbX#X: N N n n t.S.S.h 7 -.oX`.>X>.    a m.M.> ",
"B v.w.- X * o & H.jXsXg . h.zX;. X<Xr 3.7.7.6.3.3.i + +X+X-.g.t X o.m.a.y _.,X[.+XxX#Xd N N n N F c.s.h 7 g.,.>.>X>.X . v V.M.; ",
"V c.x.- X ; X 2 !.hXH.:   OXzX_ #X1Xy 5.5.7.9.9.9.i + +X+X-.h.t = p.c.c.z (.|.).[.:X*.d N N n N F c.c.[ 0 ,.:.:.>X`.X X a S.w.o ",
"v x.M.- X % . M !.sXu.* O %XlXt $X<X! 3.6.6.6.3.3.s + .X+X;.g.0 = s.B.p.k ) |._. X-.r 2 N N n n F a.B.c k f.,.:.>X>.X   a Z.q.o ",
"w w.M.; X *   u.gXfXS & . ;XcX_ $X<X^ 1.7.4.0.9.1.i $ .X+X;.,.8 h l.z.l.k / |._.;.>.7 : N N n n a.z.z.i.h -.:.>.>X;.  o a N.O.  ",
"> q.x.- X @ X G.hXsXS - . XXvX;.&X<X^ 5.4.7.6.1.1.5 O  X.X] ,.k & p.s.B.t / |.(.] *.7 d n N n N p.B.s.z t ,.-.;.$X;.  . b M.O.o ",
"* O.w.% X @ & G.gX!.M - o XXxX:..XzX~ 1.1.( 3.( i 5 . `.].~ ;.' 9 i.p.p.r ) }.(.] ;.r d n n n d F s.s.[ 0 ;.;.;.$X*.  . b M.O.X ",
"* G q.& X X 2 H.fXC.d *   XXlX' .X<X~ ( 1.( i i i $ . =._.' &.] 0 c c [ 0 ) ).) ~ *.4 & : : : d c p.X.` # -.&.&.@X*.    B v.G X ",
"X D O.X     M !.fXu.> =    X<X! >X>Xi ( ( i ( i i $ . =.=.' &.t 7 ' [ { t ) ).(.! &.3 . & & & & k i.[ _ O ' -.&.+X=.    B x.V o ",
"* D G o     W sXsXS - -   .X<X~ >X].5 u u i i u $ $   ) =.~ ~ 3 = ` c [ 3 ^ ).) 6 ) 3   X &     h [ ` k . y ' / _.=..   a @.V X ",
"w G G X     g y.g X . o   ' ,.r &./ + $ o $ $ $ $ .   y ! 4 3 O   # @ 7 . 5 ) ) + 6 +           * * * O   + 4 3 8 #     % #...@ ",
"V O.O.* w j j w 9 h a b e b B B e B B e h j h e 9 = = 9 = = = = * w e h e l y e % % 9 w e e w e 9 9 = w w h w h e e e = ; w.w.; ",
"D x.q.w G #.d.#.D G O.#.#.v.v.b.w.M.v.O.#.d.#.O.O...V j w ; ; ; > j V D o.#.d.#.O.O.#.o.@...X.#.p.D z D ......X.....[ k - w.w.p ",
"B x.O.v w.#.a.#.#.O.#.w.M.b.n.M.v.#.w.m.Z.m.m.b.b.v.#.D C C C D D X.+.#.o...b.d.d.#.d.d.#.D X.a.p.@.D D ..D X...c x z h % q.v.a ",
"> c.G b #.G O.#.a.w.v.b.b.Z.S.S.Z.M.v.x.d.d.d.d.w.#.%.#.......+...d.d...+.d.m.m.s.b.m.m.n.n.b.v.b.v.#.p...D D D l l 0 9 X G M.a ",
"> v.Z > w.w.#.d.v.v.#.a.w.v.M.M.n.M.v.#.d.#.v.#.#.#.#.o.X.+.o.#.d.s.b.w.%.m.Z.m.m.m.m.N.N.Z.N.M.N.N.M.#.w.#.O.C C x j 0 % #.N.a ",
"b M.Z * a.v.w.a.O.D B b e v w a B B V b b B V C C V V V B j b e e b e b B C o.o.#.d.s.b.m.m.#.#.b.v.#.O.O.@.@...x B x l - w.M.a ",
"b x.Z X O.O.G G C V B m B b j w e w e j B C C V j l V j h 9 w 9 9 = = 9 h k x x x [ [ ..o...x ....C x j B x C ..C ..c e > M.N.; ",
"- w.Z   ; e e j j h B l l l e e h h j k z l l j j j l l h h 0 9 9 = - 9 h l l h l l j h l j e 9 9 9 9 9 9 9 9 9 0 e 9 % > w.M.X ",
"> O.N         . o X X X % X X X X o X X X X X . . X X X X X X X X . X % @ X X X X X . X X . . . . . . .         . .   . a w.q.X ",
"> q.Z     X % - ; ; ; ; > > w ; . - > ; ; ; * = ; = - ; ; ; ; w > > ; : ; - - ; ; ; ; ; ; ; ; ; ; % - * % & % ; ; %   . G x.w.X ",
"> G G X   - ; ; > > w a a a a X < % X ; X o - ; ; @ @ - w w w > w X       X . o X X X O @ % % - - - ; ; ; a ; > ; > .   Z a.x.- ",
"w v.@.X X ; a w > a a w > ; % . U.pXK   . q = X @ , o . o ; a a - . + = # O # O O . O . .       . O O X ; ; ; ; - ; @   B x.x.> ",
"; v.M.X % a a a a a > > > >   K HXKXJXq.M K.k.x % P U 1   . - w % r g.s.+.A A B B B s m s b m p - y ' $ % ; ; - ; > -   B x.v.a ",
"% #.w.X ; ; > ; > > > > > X $ R.KXKXJXU.D.8X-XJ.F U Q Q f .       ] 1X;XeXqXqX7X0X7X7X0X7X0X0X0XW.q.# o       o ; ; ;   b #.x.a ",
"- O.A . - ; ; ; ; ; ; 2 ;   e.GXKXJXI.e.~.L.L.K.R Q Q Q Q T : O   ;.3X8X0XqXeX7X0X~.7XqXqXqXwXtXwX7Xa a b a 2 . o ; *   b #.#.; ",
"= G V . - - % % % - % *   < E.JXHXU.e.J.L.L.B.R Q Y Y Q R &X1X&X.X&X3X6X~.qXmXwX0X7X0XqXwXtXtXyXwXtXV.q.M.e.e.% o * - . j #.O.% ",
"- w.G   - ; = ; ; - ; * o 2.HXJXY.K S.J.J.%XX.g Q Q Q Q S zXbXxXxXxX;XF.F.D.W.6XW.W.F.W.D.D.D.V.V.V.q.q.q.q.q.; o - ; . j #.C X ",
"* #.G   % * - - ; - *   < R.JXHXK D K.K.K.s.z L U Q Q P & &XlX#X.X<Xh.~ _ _ ` <.] ' $.] | ~ ` _ y ` 0 y 8 0 8 .   * ; . j G B o ",
"% D C o X X * X X * X o P./.pXI.w s.K.K.S.c g L P U U o   9 0 @ * XX;X;XOXj.<.<.<. .{ $.| $.$.| | | | $.| $.$.| 9 . %   B D V . ",
"% ..D .               H /.HXR.< C S.J.l.p.n L I U U 1       X X * XX8XeXrXiXiXiX9X9X9X9X9X9XrXrX9XrXrXrXrX9XiXF.X       V #.C X ",
"X C D . o X X % % . o I.GXGXP.u F B.k.l.c g I L I L o         @ 7 *XtXmXeXeXyXeXeXeXyXyXtXuXuXuXyXuXuXuXaXuXuXe.        A O.C . ",
"% C C X ; ; ; > %   H R.GXR.K G a.c.B.[ g g I I U 1   . % X     # l.eXMXyXeXyXeXeXyXeXyXtXeXyXuXuXuXuXMXaXaXuXa   - ; . O.v.C X ",
"* ..D % ; a a > % o I.pXpXP.} a.a.c.p.h g L I I f o . > > > %   . ,.nXSXCXVXNXNXNXBXNXBXVXVXCXVXCXCXCXZXLXZXLXD.  X ; o @.w.O.X ",
"; #.G % > a a ;   J pXGXU.} s.l.z.k.h f I I I I 1   ; : ; w a &   g.;XwX^.^.0XwXyXyXyXeX0X0X0X0XwXaXuXaXaXwX^.W.v   o X O.D O.% ",
"v #.O.% ; ; ; o < U.pX/.H ` s.B.k.i.d L I U U f   o ; > > ; p -   t ;.s < q q } %.+.B p % q 7 s C +.+.A s w ; p B %   . q.O...- ",
"A w.G * > > ; o K E.pXJ 5 %.c.s.p.= f f f I U , . > a 2 a a a %   ! / &.&./ / ` ~ 8 4 6 6 ~ ! ~ ! ! ' =.=.*.>.`.`.:.r X w.#.O.- ",
"B w.O.* ; > o u T.GXI.< [ i.a.p.c 1 f P f f 1   % a a a a a a & + &.| ! }  .<.Z.e.q.q.%.A.*XA.<.q.+.}  . . .} y _ s X . v.b.#.- ",
"a w.@.* ; & . P.E.E.K k f.l.i.[ = 1 f f f f o . a a p > a a > . 4 Z.tXqX0XtXNXNXBXVXCXAXAXSXLXSXAXVXaXaXNXMXaXwX0XE   . v.b.#.% ",
"; @.w.- o   u T.E.T.s ` [ c { c o , 1 1 1 , . 2 a > > a a > ;   6 F.uXuXNXBXVXBXBXAXSXAXSXAXSXPXLXLXLXPXLXLXPXPXZXZ   . w.M.#.= ",
"% @.w.;   , P.R.R.J 7 k z c h X o , , , ,   * a a > a > ; > ; . 5 *XeX9XrXeX6X6X7XtXuXuXuXMXMXuXMXuXyXmXBXVXmX~.V.p   . O.M.#.w ",
"- @.w.-   H T.T.J 5 t 9 h 0 * .   o o o   o w e a a a a a > w % O =.'.<.} q 5 $ 5 q s }  .} } } } s s ! } A e 6 } -.O o x.M.O.a ",
"w q.G ,   u P.H < 4 ! r # @   * o         . % X % % - < % % % @   4 / <     O + + O . O O . O O O O 5 + .   O $ q e . % M.N.F * ",
"b v.w.-   X X X O % 9 9 @ % % % * & % % X % @ % % % @ @ % - @ @ @ X X X X @ @ X X @ @ X @ % % % % @ % @ % X X       . G M.M.G - ",
"Z M.M.G b l V C D ..O.O.@.#.v.v.v.n.q.x.b.v.d.b.M.#.O.C #.d.@.....x ..D ..O.@.+.#.#.#.@.w.b.M.M.N.b.v.w.d.#.O.h ; = b x.N.q.F - ",
"; w.M.O.C z j x ......C ..#.a.d.d.d.#.O.#.a.#.d.%...C C o.o.....x D #.#.#.#.w.#.#.#.d.w.b.b.w.w.w.v.%.w.#.G ..x x l x w.x.@.G - ",
"  > E Z b 9 ; w = = : = > e C ..G D V w w ; = ; w ; % 9 w ; 9 > ; = ; w e v e - - % - ; b G G e - - - ; * % = j l k V G Z b > o "
};
