/* XPM */
static char *_3170a4929334c118094382d9cb568c3dRK06wUQOVw5VoTz[] = {
/* columns rows colors chars-per-pixel */
"64 64 13 1 ",
"  c black",
". c #010000",
"X c #090707",
"o c #0A0808",
"O c #0B0909",
"+ c #151F1F",
"@ c #1B1B1B",
"# c #1D1F20",
"$ c #162020",
"% c #172121",
"& c #2E2F2F",
"* c #2E3030",
"= c gray29",
/* pixels */
"==@ &#=====$$$+ &#======@ ++======@ &#=====$$$+ &#======@ ++====",
"&&= #&&&&&&&++$ #&&&&&&&= ++****&&= #&&&&&&&++$ #&&&&&&&= ++****",
"&&& =*&&&&&&&&+ #&&&&&&&= $&****&&& =&&&&&&&&&+ #&&&&&&&= $&****",
"&&&Xoo&o&&&&&&& =&&&&&&&& =&****&&&XOo&o&&&&&&& =&&&&&&&& =&****",
"&&@ =ooo&&&&&&@ =&&&&&&&@ =&o***&&@ =ooo&&&&&&@ =&&&&&&&@ =&o***",
"&&$ =&o&&&&&&&@ =&&&&&&&@ Oo****&&$ =&o&&&&&&&@ =&&&&&&&@ Oo****",
"@$$ @oo*@&@@@@  @=&&@&@XXX@=**@*@$$ @Oo&@&@@@@  @=&&@&@XXX@=**@*",
"                                                                ",
"=$$$X$=@ &#========@ &X======@ *=$$$X$=@ &#========@ &o======@ *",
"&+++o&&= #&&&&&&&&&= X&&&&+%%= #&+++o&&= #&&&&&&&&&= X&&&&$$$= #",
"&&&&o&&& =&&&o&&&&&& =&&&&%+&* =&&&&o&&& =&&&o&&&&&& =&&&&$$** =",
"&&&&&&&@ =&&&oo&&o&@ =&&&&&&*@ =&&&&&&&@ =&&&oo&&O&@ =&&&&&&*@ =",
"&&&&&&&@ =&&&&oooo&@ =&&&&&&*@ =&&&&&&&@ =&&&&oooo&@ =&&&&&&*@ =",
"&@&@@@@  @=&&@oX@@@  @=&&@&@@  @&@&@@@@  @=&&@oX@@@  @=&&@&@@  @",
"                                                                ",
"==@ &#=======O@ &#===%%+ &#=======@ &#=======O@ &#===+%+ &#=====",
"&&= #&&&&&&&&o= #&&&&&+$ #&&****&&= #&&&&&&&&o= #&&&&&+% #&&****",
"&&& =&&++&&&o&& =&&&&&&& =&&****&&& =&&++&&&o&& =&&&&&&& =&&****",
"&&@ =&&+++&&&&& =&&&&&&& =&&****&&@ =&&+++&&&&& =&&&&&&& =&&****",
"&&@ =&&++++&&&@ =&&&&&&@ %%&****&&@ =&&++++&&&@ =&&&&&&@ %$&****",
"&&@ =&&&+&&&&&@ =&&&&&&@ %%&****&&@ =&&&+&&&&&@ =&&&&&&@ %$&****",
"&&@ =&&&&&&&&&@ =&&&&&&@ =+&****&&@ =&&&&&&&&&@ =&&&&&&@ =$&****",
"@@  @=&&@&@@@@  @=&&@@@  @=&*@@@@@  @=&&@&@@@@  @=&&@@@  @=&*@@@",
"                                                                ",
"=======@ &#========@ &#======@ *=======@ &#========@ &#======@ *",
"&&&&&&&= #&&&&&&&&&= #&&&&&&*= #&&&&&&&= #&&&&&&&&&= #&&&&&&*= #",
"&&&&&&&& =&&&&&oo&&& =&&&&&&** =&&&&&&&& =&&&&&OO&&& =&&&&&&** =",
"&&&&&&&@ =&&&&&&o&&@ =&&&&&&*@ =&&&&&&&@ =&&&&&&o&&@ =&&&&&&*@ =",
"&&&&&&&@ =&&&&&&oo++ =&&&&&&*@ =&&&&&&&@ =&&&&&&oo++ =&&&&&&*@ =",
"&&&&&&&@ =&&&&&o&+++ =&&&&&&*@ =&&&&&&&@ =&&&&&O&+++ =&&&&&&*@ =",
"&@&@@@@  @=&&@&@@+++ @=&&@&@@  @&@&@@@@  @=&&@&@@+++ @=&&@&@@  @",
"                                                                ",
"==@ &#=====$$$+ &#======@ ++======@ &#=====$$$+ &#======@ ++====",
"&&= #&&&&&&&++$ #&&&&&&&= ++****&&= #&&&&&&&++$ #&&&&&&&= ++****",
"&&& =&&&&&&&&&+ #&&&&&&&= %&****&&& =&&&&&&&&&+ #&&&&&&&= $&****",
"&&&XOo&o&&&&&&& =&&&&&&&& =&****&&&XOo&o&&&&&&& =&&&&&&&& =&****",
"&&@ =ooo&&&&&&@ =&&&&&&&@ =&O&**&&@ =ooo&&&&&&@ =&&&&&&&@ =&o***",
"&&$ =&o&&&&&&&@ =&&&&&&&@ Oo****&&$ =&o&&&&&&&@ =&&&&&&&@ Oo****",
"@$$ @Oo&@&@@@@  @=&&@&@XXX@=**@*@$$ @Oo&@&@@@@  @=&&@&@XXX@=**@*",
"                                                                ",
"=$$$X$=@ &#========@ &X======@ *=$$$X$=@ &#========@ &o======@ *",
"&+++o&&= #&&&&&&&&&= X&&&&%+%= #&+++o&&= #&&&&&&&&&= X&&&&$$$= #",
"&&&&o&&& =&&&o&&&&&& =&&&&+%&* =&&&&o&&& =&&&o&&&&&& =&&&&$$** =",
"&&&&&&&@ =&&&oo&&o&@ =&&&&&&*@ =&&&&&&&@ =&&&oo&&O&@ =&&&&&&*@ =",
"&&&&&&&@ =&&&&oooo&@ =&&&&&&*@ =&&&&&&&@ =&&&&oooo&@ =&&&&&&*@ =",
"&@&@@@@  @=&&@oX@@@  @=&&@&@@  @&@&@@@@  @=&&@oX@@@  @=&&@&@@  @",
"                                                                ",
"==@ &#=======O@ &#===$$+ &#=======@ &#=======O@ &#===+%+ &#=====",
"&&= #&&&&&&&&o= #&&&&&+% #&&****&&= #&&&&&&&&o= #&&&&&+% #&&****",
"&&& =&&++&&&o&& =&&&&&&& =&&****&&& =&&++&&&o&& =&&&&&&& =&&****",
"&&@ =&&+++&&&&& =&&&&&&& =&&****&&@ =&&+++&&&&& =&&&&&&& =&&****",
"&&@ =&&++++&&&@ =&&&&&&@ %%&****&&@ =&&++++&&&@ =&&&&&&@ %$&****",
"&&@ =&&&+&&&&&@ =&&&&&&@ %$&****&&@ =&&&+&&&&&@ =&&&&&&@ %$&****",
"&&@ =&&&&&&&&&@ =&&&&&&@ =$&****&&@ =&&&&&&&&&@ =&&&&&&@ =$&****",
"@@  @=&&@&@@@@  @=&&@@@  @=&*@@@@@  @=&&@&@@@@  @=&&@@@  @=&*@@@",
"                                                                ",
"=======@ &#========@ &#======@ *=======@ &#========@ &#======@ *",
"&&&&&&&= #&&&&&&&&&= #&&&&&&*= #&&&&&&&= #&&&&&&&&&= #&&&&&&*= #",
"&&&&&&&& =&&&&&oo&&& =&&&&&&** =&&&&&&&& =&&&&&OO&&& =&&&&&&** =",
"&&&&&&&@ =&&&&&&o&&@ =&&&&&&*@ =&&&&&&&@ =&&&&&&o&&@ =&&&&&&*@ =",
"&&&&&&&@ =&&&&&&Oo++ =&&&&&&*@ =&&&&&&&@ =&&&&&&oo++ =&&&&&&*@ =",
"&&&&&&&@ =&&&&&o&+++ =&&&&&&*@ =&&&&&&&@ =&&&&&O&+++ =&&&&&&*@ =",
"&@&@@@@  @=&&@&@@+++ @=&&@&@@  @&@&@@@@  @=&&@&@@+++ @=&&@&@@  @",
"                                                                "
};
