/* XPM */
static char *_c01eb8155ea4e48a3b3017d31a00ef2YWXcKqEm3MdosHZi[] = {
/* columns rows colors chars-per-pixel */
"64 64 13 1 ",
"  c None",
". c #3F3851",
"X c #89365C",
"o c #9E3B57",
"O c #AE444E",
"+ c #BF5753",
"@ c #D25654",
"# c #CD7363",
"$ c #E27F6D",
"% c #EDA27F",
"& c #FBCA97",
"* c #FFEAB7",
"= c #FFFAD6",
/* pixels */
" ........................................................$$&&&&&",
" *=*&&*==*&&%$.$%&&**=*&&%$.$%&&*.*=*&&$@..XOOO+O.+OOOX..$$&&&&*",
" &&&&&&&&&&&&$.$&&&&&&&&&&$.$&&&&.&&&&&$$..OOOO##.#OOOO..$$&&&&=",
" &&&&&&&&&&&&$.$&&&&&&&&&&$.$&&&&.&&&&&$$..XOOO+O.+OOOX..$$&&&&=",
" &&&&&&&&&&&%$.$%&&&&&&&&%$.$%&&&.&&&&%$$................$$&&&&*",
" &&&&&&&&&&%$$.$$%&&&&&&%$$.$$%&&.&&&%$$$....X+####+X....$$&&&&=",
" $$$$$$$$$$$$$.$$$$$$$$$$$$.$$$$$.$$$$$$$....O######O....$$&&&&*",
" $$$$$$$$$$$$@.@$$$$$$$$$$@.@$$$$.@$$$$$@....X+####+X....$$&&&&&",
" ........................................................$$&&&&*",
" ..........................................XOOO#O.+OOOX..$$&&&&*",
" .XoOOOoX.........XoOOOoX.........XoOOOOoX.OOOO##.#OOOO..$$%&&&&",
" .oOOOOOo.XOOOOOX.oOOOOOo.XOOOOOX.oOOOOOOo.XOOO#O.+OOOX..$$$%&&%",
" ........................................................@$$$$$$",
" ####O.O####O.O######O.O####O.O######O.O####O.O####+X...........",
" #####.######.########.######.########.######.######O....@$$$$$$",
" ####O.O####O.O######O.O####O.O######O.O####O.O####+X....$$$%&&%",
" ........................................................$$%&&&&",
" .O#####O.O#####O.O######O.O####O.O#####O.O#####O.+OOOX..$$&&&&&",
" .+#####+.+######.#######+.+####+.#######.#######.#OOOO..$$&&&&*",
" .XOOOOOX.XOOO+#O.O+OOOOOX.XOOOOX.O#####O.O#####O.+OOOX..$$&&&&*",
" ........................................................$$&&&&=",
" OOOX........X+####+X..XOOOX..XOOOOOX........X+####+X....$$&&&&*",
" ............O######O........................O######O....$$&&&&&",
" ............X+####+X........................X+####+X....$$%&&&&",
" .@$$$$$@................@$$$$$@..@$$$$$@................$$$%&&%",
" .$$$$$$$..XOOO+O.+OOOX..$$$$$$$..$$$$$$$..XOOO+O.+OOOX..@$$$$$$",
" .&&&%$$$..OOOO##.#OOOO..$$$%&&&..&&&%$$$..OOOO##.#OOOO.........",
" .&&&&%$$..XOOO+O.+OOOX..$$%&&&&..&&&&%$$..XOOO+O.+OOOX..@$$$$$$",
" .&&&&&$$................$$&&&&&..&&&&&$$................$$$%&&%",
" .&&&&&$$....X+####+X....$$&&&&&..&&&&&$$....X+####+X....$$%&&&&",
" .*=*&&$@....O######O....@$&&*=*..*=*&&$@....O######O....$$&&&&&",
" ............X+####+X........................X+####+X....$$&&&&*",
" .*&&&&$$.......................................................",
" .&&&&&$$..XOOO#O.+OOOX..@$&&*=*..*=*&&$@..XOO+#O.O+OOX..@$&&*=*",
" .&&&&%$$..OOOO##.#OOOO..$$&&&&&..&&&&&$$..OOO###.##OOO..$$&&&&&",
" .%&&%$$$..XOOO#O.+OOOX..$$&&&&&..&&&&&$$..XOO+#O.O+OOX..$$&&&&&",
" .$$$$$$@................$$%&&&&..&&&&%$$................$$%&&&&",
" ............X+####+X....$$$%&&&..&&&%$$$....X+####+X....$$$%&&&",
" .$$$$$$@....O######O....$$$$$$$..$$$$$$$....O######O....$$$$$$$",
" .%&&%$$$....X+####+X....@$$$$$@..@$$$$$@....X+####+X....@$$$$$@",
" .&&&&%$$.......................................................",
" .&&&&&$$..XOOO##O.........................XOO+#O...............",
" .*&&&&$$..OOOO###................XoOOOOoX.OOO###...............",
" .=&&&&$$..XOOO##O.........XOOOOX.oOOOOOOo.XOO+#O..........XOOOO",
" .*&&&&$$.......................................................",
" .*&&&&$$....X+######O.O####O.O##OOOOX.XOOOOX.O######O.XOOOOX.XO",
" .&&&&&$$....O########.######.#######+.+####+.########.+####+.+#",
" .&&&&%$$....X+######O.O####O.O######O.O####O.O######O.O####O.O#",
" .%&&%$$$.......................................................",
" .$$$$$$@..XOOO##O.O#####O.O####O.O######O.O#####O.O#####O.O####",
" ..........OOOO###.#######.######.########.#######.#######.#####",
" .$$$$$$@..XOOO##O.O#####O.O####O.O######O.O#####O.O#####O.O####",
" .%&&%$$$.......................................................",
" .&&&&%$$....X+####+X..XOOOX..XOOOOOOOX........XOOOOX.XOOOOX.XOO",
" .*&&&&$$....O######O...........................................",
" .*&&&&$$....X+####+X...........................................",
" .&&&&&$$................@$$$$$@.$$$$@.@$$$$$$$$$$@.@$$$$$$$$$$$",
" .*&&&&$$..XOOO#O.+OOOX..$$$$$$$.$$$$$.$$$$$$$$$$$$.$$$$$$$$$$$$",
" .=&&&&$$..OOOO##.#OOOO..$$$%&&&.&&%$$.$$%&&&&&&%$$.$$%&&&&&&&&&",
" .*&&&&$$..XOOO#O.+OOOX..$$%&&&&.&&&%$.$%&&&&&&&&%$.$%&&&&&&&&&&",
" .=&&&&$$................$$&&&&&.&&&&$.$&&&&&&&&&&$.$&&&&&&&&&&&",
" .=&&&&$$....X+####+X....$$&&&&&.&&&&$.$&&&&&&&&&&$.$&&&&&&&&&&&",
" .*&&&&$$....O######O....@$&&*=*.*&&%$.$%&&*=**&&%$.$%&&*==*&&*=",
" .&&&&&$$....X+####+X..........................................."
};
