/* XPM */
static char *_7a6fdd4c8d04bc1f42537adfb2fee43g4vBpjwJBLW5mpNP[] = {
/* columns rows colors chars-per-pixel */
"64 64 13 1 ",
"  c #3F3851",
". c #FFEAB7",
"X c #FFFAD6",
"o c #FBCA97",
"O c #EDA27F",
"+ c #E27F6D",
"@ c #D25654",
"# c #89365C",
"$ c #9E3B57",
"% c #AE444E",
"& c #CD7363",
"* c #BF5753",
"= c white",
/* pixels */
"                                                                ",
".X.oo.XX.ooO+ +Ooo..X.ooO+ +Ooo..X.oo.XX.ooO+ +Ooo..X.ooO+ +Ooo.",
"oooooooooooo+ +oooooooooo+ +oooooooooooooooo+ +oooooooooo+ +oooo",
"oooooooooooo+ +oooooooooo+ +oooooooooooooooo+ +oooooooooo+ +oooo",
"oooooooooooO+ +OooooooooO+ +OooooooooooooooO+ +OooooooooO+ +Oooo",
"ooooooooooO++ ++OooooooO++ ++OooooooooooooO++ ++OooooooO++ ++Ooo",
"+++++++++++++ ++++++++++++ ++++++++++++++++++ ++++++++++++ +++++",
"++++++++++++@ @++++++++++@ @++++++++++++++++@ @++++++++++@ @++++",
"                                                                ",
"                                                                ",
" #$%%%$#         #$%%%$#         #$%%%$#         #$%%%$#        ",
" $%%%%%$ #%%%%%# $%%%%%$ #%%%%%# $%%%%%$ #%%%%%# $%%%%%$ #%%%%%#",
"                                                                ",
"%%%# #%%%%%# #%%%%%%#        %&&&&&&%               #%%%%%# #%%%",
"&&&& &&&&&&& &&&&&&&&        &&&&&&&&               &&&&&&& &&&&",
"&&&% %&&&&&% %&&&&&&%        %&&&&&&%               %&&&&&% %&&&",
"                                                                ",
"                          %&&&&% %&&&&&% %&&&&&%                ",
"                          &&&&&& *&&&&&* *&&&&&*                ",
"                          %&&&&% #%%%%%# #%%%*&%                ",
"                                                                ",
"&&%         %&&&&&*#  #%%%#  #%%%%%#        #*&&&&&%        %&&&",
"&&&         &&&&&&&%                        %&&&&&&&        &&&&",
"&&%         %&&&&&*#                        #*&&&&&%        %&&&",
"                        %&&&&&%  %&&&&&%                        ",
"         %&&&&&% *%%%#  +++++++  +++++++  #%%%*% %&&&&&%        ",
"         &&&&&&& &%%%%  +++Oooo  oooO+++  %%%%&& &&&&&&&        ",
"         %&&&&&% *%%%#  ++Ooooo  ooooO++  #%%%*% %&&&&&%        ",
"                        ++ooooo  ooooo++                        ",
"            %&&&&&*#    ++ooooo  ooooo++    #*&&&&&%            ",
"            &&&&&&&%    @+oo.X.  .X.oo+@    %&&&&&&&            ",
"            %&&&&&*#                        #*&&&&&%            ",
"                                                                ",
"         %&&&&&% *%%%#  @+oo.X.  .X.oo+@  #%%%*% %&&&&%         ",
"         &&&&&&& &%%%%  ++ooooo  ooooo++  %%%%&& &&&&&&         ",
"         %&&&&&% *%%%#  ++ooooo  ooooo++  #%%%*% %&&&&%         ",
"                        ++Ooooo  ooooO++                        ",
"        *&% %&&&&&*#    +++Oooo  oooO+++    #*&&&&&%            ",
"        &&& &&&&&&&%    +++++++  +++++++    %&&&&&&&            ",
"        %&* %&&&&&*#    @+++++@  @+++++@    #*&&&&&%            ",
"                                                                ",
"          %&&&&&%                         #%%%&% %&&&&%         ",
"          &&&&&&&                #$%%%%$# %%%%&& &&&&&&         ",
"          %&&&&&%         #%%%%# $%%%%%%$ #%%%&% %&&&&%         ",
"                                                                ",
"&&&%         %&&&&&&% %&&&&% %&&&&&&% %&&&&%                %&&&",
"&&&&         &&&&&&&& &&&&&& &&&&&&&& &&&&&&                &&&&",
"&&&%         %&&&&&&% %&&&&% %&&&&&&% %&&&&%                %&&&",
"                                                                ",
"         %&&&&&&% %&&&&&% %&&&&% %&&&&&&% %&&&&&&% %&&&&&&%     ",
"         &&&&&&&& &&&&&&& &&&&&& &&&&&&&& &&&&&&&& &&&&&&&&     ",
"         %&&&&&&% %&&&&&% %&&&&% %&&&&&&% %&&&&&&% %&&&&&&%     ",
"                                                                ",
"%%%%%#        #%%%%# #%%%%# #%%%%%%# #%%%%#          #%%%%%%# #%",
"                                                                ",
"                                                                ",
"++++@ @++++++++++@ @++++++++++++++++@ @++++++++++@ @++++++++++++",
"+++++ ++++++++++++ ++++++++++++++++++ ++++++++++++ +++++++++++++",
"ooO++ ++OooooooO++ ++OooooooooooooO++ ++OooooooO++ ++Ooooooooooo",
"oooO+ +OooooooooO+ +OooooooooooooooO+ +OooooooooO+ +Oooooooooooo",
"oooo+ +oooooooooo+ +oooooooooooooooo+ +oooooooooo+ +oooooooooooo",
"oooo+ +oooooooooo+ +oooooooooooooooo+ +oooooooooo+ +oooooooooooo",
".ooO+ +Ooo.X..ooO+ +Ooo.XX.oo.X..ooO+ +Ooo.X..ooO+ +Ooo.XX.oo.X.",
"                                                                "
};
