/* XPM */
static char *_64fd3a7f54a494ee18cf31a79596f5exEBYIkVfD712JFk8[] = {
/* columns rows colors chars-per-pixel */
"64 64 13 1 ",
"  c None",
". c #3F3851",
"X c #89365C",
"o c #9E3B57",
"O c #AE444E",
"+ c #BF5753",
"@ c #D25654",
"# c #CD7363",
"$ c #E27F6D",
"% c #EDA27F",
"& c #FBCA97",
"* c #FFEAB7",
"= c #FFFAD6",
/* pixels */
"                                                                ",
"................................................................",
"................................................................",
"................................................................",
"................................................................",
"................................................................",
"................................................................",
"................................................................",
"................................................................",
"................................................................",
"..........................O####O.........O#####O................",
"..................O+###+O.######.O+###+O.#######................",
"..................+#####+.O####O.+#####+.O#####O................",
"................................................................",
".............O######O.O####O.O######O.O####O....................",
".............########.######.########.######....................",
".............O######O.O####O.O######O.O####O....................",
"................................................................",
"..........O#####O.O#####O.O####O.O#####O.O#####O.O####O.........",
"..........#######.######+.+####+.+#####+.+#####+.######.........",
"..........O#####O.+OOOOOX.XOOOOX.XOOOOOX.XOOO+#O.O####O.........",
"................................................................",
"............O#####+X..XOOOX..XOOOOOX........X+#####O.O##O.......",
"............#######O........................O#######.####.......",
"............O#####+X........................X+#####O.O##O.......",
"........................@$$$$$@..@$$$$$@........................",
".........O#####O.+OOOX..$$$$$$$..$$$$$$$..XOOO+O.O#####O........",
".........#######.#OOOO..$$$%&&&..&&&%$$$..OOOO##.#######........",
".........O#####O.+OOOX..$$%&&&&..&&&&%$$..XOOO+O.O#####O........",
"........................$$&&&&&..&&&&&$$........................",
"............O#####+X....$$&&&&&..&&&&&$$....X+#####O............",
"............#######O....@$&&*=*..*=*&&$@....O#######............",
"............O#####+X........................X+#####O............",
"................................................................",
".........O#####O.+OOOX..@$&&*=*..*=*&&$@..XOOO+O.O####O.........",
".........#######.#OOOO..$$&&&&&..&&&&&$$..OOOO##.######.........",
".........O#####O.+OOOX..$$&&&&&..&&&&&$$..XOOO+O.O####O.........",
"........................$$%&&&&..&&&&%$$........................",
"........+#O.O#####+X....$$$%&&&..&&&%$$$....X+#####O............",
"........###.#######O....$$$$$$$..$$$$$$$....O#######............",
"........O#+.O#####+X....@$$$$$@..@$$$$$@....X+#####O............",
"................................................................",
"..........O#####O.........................XOOO#O.O####O.........",
"..........#######................XoOOOOoX.OOOO##.######.........",
"..........O#####O.........XOOOOX.oOOOOOOo.XOOO#O.O####O.........",
"................................................................",
".............O######O.XOOOOX.XOOOOOOX.XOOOOX.O######O...........",
".............########.+####+.+######+.+####+.########...........",
".............O######O.O####O.O######O.O####O.O######O...........",
"................................................................",
"..........O#####O.O#####O.O#####.O######O.......................",
"..........#######.#######.######.########.......................",
"..........O#####O.O#####O.O#####.O######O.......................",
"................................................................",
"...............+####+........O######O.+####+....................",
"...............O+##+O........########.O+##+O....................",
".............................O######O...........................",
"................................................................",
"................................................................",
"................................................................",
"................................................................",
"................................................................",
"................................................................",
"................................................................"
};
