/* XPM */
static char *df0af8239c8243d4fbd41410fa9da990P3CWWM45xklikyaL[] = {
/* columns rows colors chars-per-pixel */
"64 64 13 1 ",
"  c None",
". c #3F3851",
"X c #89365C",
"o c #9E3B57",
"O c #AE444E",
"+ c #BF5753",
"@ c #D25654",
"# c #CD7363",
"$ c #E27F6D",
"% c #EDA27F",
"& c #FBCA97",
"* c #FFEAB7",
"= c #FFFAD6",
/* pixels */
"............................................................... ",
"..........O###O.+OOOX..@$&&*=*..*=*&&$@..XOOO+O.O####O......... ",
"..........#####.#OOOO..$$&&&&&..&&&&&$$..OOOO##.######......... ",
"..........O###O.+OOOX..$$&&&&&..&&&&&$$..XOOO+O.O####O......... ",
".......................$$%&&&&..&&&&%$$........................ ",
"...........O#####+X....$$$%&&&..&&&%$$$....X+#####O............ ",
"...........#######O....$$$$$$$..$$$$$$$....O#######............ ",
"...........O#####+X....@$$$$$@..@$$$$$@....X+#####O............ ",
"............................................................... ",
"........O######O.........................XOOO#O................ ",
"O+###+O.########................XoOOOOoX.OOOO##................ ",
"+#####+.O######O.........XOOOOX.oOOOOOOo.XOOO#O................ ",
"............................................................... ",
"###O.O####O.O######O.XOOOOX.XOO####O.O####O.O######O........... ",
"####.######.########.+####+.+#######.######.########........... ",
"###O.O####O.O######O.O####O.O######O.O####O.O######O........... ",
"............................................................... ",
"O#####O.O#####O.O######O.O####O.O#####O.O#####O.O######O....... ",
"+#####+.+######.#######+.+####+.#######.#######.#######+.+####+ ",
"XOOOOOX.XOOO+#O.O+OOOOOX.XOOOOX.O#####O.O#####O.O+OOOOOX.XOOOOX ",
"............................................................... ",
"OOX........X+####+X..XOOOX..XOOOOOX........X+####+X..XOOOX..XOO ",
"...........O######O........................O######O............ ",
"...........X+####+X........................X+####+X............ ",
"@$$$$$@................@$$$$$@..@$$$$$@................@$$$$$@. ",
"$$$$$$$..XOOO+O.+OOOX..$$$$$$$..$$$$$$$..XOOO+O.+OOOX..$$$$$$$. ",
"&&&%$$$..OOOO##.#OOOO..$$$%&&&..&&&%$$$..OOOO##.#OOOO..$$$%&&&. ",
"&&&&%$$..XOOO+O.+OOOX..$$%&&&&..&&&&%$$..XOOO+O.+OOOX..$$%&&&&. ",
"&&&&&$$................$$&&&&&..&&&&&$$................$$&&&&&. ",
"&&&&&$$....X+####+X....$$&&&&&..&&&&&$$....X+####+X....$$&&&&&. ",
"*=*&&$@....O######O....@$&&*=*..*=*&&$@....O######O....@$&&*=*. ",
"...........X+####+X........................X+####+X............ ",
"............................................................... ",
"*=*&&$@..XOOO#O.+OOOX..@$&&*=*..*=*&&$@..XOOO+O.+OOOX..@$&&*=*. ",
"&&&&&$$..OOOO##.#OOOO..$$&&&&&..&&&&&$$..OOOO##.#OOOO..$$&&&&&. ",
"&&&&&$$..XOOO#O.+OOOX..$$&&&&&..&&&&&$$..XOOO+O.+OOOX..$$&&&&&. ",
"&&&&%$$................$$%&&&&..&&&&%$$................$$%&&&&. ",
"&&&%$$$....X+####+X....$$$%&&&..&&&%$$$....X+####+X....$$$%&&&. ",
"$$$$$$$....O######O....$$$$$$$..$$$$$$$....O######O....$$$$$$$. ",
"@$$$$$@....X+####+X....@$$$$$@..@$$$$$@....X+####+X....@$$$$$@. ",
"............................................................... ",
".........XOOO##O.........................XOOO#O................ ",
"XoOOOOoX.OOOO###................XoOOOOoX.OOOO##................ ",
"oOOOOOOo.XOOO##O.........XOOOOX.oOOOOOOo.XOOO#O..........XOOOOX ",
"............................................................... ",
"OOOX.XOOOOX.O######O.O####O.O######O.O####O.O######O.XOOOOX.XOO ",
"###+.+####+.########.######.########.######.########.+####+.+## ",
"###O........O######O.O####O.O######O.O####O.O######O........O## ",
"............................................................... ",
".................O#####O.O####O.O#####O.O#####O.O####O......... ",
".................#######.######.#######.#######.######......... ",
".................O#####O.O####O.O#####O.O#####O.O####O......... ",
"............................................................... ",
"###O.......O#####+X..XOOOX..XOOOOOX........X+#####O........O### ",
"####.......#######O........................O#######........#### ",
"###O.......O#####+X........................X+#####O........O### ",
".......................@$$$$$@..@$$$$$@........................ ",
"........O#####O.+OOOX..$$$$$$$..$$$$$$$..XOOO+O.O#####O........ ",
"........#######.#OOOO..$$$%&&&..&&&%$$$..OOOO##.#######........ ",
"........O#####O.+OOOX..$$%&&&&..&&&&%$$..XOOO+O.O#####O........ ",
".......................$$&&&&&..&&&&&$$........................ ",
"...........O#####+X....$$&&&&&..&&&&&$$....X+#####O............ ",
"...........#######O....@$&&*=*..*=*&&$@....O#######............ ",
"...........O#####+X........................X+#####O............ "
};
