/* XPM */
static char *d1afcaa3e30d4f9ba9c995890e14523ehILQErqNp0KDjpaj[] = {
/* columns rows colors chars-per-pixel */
"64 64 256 2 ",
"   c black",
".  c #0000A8",
"X  c #00A800",
"o  c #00A8A8",
"O  c #A80000",
"+  c #A800A8",
"@  c #A85400",
"#  c gray66",
"$  c gray33",
"%  c #5454FC",
"&  c #54FC54",
"*  c #54FCFC",
"=  c #FC5454",
"-  c #FC54FC",
";  c #FCFC54",
":  c gray99",
">  c #ECECEC",
",  c gainsboro",
"<  c #D0D0D0",
"1  c #C0C0C0",
"2  c #B4B4B4",
"3  c gray66",
"4  c #989898",
"5  c gray55",
"6  c #7C7C7C",
"7  c gray44",
"8  c #646464",
"9  c gray33",
"0  c #484848",
"q  c gray22",
"w  c #2C2C2C",
"e  c #202020",
"r  c #FC0000",
"t  c #EC0000",
"y  c #E00000",
"u  c #D40000",
"i  c #C80000",
"p  c #BC0000",
"a  c #B00000",
"s  c #A40000",
"d  c #980000",
"f  c #880000",
"g  c #7C0000",
"h  c #700000",
"j  c #640000",
"k  c #580000",
"l  c #4C0000",
"z  c #400000",
"x  c #FCD8D8",
"c  c #FCB8B8",
"v  c #FC9C9C",
"b  c #FC7C7C",
"n  c #FC5C5C",
"m  c #FC4040",
"M  c #FC2020",
"N  c #FC0000",
"B  c #FCA85C",
"V  c #FC9840",
"C  c #FC8820",
"Z  c #FC7800",
"A  c #E46C00",
"S  c #CC6000",
"D  c #B45400",
"F  c #9C4C00",
"G  c #FCFCD8",
"H  c #FCFCB8",
"J  c #FCFC9C",
"K  c #FCFC7C",
"L  c #FCF85C",
"P  c #FCF440",
"I  c #FCF420",
"U  c #FCF400",
"Y  c #E4D800",
"T  c #CCC400",
"R  c #B4AC00",
"E  c #9C9C00",
"W  c #848400",
"Q  c #706C00",
"!  c #585400",
"~  c #404000",
"^  c #D0FC5C",
"/  c #C4FC40",
"(  c #B4FC20",
")  c #A0FC00",
"_  c #90E400",
"`  c #80CC00",
"'  c #74B400",
"]  c #609C00",
"[  c #D8FCD8",
"{  c #BCFCB8",
"}  c #9CFC9C",
"|  c #80FC7C",
" . c #60FC5C",
".. c #40FC40",
"X. c #20FC20",
"o. c #00FC00",
"O. c #00FC00",
"+. c #00EC00",
"@. c #00E000",
"#. c #00D400",
"$. c #04C800",
"%. c #04BC00",
"&. c #04B000",
"*. c #04A400",
"=. c #049800",
"-. c #048800",
";. c #047C00",
":. c #047000",
">. c #046400",
",. c #045800",
"<. c #044C00",
"1. c #044000",
"2. c #D8FCFC",
"3. c #B8FCFC",
"4. c #9CFCFC",
"5. c #7CFCF8",
"6. c #5CFCFC",
"7. c #40FCFC",
"8. c #20FCFC",
"9. c #00FCFC",
"0. c #00E4E4",
"q. c #00CCCC",
"w. c #00B4B4",
"e. c #009C9C",
"r. c #008484",
"t. c #007070",
"y. c #005858",
"u. c #004040",
"i. c #5CBCFC",
"p. c #40B0FC",
"a. c #20A8FC",
"s. c #009CFC",
"d. c #008CE4",
"f. c #007CCC",
"g. c #006CB4",
"h. c #005C9C",
"j. c #D8D8FC",
"k. c #B8BCFC",
"l. c #9C9CFC",
"z. c #7C80FC",
"x. c #5C60FC",
"c. c #4040FC",
"v. c #2024FC",
"b. c #0004FC",
"n. c #0000FC",
"m. c #0000EC",
"M. c #0000E0",
"N. c #0000D4",
"B. c #0000C8",
"V. c #0000BC",
"C. c #0000B0",
"Z. c #0000A4",
"A. c #000098",
"S. c #000088",
"D. c #00007C",
"F. c #000070",
"G. c #000064",
"H. c #000058",
"J. c #00004C",
"K. c #000040",
"L. c #282828",
"P. c #FCE034",
"I. c #FCD424",
"U. c #FCCC18",
"Y. c #FCC008",
"T. c #FCB400",
"R. c #B420FC",
"E. c #A800FC",
"W. c #9800E4",
"Q. c #8000CC",
"!. c #7400B4",
"~. c #60009C",
"^. c #500084",
"/. c #440070",
"(. c #340058",
"). c #280040",
"_. c #FCD8FC",
"`. c #FCB8FC",
"'. c #FC9CFC",
"]. c #FC7CFC",
"[. c #FC5CFC",
"{. c #FC40FC",
"}. c #FC20FC",
"|. c #FC00FC",
" X c #E000E4",
".X c #C800CC",
"XX c #B400B4",
"oX c #9C009C",
"OX c #840084",
"+X c #6C0070",
"@X c #580058",
"#X c #400040",
"$X c #FCE8DC",
"%X c #FCE0D0",
"&X c #FCD8C4",
"*X c #FCD4BC",
"=X c #FCCCB0",
"-X c #FCC4A4",
";X c #FCBC9C",
":X c #FCB890",
">X c #FCB080",
",X c #FCA470",
"<X c #FC9C60",
"1X c #F0945C",
"2X c #E88C58",
"3X c #DC8854",
"4X c #D08050",
"5X c #C87C4C",
"6X c #BC7848",
"7X c #B47044",
"8X c #A86840",
"9X c #A0643C",
"0X c #9C6038",
"qX c #905C34",
"wX c #885830",
"eX c #80502C",
"rX c #744C28",
"tX c #6C4824",
"yX c #5C4020",
"uX c #543C1C",
"iX c #483818",
"pX c #403018",
"aX c #382C14",
"sX c #28200C",
"dX c #600064",
"fX c #006464",
"gX c #006060",
"hX c #00001C",
"jX c #00002C",
"kX c #302410",
"lX c #480048",
"zX c #500050",
"xX c #000034",
"cX c gray11",
"vX c #4C4C4C",
"bX c gray36",
"nX c gray25",
"mX c gray19",
"MX c #343434",
"NX c #D8F4F4",
"BX c #B8E8E8",
"VX c #9CDCDC",
"CX c #74C8C8",
"ZX c #48C0C0",
"AX c #20B4B4",
"SX c #20B0B0",
"DX c #00A4A4",
"FX c #009898",
"GX c #008C8C",
"HX c #008484",
"JX c #007C7C",
"KX c #007878",
"LX c #007474",
"PX c #007070",
"IX c #006C6C",
"UX c #980088",
/* pixels */
"w w w w w w w w w w w w w w w w w w w w w w w w w w w w w w w w w w w w w w w w w w w w w w w w w w w w w w w w w w w w w w w w ",
"$ $ $ $ $ $ $ $ $ $ $ $ $ $ $ $ $ $ $ e e e e e $ $ $ $ 0 0 0 0 0 0 0 0 $ $ $ $ $ $ $ $ $ $ $ $ $ $ $ $ $ $ $ $ $ $ $ $ $ $ $ $ ",
"$ , , , , , , , , , , , , , , , , , , , , 3 7 e $ 0 3 1 , , , , , , , < 3 6 0 q $ $ 7 3 , , , 1 3 5 5 7 8 9 0 0 0 0 0 0 0 0 0 $ ",
"$ , , , 1 1 1 1 1 1 1 1 1 1 1 1 1 1 1 1 1 7 $ e $ 3 , , < < < < < < < < < 3 6 q 0 $ 3 , , , , , , , , , , , , , , , , < 1 1 2 4 ",
"$ , , 1 5 4 # # # # # 4 e e e e e e e e e e e e e e e e e e e e e e e e e e e e e e e e e e e e e e e e e , , , , , , , , , , , ",
"$ , 1 # # # 6 5 # # 4 # e 1 1 1 1 1 1 1 1 1 1 1 1 1 1 1 1 1 1 1 1 1 1 1 1 1 1 1 1 1 1 1 1 1 1 1 1 1 1 1 e 5 5 # # 5 5 # # 5 5 # ",
"$ 2 1 5 # 5 # 6 # 5 4 4 e 1 8 7 1 1 1 1 1 1 1 1 1 1 1 1 1 1 1 1 1 1 1 1 1 1 1 1 1 1 1 1 1 1 1 1 1 8 7 1 e # 5 6 5 # 5 6 5 # 5 5 ",
"$ 2 1 4 # # 5 # 5 5 5 4 e 1 0 8 1 1 1 1 1 1 1 1 1 e e e e e e e e e 1 1 1 1 1 1 1 1 1 1 1 1 1 1 1 0 8 1 e 5 # 4 # 5 # 4 # 5 # 4 ",
"$ 5 1 5 4 5 # 5 # 4 # 4 e 1 1 1 1 1 1 1 1 1 1 e e e e e e e e e e e e e e 1 1 1 1 1 1 1 1 1 1 1 1 1 1 1 e 6 # 4 4 # # 4 4 # 6 4 ",
"$ 5 1 5 5 4 5 5 5 5 5 5 e 1 1 1 1 1 1 1 1 1 e e e e e e e e e e e e e e e e e 1 1 1 1 1 1 1 1 1 1 1 1 1 e 5 5 # 5 # 5 # 5 # 5 4 ",
"e 7 1 # 5 4 # # 4 5 4 # e 1 1 1 1 1 1 1 1 1 e e e e e e e e e e e e e e e e e e 1 1 1 1 1 1 1 1 1 1 1 1 e # 4 5 4 4 4 5 4 4 4 5 ",
"e $ 1 5 4 5 # 5 5 4 # 5 e 1 1 1 1 1 1 1 1 1 e ,Xe e e e e e e e e e e e e e e e e 1 1 1 1 1 1 1 1 1 1 1 e 5 4 5 7 7 8 8 $ $ $ $ ",
"e $ 1 6 # # 5 4 5 4 # # e 1 1 1 1 1 1 1 1 1 e ,X,Xe e # e e e 6 e e e e e e e e e 1 1 1 1 1 1 1 1 1 1 1 e $ $ $ $ $ $ $ $ 0 0 q ",
"q $ 6 $ $ $ $ $ 8 7 6 6 e 1 1 1 1 1 1 1 1 e ,X,X,X,Xe e ,Xe 4 e 6 e e e e e e e e 1 1 1 1 1 1 1 1 1 1 1 e $ 0 0 q q w e e e e e ",
"q e e e e q 0 0 $ $ $ $ e 1 1 1 1 1 1 1 1 e ,X,X,X,X,Xe ,Xe ,X4 # 5 6 4 e e e e e e 1 1 1 1 1 1 1 1 1 1 e e e e e e e e e e e e ",
"$ q e e e e e e w w w w e 1 1 1 1 1 1 1 1 e ,Xe 0 2 1 ,X,X,X,X,X5 # 6X6X6 e e e e e 1 1 1 1 1 1 1 1 1 1 e e e w w q q q q q 0 $ ",
"5 6 7 $ 0 q q e e e e e e 1 1 1 1 1 1 1 1 e ,Xe e e 3X5 ,X,X,X,X3X6X,X3X6X$ e e e e 1 1 1 1 1 1 1 1 1 1 e $ $ $ $ $ $ $ 7 6 3 3 ",
", , , 1 1 3 5 6 $ $ $ $ e 1 1 1 1 1 1 1 1 1 e 3X0 e e 3X,X,X,X,X3X3X3X,X6X$ e e e e 1 1 1 1 1 1 1 1 1 1 e 1 4 q $ $ 6 4 1 > > > ",
", , , , , , , , , , , , e 1 1 1 1 1 1 1 1 e ,X3X3X3X3X,X3X,X,X,X,X,X3X,X6X$ e e e 1 1 1 1 1 1 1 1 1 1 1 e 5 $ q $ 5 1 , , 2 1 4 ",
"# # 1 1 < , , , , , , , e 1 1 1 1 1 1 1 e ,X,X,X,X,X,X,X,X,X,X,X,X3X,X6X$ $ q e 1 1 1 1 1 1 1 1 1 1 1 1 e 5 $ q $ 3 , < 1 1 4 2 ",
"5 # # # 4 5 1 1 # 1 # 1 e 1 1 1 1 1 1 e ,X,X,X3X3X,X,X,X,X,X,X,X,X,X,X6X3X$ q e 1 1 1 1 1 1 1 1 1 1 1 1 e 5 $ q $ 1 , 2 # 4 4 # ",
"# 5 5 5 5 # 4 5 4 5 # # e 1 1 1 1 1 1 1 e e e e ,X3X,X,X,X,X,X,X,X6X6X3X3X$ q e 1 1 1 1 1 1 1 1 1 1 1 1 e 5 $ q $ 1 , 1 5 4 5 5 ",
"5 5 4 5 4 # # # # 4 5 5 e 1 1 1 1 1 1 1 1 e iXyX,X,X,X,X,X,X,X3X3X3X3X3X3X3Xw e 1 1 1 1 1 1 1 1 1 1 1 1 e 5 $ e $ 1 , 3 5 5 5 4 ",
"5 # # 5 # 4 # 5 4 # # 4 e 1 1 1 1 1 1 1 1 e 3X3X3X,X,X,X,X,X3X3X3X3X3X3X,X3Xe 1 1 1 1 1 1 1 1 1 1 1 1 1 e 4 $ e 0 , , 5 4 # # 4 ",
"# 5 5 # 5 4 5 5 5 5 # 5 e 1 1 1 1 1 1 1 1 e 3X,X,X3X,X,X,X,X3X3X3X,X3X3X,X3Xe 1 1 1 1 1 1 1 1 1 1 1 1 1 e 5 $ e 0 , , # 5 4 5 5 ",
"5 # 5 5 4 5 # 4 5 # 4 4 e 1 1 1 1 1 1 1 1 e ,X,X,X,X,X,X,X3X3X3X3X,X,X3X3X3Xe 1 1 1 1 1 1 1 1 1 1 1 1 1 e 4 $ e 0 , , 5 # 4 4 4 ",
"$ $ $ $ 7 7 5 5 5 5 5 5 e 1 1 1 1 1 1 1 1 e ,X,X,X,X3X3X3X3X3X3X,X,X,X3Xe e rXe 1 1 1 1 1 1 1 1 1 1 1 1 e $ $ e 0 , 3 6 $ $ $ $ ",
"$ $ $ $ $ $ $ $ $ $ $ $ e 1 1 1 1 1 1 1 1 1 e 3X3X3X3X3X,X3X3X3X,X,Xe e 0X0XrXe 1 1 1 1 1 1 1 1 1 1 1 1 e q q e 0 3 6 $ $ $ $ $ ",
"e e e e e q q q q q q q e 1 1 1 1 1 1 1 1 1 1 e e 3X,X,X3X3X3X,Xe e 0X0X0X0X0XrXe e 1 1 1 1 1 1 1 1 1 1 e e e e e e e e e e e e ",
"e e e e e e e e e e e e e 1 1 1 1 1 1 1 1 1 1 1 1 e 3X3X3X3Xe e 0X0X0X0X0XrX0X0Xe rXe e 1 1 1 1 1 1 1 1 e q q q e e e e e e e e ",
"$ $ 0 q q w w w e e e e e 1 1 1 1 1 1 1 1 1 1 1 e e 3X3Xe e 0X0X0X0X0XrX0X0Xe e rXrXrXrXe e e 1 1 1 1 1 e $ $ $ $ $ $ $ $ q $ $ ",
"$ $ $ $ 0 0 0 0 0 0 0 0 e 1 1 1 1 1 1 1 1 1 1 e 0X0Xe e 0X0X0X0XrXrXrX0Xe e rXrX0X0X0X0X0X0X0Xe 1 1 1 1 e , , , , , , 1 3 w q $ ",
"$ $ 7 3 2 , , , , , , , e 1 1 1 1 1 1 1 1 1 e e 0Xe e e 0XrXrXrXrXrX0Xe rXrX0XrXrX0X0X0X0X0X0X0Xe 1 1 1 e , , , , , 1 3 7 w w $ ",
"$ 0 3 , , , , , , , , , e 1 1 1 1 1 1 1 1 e e 0Xe rXrXe 0X0X0X0X0Xe e rX0X0X0XrX0X0X0X0X0X0XrX0X0Xe 1 1 e 5 5 # 5 # 5 7 $ e w $ ",
"$ 0 2 , 2 # # # 5 # 5 # e 1 1 1 1 1 1 1 e e e 0Xe rXrXe 0X0X0Xe e rXrX0X0X0Xe rX0X0X0X0XrXrX0X0X0X0Xe 1 e 5 # 4 5 5 5 $ q e e $ ",
"$ 0 , , 5 # 5 # # # 5 # e 1 1 1 1 1 1 e rXe e 0Xe rXrXe 0Xe e rXrX0X0X0XrXe rX0X0X0XrX0X0X0X0X0X0X0Xe 1 e # 5 5 # 5 5 $ q e e $ ",
"$ 0 , , # 4 4 5 4 5 # 4 e 1 1 1 1 1 1 e rXe e 0X0Xe rXe e rXrXrX0X0X0XrX0Xe 0Xe rXrX0X0X0X0X0X0X0X0Xe 1 e 4 5 # 4 # 4 $ q e e $ ",
"$ 0 , , 5 4 5 # 5 4 5 5 e 1 1 1 1 1 e 0X0XrXe e e rXe rXrXrX0XrX0X0XrX0Xe rXe rXrX0X0X0X0X0X0X0X0X0Xe 1 e 5 5 4 4 5 4 $ q e e $ ",
"$ 0 , 3 5 5 # 5 5 5 5 5 e 1 1 1 1 1 e 0X0X0Xe e e rXe 0X0XrXrX0X0X0X0X0XrXrXe rX0X0X0X0X0X0X0X0XwX0Xe 1 e 4 5 5 4 4 # $ q e e $ ",
"$ 0 3 7 7 7 5 5 4 5 # 5 e 1 1 1 1 e 0X0X0X0XrXe rXrXe 0XrX0XrX0X0X0X0Xe rXe 0X0X0X0X0X0X0X0X0XwX0X0Xe 1 e # # # 4 5 # $ q e e $ ",
"$ 0 9 9 9 0 7 # # 5 5 5 e 1 1 1 1 rXe 0X0X0XrXe rXrXe 0XrX0XrX0X0X0XwXe e e e 0X0X0X0X0X0XrXrXwX0XwXe 1 e 5 # 5 # # 5 $ q e e $ ",
"$ 0 q q e e 0 $ $ $ $ $ e 1 1 1 1 e rXe 0XrXrXe rXrXe 0XrXrX0X0X0XwXwXe 4 , , e e 0X0XrXrXrXrX0X0Xe 1 1 e # 4 # 5 4 5 $ q e e $ ",
"$ $ $ $ q e e q q q q q e 1 1 1 e 0Xe 0X0X0XrXe rXrXe 0XrXrX0X0XwXe e 4 w w 9 , O e rX0X0X0XrX0XwXe e 1 e 5 4 5 4 5 # $ q e e $ ",
"$ $ $ $ $ q e e e e e e e 1 1 1 e 0X0XrX0XrXe rXrXrXe rX0X0XwXwXe 4 w , w < , , , O e e 0X0XrX0XwXe e 1 e 5 5 4 5 5 7 $ q e e $ ",
"$ $ $ $ $ $ q q w w w w e 1 1 1 e 0X0X0X0XrXe rXrXrXe rX0XwXwXe g 4 9 w w w w 9 1 O O O e 0X0XwXe wXe 1 e $ $ $ $ $ $ $ q e e $ ",
"$ $ 0 0 $ $ $ $ $ $ $ $ e 1 1 e 0X0X0X0XrXrXe rXrXe 0X0XrXwXwXg f O , , , w , w 1 O O O d e wXwXe wXe 1 e q q q q q q q q e e $ ",
"$ 4 1 1 1 1 2 4 7 8 9 9 e 1 1 e 0X0X0X0XrXe rXrXrXe 0X0XwXe 0Xe e O 4 w w 9 , 1 1 O O d d g e e wXwXe 1 e e e e e e e e e e q $ ",
"$ 1 , , , , , , , , , , e 1 1 e 0X0X0X0XrXe rXrXrXe wXwXe e 0X0X0Xe O 4 1 1 1 1 O O O d g g e wXwXwXe 1 e e e e l e e e e q q $ ",
"$ 1 , , < < < < < < < < e 1 1 e 0X0X0XrXrXe rXrXe wXe e e e e e 0X0Xe O O O O O O d d g g g e wXwXwXe 1 e w w w l w w w q q $ $ ",
"$ 1 , < 4 5 5 5 5 # # 4 e 1 1 1 0X0X0XrXrX0Xe e e e 0XrXe rXe e 0X0X0Xe e O O O d d g g g e rXwXwXwX1 1 e 0 $ 0 0 0 0 0 0 0 0 e ",
"$ 1 < 4 5 5 4 # # # 4 5 e 1 1 1 1 0Xe e e e e e 0X0X0X0XrXe rXe 0X0X0X0X0Xe O d d g g g e rXrX0X0XwX1 1 e 3 3 3 3 3 3 3 3 3 6 e ",
"$ 1 < 5 4 # 5 5 5 4 5 5 e 1 1 1 1 e 1 1 1 1 e rXe 0X0X0X0Xe 0X0XrX0X0X0XwXe d d g g g e rXrX0X0X0Xe 1 1 e , , , , , , , , 1 $ e ",
"$ 1 < # 5 # # 5 # 4 5 # e 1 1 1 1 1 1 1 1 1 e 0XrXe 0X0X0X0X0X0X0X0X0XwXwXwXe g g e e rX0X0X0X0X1 1 1 1 e 5 5 # # 5 5 # 5 5 $ e ",
"$ 1 < # # 4 5 4 5 5 5 5 e 1 1 1 1 1 1 1 1 1 1 0X0XrX0X0X0X0Xe 0X0X0XwXwXwXwXe g e rXrX0X0X0X1 1 1 1 1 1 e 5 5 # 5 # 5 5 # 5 $ e ",
"$ 1 < 5 4 5 # 5 # 5 # 5 e 1 1 1 1 1 1 1 1 1 1 1 0X0X0X0X0X0X0X0X0XwXwXwXwXwXwXe rX0X0X0X1 1 1 1 1 1 1 1 e # 4 5 5 # 5 4 5 # $ e ",
"$ 1 < # 5 4 5 5 5 4 5 # e 1 1 1 1 1 1 1 1 1 1 1 1 1 0X0X0X0X0XwXwXwXwXwXwXe e rX0X0X1 1 1 1 1 1 1 1 1 1 e 5 5 5 4 5 # 5 # 5 $ e ",
"$ 1 < 5 # 5 4 5 5 5 5 5 e 1 1 1 1 1 1 1 1 1 1 1 1 1 1 1 0XwXwXwXwXwXwXe e 1 1 0X0X1 1 1 1 1 1 1 1 1 1 1 e 4 5 # 5 4 5 4 4 8 $ e ",
"$ 1 < 5 5 4 5 5 5 5 5 5 e 1 1 1 1 1 1 1 1 1 1 1 1 1 1 1 1 wXwXwX1 1 1 1 1 1 1 1 1 1 1 1 1 1 1 1 1 1 1 1 e 8 8 8 8 8 8 8 8 $ $ e ",
"$ 1 < # 5 5 5 5 5 # 5 4 e 1 1 1 1 1 1 1 1 1 1 1 1 1 1 1 1 1 1 1 1 1 1 1 1 1 1 1 1 1 1 1 1 1 1 1 1 1 1 1 e $ $ $ $ $ $ $ $ $ q e ",
"$ 1 < 5 5 5 # 5 4 5 # # e e e e e e e e e e e e e e e e e e e e e e e e e e e e e e e e e e e e e e e e e e e e e e e e e e e e ",
"$ 4 2 8 8 8 8 8 8 8 8 8 8 $ 0 q e $ 0 e e e e e e e e e e e e e e e e e e e e e e e e q $ q q e e e e e e e e e e e e e e e e e ",
"$ $ 7 0 0 0 0 q q q q q q q q w e $ 0 e e e e e e e e e e e e e e e e e e e e e e e e q $ $ q q q q q q q q q q q q q q q q q $ ",
"$ e e e e e e e e e e e e e e e e $ $ 0 q w w w w w w w w w w w w w w w w w w w w w q $ $ $ $ $ $ $ $ $ $ $ $ $ $ $ $ $ $ $ $ $ ",
"q q q q q q q q q q q q q q q q q q q q q q q q q q q q q q q q q q q q q q q q q q q q q q q q q q q q q q q q q q q q q q q q "
};
