/* XPM */
static char *result[] = {
/* columns rows colors chars-per-pixel */
"64 64 140 2 ",
"   c #353D24",
".  c #363C2B",
"X  c #3A3E2E",
"o  c #3A3D32",
"O  c #3D3D3C",
"+  c #3C442A",
"@  c #3F482B",
"#  c #3E4235",
"$  c #3F413B",
"%  c #41472D",
"&  c #424A2E",
"*  c #404535",
"=  c #454D31",
"-  c #484E34",
";  c #41433D",
":  c #454A3B",
">  c #494D3E",
",  c #4B5236",
"<  c #4D533A",
"1  c #50563B",
"2  c #525A3E",
"3  c #444444",
"4  c #474944",
"5  c #4A4B44",
"6  c #474748",
"7  c #4B4B4B",
"8  c #4E5243",
"9  c #4F504C",
"0  c #525546",
"q  c #555B41",
"w  c #595E44",
"e  c #52534C",
"r  c #56594A",
"t  c #5A5D4C",
"y  c #4F4F50",
"u  c #545453",
"i  c #575854",
"p  c #5A5C54",
"a  c #575758",
"s  c #5C5C5B",
"d  c #5C6246",
"f  c #5E644A",
"g  c #5E6253",
"h  c #5E605A",
"j  c #61664B",
"k  c #666A4E",
"l  c #686C4F",
"z  c #626555",
"x  c #666A53",
"c  c #6A6D52",
"v  c #63655B",
"b  c #696759",
"n  c #66695A",
"m  c #6A6C5C",
"M  c #6D7155",
"N  c #6E715B",
"B  c #717256",
"V  c #71755B",
"C  c #75795E",
"Z  c #797A5F",
"A  c #5F5F60",
"S  c #656564",
"D  c #686764",
"F  c #676864",
"G  c #6B6C65",
"H  c #676768",
"J  c #686768",
"K  c #6C6C6B",
"L  c #6F7163",
"P  c #6F706B",
"I  c #727464",
"U  c #7F7765",
"Y  c #767963",
"T  c #7B7D63",
"R  c #73746B",
"E  c #7A7469",
"W  c #77796B",
"Q  c #7A7D6C",
"!  c #6F6F70",
"~  c #706F70",
"^  c #737473",
"/  c #797774",
"(  c #777872",
")  c #797A74",
"_  c #7B7C7B",
"`  c #827E63",
"'  c #8F7E65",
"]  c #837A69",
"[  c #8A7E6C",
"{  c #917F66",
"}  c #837E74",
"|  c #7F8064",
" . c #7D806D",
".. c #7E8076",
"X. c #848066",
"o. c #8A8066",
"O. c #85836B",
"+. c #8D836B",
"@. c #91846B",
"#. c #9B866E",
"$. c #838273",
"%. c #8E8172",
"&. c #82827C",
"*. c #89857A",
"=. c #85887A",
"-. c #8C8C7D",
";. c #928870",
":. c #9D8B73",
">. c #928C7D",
",. c #9C8E7D",
"<. c #A28E75",
"1. c #A49077",
"2. c #A59178",
"3. c #A9967D",
"4. c #7F7F80",
"5. c #818181",
"6. c #8D8B84",
"7. c #8E8D8D",
"8. c #978D81",
"9. c #908E8A",
"0. c #8F9084",
"q. c #919083",
"w. c #95928E",
"e. c #949494",
"r. c #9A9A9A",
"t. c #AF9D87",
"y. c #AF9D88",
"u. c #B09D87",
"i. c #A19B93",
"p. c #B5A28D",
"a. c #A7A29D",
"s. c #ACA49C",
"d. c #B3A392",
"f. c #B2A69A",
"g. c #A7A7A7",
"h. c #AFABA6",
"j. c #ADADAD",
"k. c #B0AAA3",
"l. c #B0AFAE",
"z. c #B3B3B3",
/* pixels */
"* @ = & & & & & = & @ & = = > 7 6 6 7 7 7 7 7 7 7 7 7 7 y 7 7 7 7 7 7 y u 6 7 7 7 7 7 7 7 7 7 3 7 3 - - & @ & & & & & & & & & @ ",
"8 2 k c M l l M M c 2 2 x M z h a i v P G G ^ R ^ _ / _ _ _ ! A s H ^ _ _ _ ^ _ R / ~ G P G g u s v c m d 2 j m M B l l B l f = ",
"0 d Z @.:.#.#.:.<.:.T V +.#.[ _ h z Y 9.:.r.d.p.f.l.j.z.z.j.r._ K 7.g.z.z.j.z.h.d.d.a.,.8.=.c s K } @.#.Z V +.:.#.:.#.#.#.X.M , ",
"0 d T T o.o.o.X.X.| C l U E I K s v T &.$.w.w.;.8.e.e.e.r.e.7.! S 5.7.r.r.e.e.7.@.>.e.=.$.} V s A / I ] V M T X.X.X.o.+.X.` B , ",
"> 1 j k M M l l k l c j x g p s a r k N N P ^ G K _ _ ^ _ ^ K A A H ! _ _ ^ _ ^ K R ^ L m m d a s A t n k k l l l l l M l k d & ",
"> % , = = & = = = = , , < , * 7 a > = & = 5 y 7 7 y y u y 7 7 y a 7 6 7 u y u 7 7 7 7 - & = = e u ; = 1 = , , = = = = , = , & + ",
"8 , & & & & = & = & = = = - : e s 0 = & & : 7 7 6 7 7 7 7 7 7 u s 7 7 7 7 7 7 7 7 7 6 = & & - a a 4 : = = = = & = = & & & & , & ",
"8 q j l M M M M M M B B M I R S s g j l M I ) _ _ 5.5.5.5._ ^ H S K _ _ 5.5.5._ _ / Q B M l f h A K I V M B B M M c M M c k f , ",
"< d Z @.<.1.1.:.<.<.2.2.3.d.g._ s n C @.1.y.f.f.z.z.z.z.z.j.r._ K 7.j.l.z.z.z.z.h.f.d.3.:.X.N s S e.s.t.1.2.1.<.:.:.<.<.#.X.l , ",
"8 d | | ` X.X.Z C T T O.O.q.-._ s v T ` ` >.w.6.7.e.r.e.e.7.e.4.K 7.7.e.r.e.r.7.7.6.w.O.` ` V p H 6.-.-.X.X.| Y Z | X.| X.X.V , ",
"< q l M B | V c M M M Y Y  .Q ^ s p M L I $...) _ _ 5.5.5._ 4.! S _ _ _ 5.5.5._ ) ) 5.T I G k u S )  ...Y Y M c l M | | B M k - ",
"5 q k l M V M x M c N | Y ..Q K a f x K L Q _ Y _ _ 5.5.5._ _ H A ^ _ _ 5.4.4._ Q Q _ Y P m j a S ^ |  .C C N M c l V M l k j - ",
"> 2 k c M M M l c c L Y Y  .Q K a t x K P W _ Y _ _ 5.5.4._ ^ H A ^ _ _ 5.5.5._ W Q _ I K m j a A (  . .Y Y m c M c M M c l j - ",
"8 2 k l c M M l c M L W W  .) K a r x G P W _ N ( _ 5._ 4._ ^ H S ! ^ _ 5.4.5.( R I _ I K m f e A ^ |  .W Y N x l c M M c l f - ",
"> 2 l k x M M l c m L R W | Q K u t k H G P ) N I ( _ _ 4./ ~ H A ! ! _ _ _ _ W I I _ G K m j a s ^  .Q W P L c l l M x l l j = ",
": 1 k l x c l x x M L ( W T Q H a p k S K ( _ N I ) _ _ _ / K H A ! ! _ _ _ _ I V I _ K H v j a s ^ | Y W P N l x x M x l l f & ",
"> 1 k x z M l z x c I R C T W J u t k S G _ ^ N Y Q _ _ _ ^ ! H A ! ! _ / _ _ W L L _ R S n k u a ^ | Y I I L M v x M x z l f = ",
": q k x x m x v x c G I C  .R K u r k v x R R c I R _ / R ! ! S s P ! R ^ ) ) R N m ( N n z d e s P Y  .C L n x n x c n x x f , ",
": q k k x x x n x m m L C ) R S y 8 j k l L R l L I ^ ) V R ! H s K ! L W / I I M N ( c x x q 9 s ! Q  .M L n n x v n z l l j = ",
": 1 k k z x x S z b m m C Q R A 7 5 d k l G I c L P K I N K K S s K K L I P K K M m P c l j < 6 u H W W M G n x z n l x k k f = ",
"# @ , - , , , 8 , 0 > , < q e 7 ; # = 2 2 q h w s s s t r u u 7 6 u u i t p h s r t p 2 2 1 & $ 6 y 0 2 < 8 > , < < , > = , = + ",
"o . .                       O O O O X X # # $ # O 3 ; $ O O O O O O o O $ O ; 3 $ $ # # X X o O O $ . +   +   +               X ",
"# # % @ + @ & = = & % & = % ; 3 3 7 6 4 6 6 3 6 7 5 6 7 6 7 6 3 3 6 6 6 6 7 7 7 6 3 6 5 6 6 6 7 3 3 # @ @ @ @ = = * % + + % = @ ",
"g j j j w j k k k k k d g f v S v c x k k k x x F H K H S K K S A H K S S K G G m x k k k k x c h S g g d f x k k k k f d j j g ",
"v k l x j l k k j d f l m x K K S n j j z n x c m J ^ ^ ! ! ^ K H ^ ~ ! ^ ^ ! S c c x n k f x S G ! m n M j f f k j k k j l l f ",
"g f k l f k f f d d d k m g F K S s f g z S k c v n K K H H H H S H H H K K G S x k v S g f g h H K g n x f d d j f k j j l k f ",
"g f j j f j f f d d d f n f v S v h h v v S z n v z K K H S S S A S S S S K n v x z v S v v h h S S g z k d d f f j j f f k f d ",
"8 , = & & & , , 1 1 , 1 e 0 u u u e a a a u u u u u a u u u u u u u u u a a a u u u u i a a u u u u 9 e q , , 1 , , , % & & , , ",
"< = & = = = = , = : : 4 8 5 6 7 > - 0 0 > 9 e 7 e u y 6 7 7 7 7 7 7 7 7 7 7 y u y 9 y 5 , u < - 6 7 4 8 7 : : : = - = = & = = & ",
"0 d M B c l M B n v h S m z s y 8 f I R c ( _ ) 5.4.4._ _ _ ! S A H ^ _ / _ _ 5._ ) _ I N ( x q 7 a h c S v v v M B c k M M k 2 ",
"p M X.o.@.' +.o.+.O.$.} @.` P s 8 M =.8.,.a.d.d.k.z.l.l.l.j.r._ K 7.g.z.j.j.z.j.f.p.s.i.:.7.Y d y S I [ %._ +.+.+.@.o.' @.X.Z f ",
"t M C T ` ` Z | | | W W E G S a 0 N ..$.*.e.8.;.9.e.e.e.e.e.7.! S 5.7.e.r.e.r.e.>.@.w.7.$.&.U j y v G G U R T T Z T | ` | Z Z j ",
"q d l c M c l k k c N c v f y y 8 d n N L ^ R G ! _ _ ^ _ ^ K A A S K _ / ^ _ ^ K I ^ I L m j 2 0 u r g M c N c k k l M M k j 2 ",
"< & = = , = = = = , , - , = $ 3 , = = & - 7 7 7 7 y u y u 7 6 u a 7 7 y u y u y 7 7 7 4 = = , & 7 O * > , , , = = = = = = = , @ ",
"r = & & & = = = = = = = - : ; 9 1 - = = = 6 7 7 6 7 7 7 7 6 7 u s 7 7 7 7 7 7 6 7 7 7 : & & = , 8 6 * - = = = & = = = = = @ = , ",
"g f l l M M c c M M B N V I G g q f k c B ( ) _ _ 5.5.5.5.4.^ H S K _ 4.5.4.5.4._ _ / I M l j d t v I I B B B M M M M c M l f d ",
"g N X.:.1.1.:.<.<.1.1.1.y.s.7.G w M X.:.3.d.f.h.z.z.z.z.z.l.r._ K 7.g.z.z.z.z.z.h.h.d.u.1.@.Z f g _ i.d.3.1.1.1.<.:.<.<.<.+.Z j ",
"f M ` T X.X.Z Z | C o.| -.=.9.G q B T ` O.w.q.7.7.7.r.e.r.7.e.5.K e.7.e.e.e.e.e.7.6.e.-.X.Z | f r 5.0.0.O.O.X.Y Z Z X.X.| | | j ",
"w k M B C C M c c M Y Y  . ...h 1 k m I Y 5.) ) _ _ 5.5.5._ _ ! S _ _ 4.5.5.5._ _ ) &...V L M w 0 ! Q  .Y Y V c l l V | B M l d ",
"r f k M V C l c M N Y C  . .^ h 1 j G ! Y ..) _ _ 4.5.5.5._ _ H A ! 4.5.5.5.4._ _ Q _ Q I K l 2 0 K Q ..Y | L M M l M C M l k d ",
"r j l M M M l M c N Y Y  .| ^ g < j m K I _ ) ) _ _ 5.5.5._ _ S S ^ _ 4.5.5.4._ _ ( _ W L K x w 2 K W ..Y T N M l l c V M l k d ",
"r j l l M M l l c L L W ..W ^ g 1 j n K I _ Q ^ _ 4.4.4._ _ / H A ! _ _ 5.5.4._ _ R _ W K G x w q G W  .W R I m c l c M l l k d ",
"r f k k c M l c x N I (  .| P g 1 j x K G ) / ^ I _ 4...5._ ! K S ! ^ _ ..5._ ) R ( ( I G H l w q H W Q W R L m c l M M k l k 2 ",
"r f l k x M x x l G R W Y | ! A 1 f m J K _ ^ ^ W _ 4.5.4._ ! H S ! ^ _ 5.5._ ) I ! _ ^ K F x 2 t H W | T ^ L c l l c M x l k 2 ",
"r f l v x c x n x N I I T T R g 1 j n J R _ ! ^ Y _ _ 5._ _ ^ S A ! ^ _ 4.4._ ) W ! _ / H S x 2 w G W | C R L c x x l M n x k 2 ",
"r j l x n c v n c G L C T Q L g , j v v I _ K ^ W ( _ _ _ ^ ! K A ! ! _ 4._ ^ Q ) ! ^ ( n S x 2 1 F Y  .Y I m m x v x m x x l d ",
"r j l k x x v x c n L M Q ) L g 1 j n z m / R ^ Y ( _ _ _ ^ ! H A ! ^ ( _ _ / R W ^ ( R x n x q 2 F P ..C N m m x n z n l k k d ",
"q j l x x x m n x m G N Q Q L f 1 j x n m R K R I / _ _ _ / ! S A K ! _ _ _ _ I I P P L z x l q q n R  .Y m m m x F x k x k k w ",
"0 j l l n l b v x G G m T W P g 2 j x x m W I P I ( _ R _ ^ ! H s ! ! ^ ( ^ ^ I L P W P x x f d q m ^ | Y n H n x F x x x l k d ",
"r j l k n x x x m m G m T W L g 1 j n x G I M P L ( _ I / ^ ! H A ! ! _ I _ _ P P L N P x n x 2 0 n I  .Y n H n x n x x x l k q ",
"0 j k l l k x k v J G c W Y N p 1 f z x L I N K I _ _ P ^ ^ ! H A K ! _ R _ _ R P L N W c n l d 0 m I | N n H H c x x l k l k d ",
"0 j l k l c n x m S S x I V G p , f x l I W M P P ( _ L R ^ ! S s ! ! ^ L W _ W P N N ( c x l 2 8 h L I N n F G x x x M k l k q ",
"5 j k c c c x k m v S n I M m i - f x c L Y l L P R ) V ( K ! H s K ! ^ L W ^ P P M M ^ M l x 2 5 h N V N n S n c k l M c l k 2 ",
"> w k l l l k k n v S n I M k 0 * d l l G P l L P P I N P ! K h s H ! ! L N R P P M N P x k f < > f x N F F v h x k l c l l j 2 ",
"* = 2 2 q 2 2 q 2 q q q t t 2 : + = 1 q q p d s A s t t s s a 7 6 u s s p d p A s f r g q 2 < @ # > d g d q q q 2 2 2 2 2 2 < % ",
"+ + + + @ + @ @ + + + @ + X + O + + + @ @ # # $ O O O O O O O O O O o O O O O O $ # # # + + + + + # + . + + + + + + + @ + + + + ",
"# @ + + + + + + + + + + + + + + # # # # $ $ $ O O O O O O O O 3 3 O O O O O O O $ $ O $ # $ # # # + + + + + + + + + + + + + + @ ",
"r 2 2 2 1 1 1 1 2 1 2 q 2 2 1 2 r a s p a s s u a a s s a a a s s a a a A A s a i s a s a i h i 2 2 2 2 2 q q 2 1 < 1 1 1 2 2 < ",
"m j k l c c x x n G G c x l x l L ( Y I V W ( I ^ ^ ^ _ _ ! ^ ^ ^ ^ ^ ^ ^ _ ^ ^ I ^ ^ Y C I I ! c k c k l n K n x k x M c l k k ",
"m j k c c c k k f H m c x z k f m K G N M L ( m G ^ _ _ ~ ! K J H K ! ! ^ _ ^ ! N I ^ M M N P K f f g x l N G n k x l M l l f k ",
"g f f l l l l f d v n c k F g f h K n c x G R m G K / _ K K S S S S J K ^ ^ ^ K m L ^ n c x F H g g F h c c F f d k l c l k d f ",
"g k f k M c k d f z z x g H S h S K n x j K L n m G ^ ^ K J H S S H J H ! _ K S m n P h x x G K h v G n g x g f d f l l c f k f ",
"x j j l l l f h f g z n S K K h S K n n v K c v n n ! ^ J H S S S S H S ! ^ K x n f L G g x H H h S K F h x h f g f k l l j f f ",
"d w 2 2 2 d d r w r g g f g g r r z h h s v t r i g S K A a a A s s a a S K n t e g g A h h h f r g h g f g g q r d d d w 2 w w "
};
