/* XPM */
static char *result[] = {
/* columns rows colors chars-per-pixel */
"64 64 134 2 ",
"   c #100B09",
".  c #141412",
"X  c #192C12",
"o  c #27251F",
"O  c #2C241C",
"+  c #25321B",
"@  c #28341C",
"#  c #2E3B1D",
"$  c #323E1F",
"%  c #242423",
"&  c #2C2724",
"*  c #2E2F2A",
"=  c #3B2F20",
"-  c #2E3324",
";  c #2E3A21",
":  c #373724",
">  c #353D24",
",  c #383F26",
"<  c #34342F",
"1  c #35392B",
"2  c #393E2D",
"3  c #3B3735",
"4  c #3D3D3D",
"5  c #453C2F",
"6  c #483D2C",
"7  c #4E3F33",
"8  c #453F3A",
"9  c #30421E",
"0  c #354125",
"q  c #394126",
"w  c #3D452B",
"e  c #3F482D",
"r  c #3E4331",
"t  c #494227",
"y  c #464825",
"u  c #40472C",
"i  c #4C442A",
"p  c #41492E",
"a  c #51452A",
"s  c #434434",
"d  c #4B4335",
"f  c #454C31",
"g  c #494F33",
"h  c #4D4639",
"j  c #4D4C3B",
"k  c #544433",
"l  c #594634",
"z  c #544D33",
"x  c #5D4C35",
"c  c #534839",
"v  c #5D4D38",
"b  c #465134",
"n  c #4B5135",
"m  c #4E5539",
"M  c #5D5236",
"N  c #52563A",
"B  c #5C5538",
"V  c #54593E",
"C  c #5C5D3A",
"Z  c #60482C",
"A  c #644E3D",
"S  c #6D523F",
"D  c #3F3F40",
"F  c #444444",
"G  c #494A47",
"H  c #4C4C4B",
"J  c #574E41",
"K  c #4E5143",
"L  c #515445",
"P  c #565C41",
"I  c #595E42",
"U  c #53554C",
"Y  c #57584A",
"T  c #5A5C4D",
"R  c #545352",
"E  c #585754",
"W  c #5B5D50",
"Q  c #5C5C5C",
"!  c #6C4B44",
"~  c #7D4D44",
"^  c #724E49",
"/  c #655242",
"(  c #625D44",
")  c #6E5945",
"_  c #695449",
"`  c #635B48",
"'  c #6F584D",
"]  c #715545",
"[  c #7D5445",
"{  c #725B47",
"}  c #735C49",
"|  c #7D5D49",
" . c #635F52",
".. c #5B6246",
"X. c #5E6549",
"o. c #61664B",
"O. c #69654B",
"+. c #64694D",
"@. c #696A4F",
"#. c #616451",
"$. c #676C50",
"%. c #6A6E52",
"&. c #6C6D5E",
"*. c #786151",
"=. c #716E54",
"-. c #736D5A",
";. c #6D7155",
":. c #6F7458",
">. c #737257",
",. c #7F7057",
"<. c #73755A",
"1. c #7A765C",
"2. c #75795D",
"3. c #7B7A5E",
"4. c #5F5F60",
"5. c #646464",
"6. c #6F6F6F",
"7. c #7C7C61",
"8. c gray47",
"9. c #854D4B",
"0. c #866141",
"q. c #936F5A",
"w. c #827057",
"e. c #81795F",
"r. c #837C62",
"t. c #8A7C62",
"y. c #937E62",
"u. c #848065",
"i. c #958164",
"p. c #9A8365",
"a. c #978269",
"s. c #9B866A",
"d. c #9F896E",
"f. c #A08A70",
/* pixels */
"u w p p g p p p p p p p p p p q e w p p p p p p p y e e u p u p e p p g p p p p p p p u p p p q p p p p g u p p p p p p p u p q ",
"m ..@.;.;.%.@.@.@.%.O.@.%.+.V g m V O.%.%.%.@.%.@.%.+.%.@.o.V m n ..@.>.%.%.%.=.@.@.+.@.@.+.V p n ..@.;.%.%.%.%.@.@.O.@.;.+.V g ",
"I 3.y.p.p.p.s.s.p.i.y.i.i.e.%.N ..2.y.i.p.p.i.i.i.i.i.p.y.e.%.V V 1.i.s.p.a.p.p.p.p.y.y.i.u.%.m I 1.y.p.p.p.s.p.p.p.y.y.i.3.@.V ",
"V @.3.u.e.3.u.3.3.u.e.e.3.3.;.V B <.3.<.<.1.2.2.<.3.<.:.1.e.>.V V >.3.e.e.u.u.7.3.u.e.e.3.3.;.V C @.3.u.r.3.u.3.3.u.e.e.3.3.;.V ",
"N V ..@.@.o.%.o.o.+.+.%.o.X.V n m V o.o.....o.o.....I X...X.V n V C o.%.+.+.;.o.o.o.+.+.o.X.V n V V ..+.@.+.%.o.o.+.+.%.+.X.V n ",
"n u w p n p p p w p w p e p w p p u w u u w p p w u w e w w w f n w w p g p b p w w p p u e w f n w w p n p p p e u w u w u w p ",
"n u w p e w p p w w u w w w p n n w p p p e w w q e w p p u e n n w e w e p p w w w w w e e e n n w w w e w p p w w u u w w u m ",
"V ..@.@.%.=.=.@.;.@.@.;.@.+.V N V ..@.%.%.@.%.%.+.O.+.+.@.+.V N V X.@.>.@.%.=.@.;.%.%.;.%.o.C N V ..@.;.%.=.=.@.;.@.@.%.%.+.V N ",
"I 1.i.p.s.s.f.p.p.p.s.s.p.u.;.V I 3.i.i.i.y.i.i.i.e.3.3.u.e.;.m V <.i.p.d.s.d.s.p.p.p.s.p.7.;.V I 1.i.p.f.s.d.p.p.p.s.s.i.u.@.V ",
"..3.3.1.r.u.e.2.2.3.e.e.3.3.;.n I <.3.3.e.e.3.3.1.2.<.:.3.3.;.n ..3.3.e.e.e.u.2.3.2.e.r.3.3.;.m I 3.3.1.e.3.u.3.2.3.e.3.e.e.:.m ",
"C +.;.;.<.:.:.;.%.;.2.:.;.;.o.n V %.:.2.<.3.;.;.;.%.X.X.+.@.o.n V @.;.>.:.<.:.;.@.;.:.2.;.%.X.n C +.;.;.2.:.:.%.%.;.2.<.;.;.X.n ",
"V o.;.;.:.:.;.;.%.+.;.<.@.o.V n N X.:.2.:.2.%.%.@.+.I ..X.o.V n V o.%.;.:.:.;.;.;.+.;.:.%.+.V n V X.;.;.;.:.;.;.%.+.:.:.%.o.V n ",
"V X.+.;.:.;.;.%.+.o.:.;.+.o...b N ..;.:.;.;.;.+.o.o.....X.o.V n m X.+.:.:.:.;.+.%.X.;.;.+.X.I b N X.$.;.;.:.;.%.+.+.;.;.+.X...p ",
"V X.+.;.;.;.;.+.o.o.;.@.o.X.V p V ..$.;.$.;.%.+.+.X.V ..X...V p N X.+.;.<.;.;.;.+.X.$.$.+...I p N ..+.;.:.:.;.+.+.X.;.%.o.X.I p ",
"V X.X.%.;.;.;.+.X.X.;.+.o...I n n ..$.$.%.%.%...X...I ..X.V V p m X.o.;.;.;.o.o.X...+.%.X.....n V X.X.;.;.;.;.+.X.X.%.+.o...I n ",
"m ..X.%.;.;.%.X.X.X.+.+.o.X.V n b ..;.$.X.+.X...X...I ......V p m ..o.;.@.;.o.X.X.X.+.%.X...I b n ..X.+.$.;.%.X.X...%.+.X...I n ",
"m ....;.;.;.+.X...X.+.$.o.X.V b n ..+.+.+.+...X.X.X.P ....P m p n ..o.%.+.%.$.$.X...o.+.X...V n n ....;.%.%.%.X...X.$.+.o.X.P n ",
"n ..X.$.o.+.;.o...X.$.o.X.....f n ..o.$.+.o.X.......P P P m m e g ..X.$.o.%.$.$.X.X.o.@.X.X.P f n ....+.+.$.%.o...X.$.o.X.X.P f ",
"n ....+.+.+.;.X.....%.+.+.X.P p n X.o.o.X.X...X.X.X.P P P b n w g ..X.$.+.;.$.X...X.o.;.o.X.V u n ....+.o.$.%.X...X.%.$.o.X.P u ",
"n V ..X.o.+.+.....X.@.o.+.X.V e p V o.o.X...X...X.X.I P L e b w f P ..o.o.%.o.......X.o.X...N e b ....X.o.$.$.......$.o.$.X.V e ",
"w u g n n n n n g g n g n n u q q f P m b b m m m P m m f 1 q 0 e f f g m m f g b b b g g n u 0 q p b n n g n f n f n n n b u 0 ",
"> > > > > > > > > > > > > > 0 > 2 q e e w 0 q q q q 0 q 0 % * > > > > > > > > > > > > > > > > 2 > > 0 ; > > > > > > > > > > > 2 ",
"q q w q w w q w w w w w q w e w e f b n b f f n g p u u r * 1 w w w q r w q e e w w q e w q w q w e e f e e f f e e w 2 > e u f ",
"N I I C V ....V I V V I I I V I P b b m m b m X.V o...P m ; 0 ..P P n n P m f m V n g V N b N ..V n m m n b m X.o...I P P X...X.",
"I o.X.X...X.X.+.o...X.+.+.@.+.X.f $ $ $ 9 0 q V ..m V V f X @ V ..I q q I g w g V q q C p $ g $.f $ $ $ # $ w ..$.o...V ..X...I ",
"N P V I ......X.X.V X.X.o.+.....g i i y C ` C +.B > b N s X @ N I V i M o.` O.A B t z I g a B o.z i t t i z A o.+.X.P m N P P I ",
"N V V P ........X.V ..X.o.X.....@.O.O.O.%.>.<.:.m u n f w + # m V o.@.>.;.$.o.>.o.O.o.I C ( O.o.@.O.O.O.@.=.>.%...P N f n P V V ",
"p f f f f n n n n p p n n n n n N N V V V V V V m g b u u u u m n n N N m m m m n f f p f n m m m V V ..V B V I m f f u f n m m ",
"u u u e e u u p e w p u p p p w w w u f f u u f u u p p p e w u b n p p u w u f w p p w w e e e p u p p u u f p u u u u e f e e ",
"N ..+.;.%.;.%.%.;.@.@.=.@.+.V b n P %.%.;.%.@.;.%.;.@.@.+.X.V m V o.+.O.o.O.+.@.+.o.o.O.+.o.V n m ..@.@.=.%.%.;.%.%.@.@.%.o.V n ",
"I 1.y.p.p.p.p.s.i.i.y.y.i.e.;.m I 1.y.y.i.i.i.a.f.s.i.i.y.e.@.V ..1.i.p.p.a.s.a.p.p.y.y.y.e.+.V I 1.i.p.p.p.a.s.p.a.y.y.i.r.$.V ",
"V =.3.r.t.3.r.7.3.u.e.e.e.3.;.V P <.3.2.<.1.3.3.e.e.<.2.<.e.>.V C @.3.t.e.7.u.3.3.u.e.e.e.3.;.V C @.3.u.r.3.r.7.7.r.e.r.3.3.%.V ",
"N V X.+.;.o.$.X.o.+.o.$.o.X.N n m P I o.X...o.o.I o.I ....X.V n V V o.@.+.+.;.o.o.+.+.+.+.X.N n N V o.+.%.o.+.o.o.+.+.%.o.X.V n ",
"n w w p f f f e w u e f e e e f f u w u e q f u w w w e w u u f n w u p n p b p u w w p p p w g n w w u g f f u e u u u w u w f ",
"n u w e e w e w w e e w w w u m g u u u e e e w w w w e u u u g n e w w u w w w w w w u w w u m n p w w w w e e e w w w w w e n ",
"N ..@.;.%.%.;.;.%.$.%.%.%.o.V N V I %.%.%.$.%.%.+.O.+.$.%.+.V m V ..@.;.=.;.=.%.;.%.%.%.%.+.V V V ..@.%.=.%.=.%.%.%.%.%.%.+.V V ",
"o.1.i.p.d.s.f.s.p.p.s.s.i.r.%.V I 1.y.y.y.y.y.y.y.t.e.7.t.r.;.m P 3.i.s.s.s.f.s.p.p.p.s.p.e.@.V C 3.y.p.d.s.d.s.p.i.s.s.i.r.%.V ",
"O.e.u.u.u.u.u.u.e.t.u.w.w.7.:.m I 1.7.r.7.r.r.3.3.2.:.>.2.3.;.b ..3.3.7.r.r.r.2.2.3.3.r.3.3.<.m I 3.3.3.r.7.r.3.1.3.r.7.3.7.>.m ",
"X.2.2.3.7.7.7.2.=.>.3.q.q.3.X.n ..;.2.<.7.<.%.;.;.%.+.X.+.;.X.b ..<.2.7.7.7.1.} *.<.;.X.%.$.X.n V %.;.;.<.:.<.%.;.;.2.<.;.%...n ",
"..;...L K L K K L L L L T o.V n V %.<.>.<.:.%.;.$.$.X...+.X.V b I %.$.#.$.+.#.O.+.X.........V n N o.%.;.;.>.;.;.@.+.;.:.%.o.I g ",
"I X.s D 4 F 4 3 4 3 D F F K I n P X.<.:.:.%.%.;.+.+.X...X.X.V b V X.j h s h h c h d i s d K I n V o.%.%.;.:.;.%.@.+.;.;.+.o...b ",
"..o.F H Q Q H F F D F E 4.L V b P o.;.;.;.%.$.%.+.X.X...X.X...b P I c _ 9.9.0.} } } ' 9./ c V b m X.@.;.:.:.;.;.+.o.;.;.+.o.I p ",
"I o.G H 8.6.R F F D F 4.5.L P p P o.:.;.;.;.o.$.X.X.X.......P e P I x [ ^ } 0.} { ] [ ^ A z P u N X.+.;.;.:.;.+.o.o.:.;.o.X.V p ",
"....G F 4.4.H F F F H 5.5.K L e P X.:.:.;.%.$.$...X...X...X.P e P P 8 l a l x l l l c 7 d j V e N ..o.;.;.:.;.+.o.+.;.+.o.X.V p ",
"I o.G G H F F F D F F Q R Y V p P o.;.;.;.;.o.+.X.......X.X.V g V I c / ! ] { { } } S S A N P f N ..o.;.;.:.;.o.o.X.;.+.o.....p ",
"I ;.G F D F F F F F F F F T ..b m o.%.$.%.$.o.o.X.X.X...o.+...p P ` x ] ~ ] { { ] ] ] _ A c P n N ....%.;.:.;.o.o...%.+.X...V b ",
"o.2.O.G 5 h K L R R H H E &...p P $.%.o.;.$.$.X.X.o.X...X.+.o.b P $.j l h l l l k k k Z c Y P f m ....;.;.;.;.X.o.X.%.+.o...V n ",
"o.<.r.>.x ` 2.7.<.7.7.7.r.7...f P $.;.o.$.;.o.X.X.o.X.....X.X.f V <.&...I I o.V P ....( +.<.I f n ....%.%.;.%.o.X.X.+.+.X...I p ",
"P ;.;.+.6 k %.%.%.:.:.>.>.%.P m m $.;.X.%.$.X.X.X.............b m o.<.2.2.2.2.;.;.:.:.%.:.;.P n m ....;.;.%.$.X.X.X.$.o.X.X...b ",
"P o.s : % * %.%.$.$.$.P r P P f m o.;.X.$.X.X.X.......P ....V u m ..@.:.;.;.X.X...X.o.o.X.X.P n m ....%.;.;.%.X...X.+.$.o.X.P n ",
"P X.2 O . % #.<.%.%.%.P b P P g m X.$.X.$.X.X.X.X.........P P u n ..+.;.+.;.+.+.....o.+.+.X.I n b ....$.$.$.;.o.....+.+.o...P n ",
"V %.g =   & W <.>.%.%.2.-.%.P f m X.$.$.$.o.X.X.......P P I P e n X.o.+.o.;.;.%.X...o.%.+.X.P u n ....$.o.+.%.X.X.X.$.+.o...P p ",
"V 7.o.J & 3 X.%.%.@.;.<.<.;.P u m ..$.X.+.o.X.X.X.....P P P V w n o.o.+.o.%.$.+.....X.;.+.o.P u n ....o.o.$.;.....X.%.+.$.X.V p ",
"m %.7.-. .#.$.+.o.+.%.%.%.$.V u m P X.X...I ........P P P P N w f ..X.+.o.+.X...X...o.+.o.o.V e b P ..X.X.+.+.......o.X.o...V u ",
"q f m N N I N m m n N N n g p w q f g n n f n b b b f f g g u 0 q p m m V V n N m n n V n g f q q p n m m V m m m n n N n n p w ",
"> > > > > 1 > > > > , , , > > > > > > > > > > > ; > > > 1 0 e 2 > > > > > q > > > 0 > 0 > > > q 0 > > > > 0 q > > > q q > > > 0 ",
", , > > > 0 > > > > q > > > > 0 > > 2 > 0 > > > > , , , > q p q , > > > > > > > 0 > > 0 > > > > > > > > > 0 > > > > q > > > > 0 ",
"n g g n n m n n n n n n n n n f f f g n n f f n g g f p f f n n n n g n n N n g n n n n n g n n n n g n n m n n n n n n n n n f ",
"o.o.o.o.+.%.+.o.o.o.%.+.+.o.o...I ..X.o.o.o.X.X.....I V V ..X.X.o.o.o.o.@.%.o.o.X.o.+.@.+.o.o.o.o.+.X.o.+.@.+.o.X.+.%.+.+.X.o.X.",
"I I ....X.%.o...X.+.%.%.+...X.I I ....X.%.X.X.X...P V N N V V ....I ....o.%.o.X...+.+.;.o.........V X...o.%.o...X.o.%.%.+...X.I ",
"V V I ....+.o.V I o.+.%.o...I V I V I ..o.X...I P N N n n N B V V V P ..o.$.o...V o.o.%.o...o.V V V I ....+.o.V P o.+.;.o.....V ",
"V V I I I +.o.P P X.+.$.o.....P V V I ..o.X.I P V V m p f N V m V P V I X.+.....V ..O.+.o.....V V V I I ..o.o.P P X.+.+.o.....P ",
"V V V P I o.X.V V ..o.X.X.I ..V N V V I o.I C P V N g u p m V V V V V V X.o...P V V o.o.......V V V V V I o.X.V V ..o.o.X.I ..V ",
"m m n n m P V n n n V V V N m n g g n N I N N m m m p u p p g n m m n n V V m n n n m N V m m n m m n n N V V n n n V V V N m n "
};
