/* XPM */
static char *result[] = {
/* columns rows colors chars-per-pixel */
"64 64 111 2 ",
"   c #0F0B09",
".  c #141413",
"X  c #21201E",
"o  c #2B241D",
"O  c #372B14",
"+  c #3B2E16",
"@  c #3C2F1D",
"#  c #3E3017",
"$  c #2B2825",
"%  c #36302B",
"&  c #3D3529",
"*  c #3B3633",
"=  c #3F3B37",
"-  c #3F3F3F",
";  c #403117",
":  c #443319",
">  c #4A361B",
",  c #4D381C",
"<  c #533C1E",
"1  c #483720",
"2  c #463825",
"3  c #4C3B24",
"4  c #443A2E",
"5  c #4C3C2A",
"6  c #563E21",
"7  c #593F20",
"8  c #543E2B",
"9  c #4B3E35",
"0  c #413D39",
"q  c #4F402D",
"w  c #554125",
"e  c #5D4122",
"r  c #54412C",
"t  c #5B442B",
"y  c #5F482F",
"u  c #4E4132",
"i  c #45413D",
"p  c #554434",
"a  c #594531",
"s  c #5D4835",
"d  c #554A3E",
"f  c #5C4B3A",
"g  c #644424",
"h  c #694726",
"j  c #6B4827",
"k  c #654628",
"l  c #63492D",
"z  c #6E4A28",
"x  c #744D2A",
"c  c #784F2C",
"v  c #76502D",
"b  c #7B512D",
"n  c #634B34",
"m  c #6C4E33",
"M  c #634D3A",
"N  c #714F32",
"B  c #64503C",
"V  c #6A5339",
"C  c #6D583F",
"Z  c #735334",
"A  c #7E5430",
"S  c #715338",
"D  c #785638",
"F  c #7D5A3C",
"G  c #3F3F40",
"H  c #434444",
"J  c #4B4743",
"K  c #4D4945",
"L  c #474748",
"P  c #4A4A4A",
"I  c #535353",
"U  c #5C5C5C",
"Y  c #6F4B4A",
"T  c #7B4A41",
"R  c #714C4A",
"E  c #655144",
"W  c #6D5541",
"Q  c #6F5842",
"!  c #69544A",
"~  c #715642",
"^  c #735B45",
"/  c #7F5149",
"(  c #735C48",
")  c #776044",
"_  c #7D644D",
"`  c #656565",
"'  c gray42",
"]  c #80532F",
"[  c #835531",
"{  c #875833",
"}  c #895934",
"|  c #805838",
" . c #8C5C3A",
".. c #925E37",
"X. c #935F38",
"o. c #956139",
"O. c #9B643B",
"+. c #9F683E",
"@. c #804F45",
"#. c #82534B",
"$. c #9D5F42",
"%. c #8C6749",
"&. c #8F6848",
"*. c #846C57",
"=. c #8E7057",
"-. c #A56C40",
";. c #AB6E43",
":. c #AE7045",
">. c #B27346",
",. c #B77648",
"<. c #B87748",
/* pixels */
", , , < < , , , , , , , , , , > , , > < 6 , , , , , , , , , , > , , , < < , , , , , , , , , , , , , , < < , > , , > , , , , , , ",
"g z v [ { b b b v b v v b x g 6 g z b A { b b A v b v v v v g 6 g z b { A b b b b b c c Z x g < g z b { A b b b b b b v v x g < ",
"x X.;.>.>.:.:.>.:.:.:.:.;.O.] g x X.;.>.>.:.:.>.:.>.;.;.:.O.A g z o.;.>.>.>.>.>.:.:.;.;.;.O.[ g x ..;.>.>.:.>.>.:.:.:.;.:.O.[ g ",
"h { o.O.+.O.O.O.o.O.O.O.o.o.{ g h } X.O.O.O.O.o.o.O.O.O.O.o.] g j { o.+.O.o.+.o.X.O.O.+.O.X.{ g h { O.+.O.O.+.X.o.O.O.O.o.o.[ g ",
"g z c b [ b ] b c A b A b v h e h z x b [ c ] ] b b b b b v j e g j b { A A { c c c ] c ] c h 7 g h c [ b b { c v b b b b v j e ",
"e < , < 7 < < w , < < < , < , < 7 , < 6 7 < 7 < , < < < , < , 6 e , , < < < 7 < , 3 < < < < , < 7 , , < 7 < 7 < < , < < < , , < ",
"e < , , < < < , , , , , , , < e g , , , < , < , , , , , , , < e e , , , , , < , , , , , > , < e g , , , < , , , , , , , , , < 7 ",
"j x A [ { [ { [ A A A A A v j h h x ] [ } [ { { ] b A [ b b z g h c ] [ { { { A [ b b ] ] c j g h x A { { [ } [ [ b b A b v j k ",
"c X.:.>.<.,.<.>.:.:.>.>.:.+.[ h x X.;.>.<.<.<.>.;.>.>.>.:.+.] h j o.:.>.<.<.<.<.:.:.>.>.>.+.[ h x X.;.>.<.<.<.>.>.:.>.>.:.O.[ g ",
"x O.X.X.O.X.+.X.o.o.+.O.o.o.} e z X.X.X.+.X.+.X...o.+.O.o.O.{ e j O.o.O.X.O.X.X.X.X.X.+.X.X.} e z O.X.O.X.$.X.X.o.o.O.O.o.O.} g ",
"h ] [ [ } } } ] ] [ } { { ] b 7 h ] { { } } } ] ] ] } } { ] x 7 h ] [ { { } } [ ] ] } ..{ ] c 7 h [ [ } ..} } ] b [ { } { [ c 6 ",
"h c [ [ } [ { [ ] A { { ] b z 7 h c ] [ { { [ [ ] ] { { ] b x 7 g b ] { { { { [ { ] ] } { c x < g c ] [ { { { [ { b [ { [ b x < ",
"h c ] ] { { { ] ] b { [ ] b z < g c ] [ { { { ] ] b { { b b z 7 g b ] { { { { ] ] ] [ { ] c x < g ] ] [ { { { [ { b ] { b b x < ",
"h c ] { { { ] ] b b { ] b b x 7 g c ] [ { { { ] ] b { ] b b x < g c b { { { { ] ] c ] [ c c x < g c ] [ { { [ ] c c ] { c c x < ",
"h c c { { { [ b b b [ ] b c z 7 g c c [ [ [ ] b c b ] b b x x e g c b { ] [ ] c c c ] ] c c x e g c ] ] ] { ] b b c b ] b c j 7 ",
"h c c ] { [ ] c c c ] b c c x e g c c [ [ [ ] c b c ] b b b z e h x b [ ] { ] x c c c ] c c z 7 g x ] [ { ] b c c c b b c x x e ",
"g x c ] ] ] ] c c c ] ] b c z e g c c ] ] ] ] c c c b ] b c z e g c b ] c { ] ] c c b A b c x 7 g c ] ] ] ] ] ] c c c ] c c x < ",
"e c c ] ] ] ] ] c c ] b c c x < e x x ] ] ] ] ] c c ] b c c z 7 e c c ] ] ] ] ] c c b ] c c j < < c c ] ] ] ] ] c c ] ] c c x < ",
"e c c c c ] ] c x b ] ] b c z < 7 c c ] b ] ] c v x ] ] ] c z < e x c b c { ] c c c b ] b c j , < x c ] ] ] ] c c c c ] c c z < ",
"e x x c c ] ] c x x ] ] b c z , < c c c c ] ] c v b [ b b c j , 7 x c c c ] c x x x c b c x j , e x c c c ] c c c x c c c c h , ",
"> < 7 7 7 7 7 7 e e < < 7 7 < > , < e 7 7 7 7 e 7 e 7 7 < 7 < > , 7 7 < < 7 e e e e e 7 7 7 < > < < 7 < 7 7 e e e e e < < e < > ",
"+ ; O O + + ; : ; + ; ; # # ; ; + ; O O O + ; ; # # # # # # : # + # ; ; ; # ; ; ; : ; ; ; ; : ; ; ; ; ; ; ; ; ; : : : ; : ; : ; ",
"> : ; ; ; > , > > : > > : > > , > ; ; ; ; , , > , : : > : : : > > ; , , , > , > > , , , , > > , > : , > > > > > > > , , , , , , ",
"h z x z z x x z z h z z z z z z j g g g e e g e e j b x j k j g h x x x x j j x j j x j j x j x g g g g g g < < e e e g g e g g ",
"x c c c b b b b b x b ] b ] b c h e , 7 V S Z Z l e ] v N F  .v x c c b c c b b x v b v c b A A w , < < w , , 1 , , , 3 , , 3 k ",
"h x z x x x c b x j c c b b c c g < < l *.=.&.%._ V y n ^ S D Z x z x x x z c c x v b x x b b b x x v v z z w w z h z x v z z v ",
"z z z z x x x x x x z c b c v x k e e e f M l y t r w r B S D S j j z j j x x x x x x z x c c c < > > > : : # # : > : > > > > g ",
"< 7 < < < g 7 7 < 7 < 7 e e 7 7 w , e < : > > : > 3 1 : w n m l < 7 7 < 7 7 7 e 7 7 7 w 7 e e e w w y t t w w w 7 8 w t t w w w ",
", , , , < > , < < > , , < < < , , > > > > > , , > > > , , > > : , , , < , , < < < , , < < < < , , , , , , , , < > > > , , , , , ",
"g z c ] [ c A [ b b v b ] v g e g z b A A v A [ b Z v b A v k e g z b ] b b b { A v v v v v j 7 g j Z A A v A { A A v v A v k w ",
"x ..;.>.>.>.>.>.;.:.;.:.;.+.] g z o.;.>.>.:.>.>.:.:.:.:.:.O.A g j ..;.>.>.:.>.>.:.:.;.-.;.+.A j z ..;.,.>.>.>.>.:.:.:.:.;.O.] g ",
"h { X.O.+.X.O.X.O.O.O.O.o.o.] g k } o.O.+.o.O.o.o.O.O.-.+.o.[ g j { O.+.O.O.+.o...O.+.+.O...A g j { O.+.O.O.O.o.o.O.O.O.o.o.{ g ",
"h z c c ] c b c c b c b c c z 7 h h c b [ c [ c c b c { ] c j e g z x A b b { b v b b b b v j e g z b A ] c { ] c c b b b c h e ",
"7 , 6 6 7 6 7 7 < < < 6 , < , 7 7 , , < 7 < < 6 < < , 6 , < , < e < < < 7 < 7 < < , < < < < , < e , < 6 < < < < < < < < < < , < ",
"7 6 6 , 7 3 , , , , , > , , , 7 g , , , , , , , , , , , , > < 7 e < , < < < < , , , < , , , < e e , , , < < < , , , , , , , < e ",
"z z c [ { [ } } A b A A [ c z g h z ] [ } { } [ [ c c [ [ c h g j x A { { { { A [ A b A A b j g j v [ [ { { { ] ] ] ] ] A v z g ",
"x X.;.>.,.,.,.,.:.:.>.,.:.+.[ g x X.:.>.,.>.,.,.;.:.,.>.>.+.] h x o.;.>.>.<.<.>.>.:.:.>.:.+.] g x o.;.>.,.>.<.>.:.:.:.,.:.O.{ g ",
"x X.X.O.O.X.X.X.O.X.O... .X.} g z X.X.X.+.X.O.X.X.X.O.O.O.X.} g j O...O.o.O.o...X. .o.O...O.} e z o.o.+.O.O.O.X.X.X.O.O.o.o.{ g ",
"h [ [ } } } [ ] [ ] } $.$.} c 7 h [ } { } } } [ [ [ } } } ] ] < g A l l g j h g k g g g g x b 7 k ] [ { { { { { [ ] [ { { [ c 7 ",
"h b h 7 7 7 7 7 7 7 6 7 g x x 7 g c [ { [ } [ [ b [ { } ] c z 7 g j 1 # w 3 > , 1 : 8 3 1 e z 7 g b [ { { { { ] [ ] [ { [ b x 6 ",
"h z 2 4 4 4 * & & & & & & 8 z < g c } [ } } ] ] b ] { { c c z < g j > w Q f r Q f q ~ f 3 e z < g b [ ] [ { { [ ] c ] } { ] z 7 ",
"h z H P U U P H L P H G G p x 7 h c } [ } [ [ ] c { { [ c c z < g x w = #.Y 0 #.R i #.R 4 k x w g b [ } { { [ [ ] c [ { { c z 7 ",
"h m J P ' ' I H L U I G H p z < g c { } } } ] ] b ] ] b c c j < g x t d ! T u ! @.9 ! #.p z x 7 g b ] } { [ [ [ ] c { [ ] c x < ",
"z z J L U U P P I ` ` L H s j < h c [ } } [ ] b c ] { ] c c j , h c w u Q V a ^ Q f Q W r j j < g c ] } [ } [ ] c c [ [ c c z < ",
"h z J L P H H H H U P L H s h 6 g c [ } ] b ] b c ] ] b c c x < g x e r Q V t ^ V s ^ M 8 x z < g c ] [ [ { ] [ b c b [ c c x < ",
"h D K H G H H H L L H G H M x 7 g c } } [ ] ] c b b b b c c z < g c y a Q Q n ^ V s ( M t x x < g b ] } [ { ] c b b b [ ] c x 7 ",
"z { m p 4 9 s s s s p p f b z 7 g c } } } b b x x c b c c c z < g x e f Q B p ^ ) s ( B t v x 6 e c ] } [ [ ] b b { { b b c z 6 ",
"g [ O.{ n N .... .X.{ } X.X.x 7 g c } } ] ] ] c x c ] c c c z < g x w d ( B p ^ B p ^ E u v c 6 g c b } [ { ] ] c ] b [ b c x < ",
"h b A x 2 8 [ [ c [ [ [ A A x e g c c ] [ ] ] c c ] ] c c c x g k x 6 = @.R 0 / Y 0 #.Y 5 c x e g c ] [ [ [ b c c c ] } [ c z e ",
"h x > @ o % N c c x c e > e z e g c ] [ ] ] c c c c ] ] c x h < g x g 9 Y S 9 E T 0 Y T 8 z x e g c ] [ ] [ ] b c c c [ ] c z e ",
"g h & o . X m [ c c c g r e z w e c ] ] ] ] ] c c c ] c c c z < 7 b z t s a t s 8 8 8 n h b x < e x b ] c [ ] ] c c c c c c x 7 ",
"g c 6 @   $ n [ { b b { [ b x < e c ] c ] ] ] { ] ] [ c c c z < 7 [ } A x x b x x [ x x } } x < 7 c c ] ] [ ] ] c c c [ ] c z 7 ",
"g { N d $ * m c b b b ] [ b z , e ] ] ] ] ] ] ] c c ] ] ] c h , 7 c .. .{  .} { }  .{ } ..[ z < e c c ] ] [ c c x c c [ [ c x < ",
"7 { ..F W S N c x x b b b b j , < z x c c c ] c c c c c c c h , 7 x c b b ] b b c c c c ] c h , 7 z c b ] ] b c c c x x x c h , ",
", 7 h h h z g g g 7 g e e e < , > < e g e h g e g e e g e e < > , < g g g h e g e g g g e 7 < > > < e e g g g g g g g g 7 7 6 > ",
"+ ; ; : ; ; ; ; : ; ; > : ; ; ; ; ; ; > ; ; : : : ; : : : ; ; : + + O + ; ; + + ; ; + ; O ; ; : ; ; ; O ; ; ; O + + ; + + + ; ; ",
"> : ; ; + ; ; > : ; ; : ; ; : > > ; ; : ; ; ; : ; ; : : ; ; ; > > ; : ; ; ; ; ; : ; ; > : ; > : > : : : + ; ; : : ; : ; ; ; > : ",
"e e 7 g g g g 7 g 7 7 g g 7 g < 7 e e 7 e g e e e e e 7 e e e 7 7 e e 7 g g g 7 e e e g e e 7 e 7 e 7 e g h e e g 7 7 7 e e e 7 ",
"c ] c c c ] ] c b b ] ] ] c c c c ] ] c ] ] ] c c ] ] [ ] c c c c c c ] ] [ c c c c ] ] ] ] c ] ] c c c ] [ ] c c b ] ] ] c ] c ",
"x x c x c { b x c b ] ] b c c x x x x x c [ ] x x ] ] [ ] c c x c x c c c [ ] c x ] ] [ c x c x x x c c c [ c c x c ] { c x c c ",
"h z x c x ] c j x b ] ] c x x z h z x x x ] ] j x c ] [ c c c z h h x x c ] c x z x ] ] ] x x z h z x x c ] c x j c b [ ] x x z ",
"j z z x x b b x z c ] b b c c x h x x x x ] c x j c ] ] c c c z z x z z c [ c x z x c ] c c x x j z z x c ] c c z c c [ c c c x ",
"z z z z x c x x j x b b c x x j z z z h j ] c z h c c c c c x z z z z z c c x x x z c ] x x x z z x h z c c x x z x c c c x x j ",
"g h e < g j h e < g j h h h h < e h 7 7 g h h 7 7 g h j h g g 7 e h 7 7 j z h e e < g h h g g 7 e g 7 7 h j h g < 7 g j h g h < "
};
