/* XPM */
static char *result[] = {
/* columns rows colors chars-per-pixel */
"64 64 68 1 ",
"  c #1D1D1D",
". c #211F1A",
"X c #192515",
"o c #182D11",
"O c #1F211E",
"+ c #1E2A1A",
"@ c #242016",
"# c #24221D",
"$ c #29251C",
"% c #24321E",
"& c #242424",
"* c #292724",
"= c #262925",
"- c #2A2925",
"; c #2C2C2B",
": c #302F2C",
"> c #283021",
", c #2A3B26",
"< c #2F302E",
"1 c #2F3C2D",
"2 c #3B3327",
"3 c #343B26",
"4 c #3E3A25",
"5 c #33332C",
"6 c #3C362B",
"7 c #363C2C",
"8 c #393D2D",
"9 c #343534",
"0 c #383735",
"q c #363933",
"w c #393B34",
"e c #373738",
"r c #373838",
"t c #3B3C3B",
"y c #473722",
"u c #433922",
"i c #4A3A24",
"p c #453D2B",
"a c #493C29",
"s c #3C442C",
"d c #3F482B",
"f c #3D4134",
"g c #3F403B",
"h c #40472E",
"j c #424A2E",
"k c #414536",
"l c #4B4531",
"z c #444B33",
"x c #4A4C34",
"c c #41443C",
"v c #46493B",
"b c #494D3D",
"n c #514934",
"m c #554E3B",
"M c #4B5236",
"N c #4C513C",
"B c #51563A",
"V c #51583D",
"C c #3F3F40",
"Z c #414241",
"A c #474A40",
"S c #4B4D43",
"D c #4C4D4A",
"F c #4D5042",
"G c #4F5149",
"H c #525542",
"J c #545941",
"K c #51534C",
/* pixels */
"tZCt: *te0q9ttttcw7fZbMMxdsktCfgtCgt9 =tte99ttttcw7fftCZdddftCfc",
"ttCt:.*0et95tZCpZqqfZvBNzjdvCCggtCtg5@*trt99tCtCZ07f7tCZfddfttgt",
"ttte:.$tte9qrCCCcw8fZvBBzjdvCtfgttgg5@-trt9qttttZ87fsrfZdddfttfc",
"tttt:.$eet0qrerrgwwfgvBBMzjvgfgZgtgt9@-ewtq9tertgqwfsqgZdfdkggtZ",
"CZgt;@$ereqqCrtgwtfsfbBJzbzbgftZZZtt:@-tCe9qttttftfs7wfZjzjfZggZ",
"tCtw9@*ee999Ctew9tq3fbzBzzzfCZtgCpt9:@-0e99<tttr9rw35wqrkzffZZff",
";;;;& .*&&&&;;=*&=&=;=7q7535<<;=;;;;*.#;&&&*;<=*&=&&=&&&<q<99;;;",
"**;&&&&#&&&&;*=*&&&*==<9<<<;=O*;;&;*&#.&O&&&*=;&&&&&&&&*55<;&&&;",
"tttgt08qe9wxHvvfqrqsfbMbMzbk;OrgCrtge6a99999ttw99rqqwwqgmmkg;&9g",
"tgfgt8uwwq8zVbSzttfszSbGbzNb<&wkCrgge2u89e99tt9ttwffqtswnlfk;&wk",
"tttgt6uwrq8jMbFktfgfzDzDzkNS<&wfggtge2y0w909ttrttftq3gqqnnhk;&8c",
"twwkt6utrq7MMSSztqtwkzMDzjNS<@wctggfe2iwe959CCwrtwtqsfswllfk;$8k",
"ttttt7u087qMVSbktrttdzbDzzMb<#wZCttCr4y09<9qttwgtwtqwfsqnlfk;$wc",
"ttttt84tq88MBbSfrrgwzvADjMSA<@wpgtCtr2at95qeCAtgrtgtws3qllkk;$tt",
"t0ttt84w088zNAbkrCfszvSSkxDv;*CpttCCr6awe999tftZttf7gf7wnlkc;#cp",
"tttZ084t037zFvzvrwffzfFDjbSv5#CZttCg92i0e59wtwgZtwfqwsswllcc:*CZ",
"ttttw68073qzFbjkttf7zfSGzzDS2$tCttCC92p9q39tq9tZttfqgfswklfv5$wc",
"twttqw8w7swxFbkcttgfzzSDvcDS5$0CtttZ99qw559t9<tZttgfCf3qkzZc5$rp",
"twwg89qw738zDFkfttfwzfADAASS2$9tttfp9;97799eq7tCgqfqgf7wkkcC5@tC",
"tw0gq8qq9q8kDbjvwff7zASDDAGS5@qctttt99q1999t99tZtffqfq7wwfpZ2&wC",
"r9eC76q799tvDbzZtwgwzfAGDADF2#0ZttgCqqw199tr<wtCrggqgfsqffcZ5@0A",
"teeC77qq9<eASvktwqgqffcDAZDS5$qZttrr<1q1<<9r99tCwwtrCw59ffgc:$0C",
";;;==$>%&&;<e99;=;;*;=999q75=#;;=;;;&&=>&&=;=;;9=*=&;=*=<<99*#;;",
"&&*=O Xo &O&<9;& &O&==<q<q55&&&;;&*=O XoO &&&&&*&&&&OO&&=-=;&&**",
"trCC< +,e9efScct999wfsbNzfvz8tftrCCe< +,999ewert9<9wtqw0fxzs3twg",
"ttCC< Oq99tSKbACee3gfszbztZkstfgeett< +99<9r99wtew3fZ3swszdsstfg",
"ettC< &tw9tZbkAtttsfcszbbfZfstfgrrCt9 &rw;9t99wtttsfZssqfzd3stgg",
"ttCt<.&99rtkvtcCw9sfkwzMjvZfftwcteet< &e999t9e9trw3fZf8tszjs7tfg",
"eeCt;@*9tewfktttwq7fZgzbzjjstggttete<.$ere99ttttwq7fttcchjjstCfg",
"eeCt:.$:9r9tgCte57ffZtzNzjjftCfgeeee;.$99e95tCtr5q7fwtZZjjjftCgg",
"9ttt:@$9t990ttettq7fZtzbzjjftZgg9ete:.#9e959ttrtwq7fwtcAhjjftCfg",
"tetC:@*ttee9rwetZwqfCtbbzdddttfttep0:.*0tw99eeeCAq7fwwwwkdjfttfg",
"tgtt9O*tt99qttttgw7ffgZghdhstCggtCCC< *ete99ttttZw8fCcMlzdsktggg",
"tCtC9.-t0t99tCtCZq7f7gCZsddfttfgtttt;.&tte99tZttZqwfCvVBzjdvgtfg",
"ttCC:.-ttt9qttttZf7fsrgZhhjftCfgttte:@*ete99tttCcw7fcvVBzjjvCtgg",
"tgpt2.-ertq9tettgqqf7wgCshsktggZCtCe:.$0wtqqteetgwwfcvVBMzjvgfgZ",
"CcCt9.$eteqqettgftfssrggjzhktctcZcCe:@$errwqttqgftfsfABJzbzvZfCZ",
"tCww:.-p9999CCe99rq35e7wkzskCCfgttt0:@$te99<Ctrq9wq7wbMMzzdvCZff",
";;;;*.#;&&&&;;=&&=&&**&&:9:9<9;;;;;;*.#**&&&;<;=&*&=;=885755;;;;",
"*&;=&OO&& &&;&;*&&&&&&&&59;;&&&;;*;*&O&&O&&&;=;=&&&&==99<<<;=&&;",
"tttg06aqe999trrw9tqqttqgmnzt;&9gttttew8q00wxFvvdqrqsdbbAMzzc< rg",
"ttfgt2u7r999tt9ttt7f7wswnnfk;&8kCtggt8uq0w8zVbNgttqsbSMFMzNF<&wk",
"Ctgg92y9r9w9tttttfgqsqqqnnkf;&qctt0gt6yw0q8jMbFftfgwzSzDzzMS;*qk",
"Ctfgt2ytr9<<gCwrtqtw3fstnlsc<#8ktfwkt8utt78MBFFvtqCrdvbGzzNA;#8k",
"CtCC94y09<9wtCgttqtfqfsqnlsk;$wCttttt38w767MBFbftqttjbbGzzbv<$wk",
"ttCCt2at9<qwCZwgtrgqgfsqnlkk;$tCtttCtq4wq7qMNbbfrtwfkvADkxFS;$tC",
"ttCpe2a0r99wgftZttfqqf3qnlck<$pCtttgt8ut038xFbAvttfszkSSjMSv;$tc",
"ttCC92iwq59rrfgCtrf7gssqllcc:$tZtttt064tq87xNbzgttfqzzADzxDv:$tZ",
"tttg92p9939tq5tZttfqgf3wzzkk5@qCtwttw68r737xFbdcttfqzkSDzbDb5$wc",
"tttg9<qw979t99tZttgfgfsqvlZp2$qctwtt8qww7sqbDAzCtwgfzkAGvvDb5@0C",
"twwg9<qq759rq9tCttfwgfsqffCC<$0gtwfgq5qw737zSNzpgtf7zkAKAADD2#0p",
"tttZ99q1999e9wttwwf7fq7qfggv2&wZtrttq7qq9w7jDSzvqqffzZAKDZFF5&tZ",
"tttCqqq199r99qtcrtgwfq5wffgb5#0Ztwtt75ws99tzDvzctwtwzcADDAKF2&0Z",
"ttre55919<e9q5tZe9twCf7wfftv2$0Ctrre78q59<eADcktrwtwsfkDZADA5@wZ",
";;;;=&=%&&;;;=;<;;;=;=&;<<5<*O;;;;;;=->>&*;<ee9;;*=;==999w7q*#;;",
"&&=*O Xo &&O&&&*&&OO&O &=-;;&&&=&&**  XoO &&<9;&O&&&&=5q;955&&&&",
"tttC< +,e9eew9rt9<9ttwqwfzz73tggCeCt< +,99ekSkkt997gf8zbzfAk7tgg",
"teet< +99;9e99wtew3fZssqfzdsstftCrtC< +q99tAKvAC9r3fvszNzwAkstfg",
"ettt< &te<9te90ttt3fcsswfzd7stfgerCC< &r09tASvvZttsgkszNbfcksgwg",
"eett< &0999e99rtt03fZw3tdjssstfgetCC< &e99tcvtgtt93fcqzbzkZfwtwc",
"teet:.$9r999tCrtwq7fttcZdjjfCCtgeeeC<.$ete9fcttCwq7fZtzMzjjstCfc",
"eeee:@$59w99tZtr7q7fwtZZkjjfCZgteeCC<.$99t9tfttr57wfZtzSzjjftCgg",
"9eee:@#9r9<wttterq7swtgZdjjstpcteeCC:.$9r990tttrwq7fZtxbjjjftZfg",
"ttte:.*etw99eettAwqfwwftddjfttfttepw:.*etew9trrCAwwfZgxNjjjfttft"
};
